<?xml version="1.0" standalone="no"?>
<!DOCTYPE svg PUBLIC "-//W3C//DTD SVG 20010904//EN"
 "http://www.w3.org/TR/2001/REC-SVG-20010904/DTD/svg10.dtd">
<svg version="1.0" xmlns="http://www.w3.org/2000/svg"
 width="700.000000pt" height="700.000000pt" viewBox="0 0 700.000000 700.000000"
 preserveAspectRatio="xMidYMid meet">
<metadata>
Created by potrace 1.14, written by Peter Selinger 2001-2017
</metadata>
<g transform="translate(0.000000,700.000000) scale(0.100000,-0.100000)"
fill="#000000" stroke="none">
<path d="M4802 5933 c2 -18 -1 -34 -7 -34 -5 -1 -30 -2 -55 -3 -41 -1 -45 -3
-48 -28 -3 -26 -2 -26 55 -26 135 -1 130 0 135 -30 4 -27 2 -28 -37 -27 -37 0
-40 -2 -45 -30 -4 -24 -10 -30 -30 -30 -20 0 -26 6 -30 30 -4 24 -10 30 -28
29 -28 -2 -32 6 -35 71 l-2 50 -113 0 c-63 0 -116 -4 -119 -9 -3 -5 -6 -18 -7
-30 -1 -20 -6 -21 -88 -21 -92 1 -93 0 -89 -47 1 -9 -9 -20 -26 -26 -15 -6
-21 -11 -13 -11 13 -1 13 -2 0 -11 -13 -9 -13 -11 0 -20 8 -5 11 -10 5 -10 -5
0 -11 -12 -12 -26 -1 -22 2 -25 24 -21 17 3 21 1 14 -6 -6 -6 -21 -11 -34 -11
-22 -1 -23 1 -21 64 2 63 2 66 -21 65 -29 0 -34 -5 -38 -36 -4 -22 -8 -24 -60
-24 -59 0 -64 -5 -58 -60 0 -6 -43 -10 -113 -10 l-113 0 -1 -33 c-1 -22 2 -31
10 -26 7 5 8 3 2 -7 -13 -21 -14 -39 -1 -40 7 0 85 -1 175 -2 l163 0 -3 -31
-3 -31 -85 0 c-77 0 -86 -2 -91 -20 -8 -27 1 -47 17 -41 7 3 16 1 19 -5 4 -5
1 -8 -7 -7 -8 2 -14 -8 -16 -25 l-3 -28 128 3 128 3 -2 30 -1 30 106 0 107 0
3 58 c2 31 -1 57 -5 58 -4 0 -30 2 -57 2 -45 2 -50 5 -57 30 -7 26 -6 27 28
27 34 0 35 1 31 33 l-4 33 59 -1 c36 -1 62 -6 67 -14 6 -10 8 -11 12 -1 2 7
22 13 45 14 27 1 39 -2 36 -10 -2 -6 -15 -9 -28 -6 -14 2 -33 1 -42 -3 -31
-14 -42 -13 -37 0 4 10 -1 12 -15 8 -23 -6 -29 -23 -8 -23 7 0 8 -3 2 -8 -6
-4 -10 -22 -11 -39 l-1 -33 90 0 c111 0 107 -14 -5 -17 -84 -2 -102 -8 -78
-23 10 -7 11 -10 3 -10 -7 0 -13 -5 -13 -11 0 -5 4 -8 8 -5 4 2 14 0 22 -5 12
-8 11 -9 -5 -7 -14 2 -20 -3 -21 -19 -1 -17 4 -23 20 -24 11 0 29 -2 39 -4 16
-3 22 7 17 30 -1 5 7 2 17 -6 25 -22 49 -29 60 -18 7 7 10 -3 9 -28 -1 -34 -4
-38 -26 -38 -20 0 -26 -6 -30 -30 l-5 -30 -88 0 -87 0 0 -26 c0 -33 -13 -38
-79 -34 l-51 4 3 -32 2 -32 -87 0 c-99 0 -88 10 -92 -85 -1 -35 -2 -35 -46
-35 l-45 0 -5 54 c-7 72 -27 79 -32 11 -1 -28 0 -57 3 -63 4 -7 6 -50 5 -96
-1 -75 -3 -84 -20 -87 -28 -4 -41 7 -41 36 0 25 0 25 -87 22 -65 -1 -88 1 -89
10 -1 7 -2 22 -3 33 -1 14 -7 19 -21 18 -30 -4 -45 10 -39 34 4 14 15 23 33
25 22 3 26 8 27 38 3 83 2 80 34 76 17 -2 33 0 36 5 7 12 24 11 24 -2 0 -5 -5
-7 -12 -3 -13 8 -3 -12 19 -38 10 -11 11 -18 4 -23 -6 -3 -11 -1 -11 4 0 6 -4
11 -9 11 -6 0 -8 -9 -6 -21 3 -15 0 -19 -10 -15 -9 3 -12 0 -8 -10 4 -11 9
-12 19 -3 8 6 14 7 14 3 0 -5 14 -10 30 -10 17 -1 30 2 30 7 0 5 5 9 11 9 5 0
8 -4 5 -9 -4 -5 1 -8 11 -7 9 2 17 10 19 19 1 10 -2 15 -7 11 -5 -3 -12 2 -15
10 -3 9 -11 16 -16 16 -6 0 -5 -6 2 -15 9 -11 9 -15 1 -15 -6 0 -14 7 -17 15
-4 8 -10 15 -16 15 -11 0 -38 25 -38 35 0 3 9 4 19 0 11 -3 22 -1 26 4 3 6 0
9 -7 6 -10 -4 -13 10 -13 60 0 36 2 65 5 66 31 5 60 3 60 -4 0 -5 6 -5 13 0 6
6 20 9 29 8 14 -3 17 6 15 58 l-2 61 -53 1 c-54 0 -76 14 -65 42 3 7 -1 14 -8
14 -8 1 -32 3 -54 4 -22 1 -45 3 -51 4 -9 1 -10 13 -5 52 1 3 13 6 29 5 26 -1
27 1 28 49 1 28 -2 55 -6 60 -5 6 -57 10 -121 10 l-113 0 -1 -30 0 -30 -200
-1 c-110 0 -205 4 -212 8 -6 5 -9 16 -7 23 7 17 -32 39 -49 28 -6 -4 -12 -19
-12 -33 0 -21 -5 -25 -28 -24 -15 0 -28 -2 -28 -5 -6 -23 -3 -61 3 -61 4 0 8
-13 8 -30 l0 -30 126 0 126 0 -4 32 c-3 32 -2 33 37 33 22 1 45 -1 51 -3 7 -2
10 -35 10 -89 -2 -75 -4 -87 -20 -89 -25 -3 -47 6 -40 17 3 5 3 17 0 27 -5 15
-16 18 -59 16 -28 -1 -55 -2 -58 -3 -3 0 -5 -13 -5 -28 l1 -28 -117 -1 c-65 0
-118 2 -119 5 -5 35 -4 51 3 52 4 1 18 2 31 3 20 1 22 6 23 54 0 29 -4 56 -10
59 -18 11 -96 11 -103 -1 -4 -6 -8 -20 -8 -31 0 -14 -7 -20 -22 -21 -13 -1
-27 -2 -31 -3 -4 0 -8 -13 -8 -28 1 -27 0 -28 -59 -28 -59 0 -59 0 -60 -30 0
-23 -5 -30 -20 -31 -27 0 -45 14 -39 31 8 19 -23 31 -76 31 -39 -1 -45 -4 -46
-23 -1 -13 -2 -27 -3 -31 0 -5 -27 -8 -58 -8 -53 1 -58 -1 -59 -21 -3 -42 -4
-44 -21 -39 -23 7 -38 -4 -40 -26 0 -10 -1 -22 -2 -28 0 -5 -15 -8 -31 -6 -24
3 -30 0 -29 -13 5 -50 2 -52 -58 -48 -50 2 -58 6 -58 22 0 25 -14 47 -25 40
-17 -10 -41 7 -35 26 6 18 -16 36 -45 35 -13 -1 -15 -28 -16 -176 -1 -96 -2
-179 -3 -184 -1 -4 -12 -6 -25 -4 -30 6 -33 -2 -32 -64 2 -38 -2 -49 -16 -54
-10 -3 -22 -2 -28 1 -12 7 -12 7 -17 -65 -9 -138 -17 -174 -38 -180 -16 -4
-21 -14 -22 -47 -1 -77 -1 -76 -28 -71 -14 3 -26 0 -27 -6 0 -6 -2 -15 -3 -21
-2 -5 -3 -16 -4 -22 0 -7 -14 -13 -31 -13 -17 0 -29 -3 -29 -7 7 -43 -1 -51
-51 -50 -28 0 -54 -3 -58 -7 -7 -8 -8 -12 -11 -40 -1 -11 -29 -13 -142 -12
-77 0 -145 -2 -151 -5 -5 -3 -9 -12 -8 -20 5 -31 -1 -39 -30 -39 -19 0 -30 -5
-29 -12 6 -46 1 -49 -63 -48 -94 2 -118 1 -117 -7 1 -5 1 -18 0 -29 -1 -21 -5
-22 -159 -22 -86 0 -167 -1 -179 -1 -19 -1 -23 -7 -23 -30 l0 -30 -109 1 c-60
0 -114 -2 -120 -6 -6 -4 -11 -18 -11 -32 0 -25 -2 -25 -57 -23 l-58 3 -3 -31
c-3 -30 -4 -30 -59 -32 -31 0 -58 -2 -59 -4 -2 -2 -6 -40 -10 -85 -7 -79 -6
-83 14 -89 17 -4 20 -9 12 -23 -7 -14 -6 -23 6 -34 9 -9 20 -14 25 -11 5 4 9
-8 9 -24 0 -31 1 -31 53 -31 28 0 47 -4 40 -8 -6 -4 -13 -16 -15 -27 -2 -14 3
-21 20 -23 17 -3 22 -10 22 -33 0 -26 3 -29 33 -30 29 -1 30 -2 7 -8 -35 -8
-38 -51 -4 -51 23 0 29 -12 25 -47 -1 -7 8 -13 21 -13 18 0 20 -2 9 -9 -8 -5
-15 -19 -16 -30 -1 -16 4 -21 22 -21 19 0 23 -5 23 -30 l0 -30 123 -2 c67 -1
96 -3 64 -5 -48 -3 -58 -7 -53 -19 3 -9 6 -21 6 -27 0 -8 18 -11 50 -10 49 1
50 0 50 -28 0 -29 0 -29 63 -30 34 -1 52 -4 41 -6 -12 -2 -24 -13 -27 -23 -6
-23 0 -30 25 -30 16 0 24 -22 19 -52 0 -5 27 -9 62 -10 60 -2 60 -2 12 -5 -52
-4 -65 -14 -58 -42 3 -12 16 -16 56 -16 50 0 52 -1 51 -27 -1 -28 0 -28 60
-28 61 0 62 0 61 28 -1 23 -7 27 -33 30 -27 3 -30 7 -29 30 2 26 5 27 60 30
63 3 61 6 58 -81 l-1 -38 92 3 c92 3 93 3 93 28 0 20 -6 26 -31 30 -26 4 -30
9 -29 33 1 15 -2 27 -7 27 -4 0 -8 25 -8 55 0 42 -3 55 -15 55 -12 0 -15 -13
-15 -55 0 -30 -4 -55 -8 -55 -5 0 -8 14 -7 30 l2 30 -152 0 -151 0 0 65 c-1
57 1 65 15 59 13 -5 91 -7 172 -5 10 1 15 9 14 24 -2 21 -6 22 -93 25 -77 2
-92 0 -92 -13 0 -8 -4 -15 -9 -15 -6 0 -9 9 -8 20 1 20 7 20 272 18 290 -3
272 0 266 -48 0 -6 -38 -10 -89 -10 l-88 0 -2 -30 -2 -31 122 3 123 3 0 55 0
55 60 5 60 5 -1 58 -1 57 59 0 c39 0 58 -4 59 -12 1 -20 1 -81 0 -95 -1 -8
-15 -13 -37 -13 -28 0 -35 4 -33 18 1 9 1 34 0 55 -1 30 -5 38 -17 35 -17 -3
-19 -16 -26 -170 l-3 -58 31 0 c27 0 31 -3 29 -27 -1 -27 -3 -28 -61 -31 l-61
-3 2 31 c1 16 -2 30 -7 30 -4 0 -8 25 -8 55 0 42 -3 55 -15 55 -12 0 -15 -13
-15 -55 0 -30 -4 -55 -9 -55 -4 0 -8 -12 -7 -27 1 -24 -3 -28 -30 -31 l-31 -3
1 -90 1 -90 30 3 c29 3 30 4 30 58 l0 55 120 5 120 5 0 55 0 55 90 5 90 5 0
55 0 55 242 3 241 2 -2 60 c-3 55 -1 60 18 59 12 0 15 -3 9 -6 -7 -2 -13 -16
-13 -29 0 -17 6 -24 20 -24 20 0 21 -2 23 -42 1 -21 -4 -23 -51 -26 -49 -3
-52 -5 -52 -30 0 -26 1 -27 50 -24 37 3 50 0 51 -10 1 -7 2 -20 3 -28 0 -8 14
-17 31 -20 29 -5 30 -7 30 -60 0 -53 1 -55 30 -60 29 -5 30 -7 30 -60 0 -50 2
-55 25 -60 25 -5 25 -5 25 -123 l0 -117 -86 0 -86 0 1 -27 1 -28 -90 -5 c-88
-5 -90 -6 -90 -30 0 -23 4 -25 60 -31 l60 -6 -54 -1 c-49 -2 -52 -3 -40 -19
10 -11 10 -14 2 -9 -10 5 -13 -4 -13 -37 0 -54 -6 -57 -106 -57 l-74 0 0 -41
c0 -29 3 -38 12 -33 11 6 11 4 1 -7 -17 -18 -16 -29 3 -29 9 0 12 5 8 13 -5 9
-4 9 6 0 22 -20 6 -25 -75 -24 l-77 1 2 -38 c3 -55 1 -72 -8 -72 -4 0 -7 26
-7 57 l0 58 60 5 60 5 0 55 0 55 90 5 90 5 0 55 0 55 -90 0 c-89 0 -90 0 -90
-25 0 -20 -7 -26 -30 -30 -25 -4 -30 -10 -29 -33 0 -26 -2 -27 -52 -27 -28 0
-66 -3 -83 -6 -27 -6 -32 -11 -29 -33 2 -18 9 -26 22 -26 14 0 20 -8 20 -27 2
-28 1 -28 -60 -28 l-61 0 1 57 c1 56 2 58 31 63 23 4 29 10 30 33 l2 28 -61
-3 -61 -3 0 -85 -1 -85 -34 -5 c-35 -5 -35 -5 -38 -62 -3 -53 -5 -58 -26 -58
-21 0 -23 -4 -21 -48 2 -63 -2 -72 -34 -72 -26 0 -27 -2 -26 -57 0 -58 0 -58
-32 -61 -28 -3 -32 -7 -30 -30 2 -23 -2 -27 -29 -30 l-30 -3 -1 -89 -1 -90
122 0 121 0 0 57 c0 57 0 58 30 60 20 1 23 0 8 -4 -18 -3 -23 -11 -23 -33 0
-23 4 -28 20 -25 20 4 24 -4 21 -37 -2 -13 5 -18 26 -18 28 0 28 0 25 -60 l-4
-60 69 -2 c64 -2 65 -2 15 -5 -51 -4 -53 -5 -50 -31 3 -25 6 -27 53 -27 48 0
50 -1 49 -28 l-1 -27 181 0 182 0 -1 48 c-2 70 0 72 64 72 l58 0 -2 43 c-3 80
-7 77 125 77 l118 0 -2 60 -3 60 62 0 62 0 -1 58 -1 57 150 5 150 5 2 50 c0
28 1 53 2 58 1 4 40 6 89 5 l87 -2 -83 -3 -83 -4 3 -27 c3 -26 4 -26 83 -27
79 0 80 0 80 -25 0 -19 6 -26 25 -28 24 -3 25 -6 25 -62 0 -57 -1 -60 -25 -60
-25 0 -26 -3 -25 -57 l0 -58 120 -5 c66 -4 110 -7 97 -8 -19 -2 -23 -7 -20
-30 2 -19 9 -27 23 -27 15 0 20 -6 19 -27 l0 -28 95 0 c53 0 91 -4 85 -8 -6
-4 -11 -31 -10 -59 1 -47 -1 -53 -19 -53 -33 0 -41 -13 -41 -65 1 -49 1 -50
36 -55 19 -3 90 -4 157 -2 l123 3 -1 47 c-1 26 -1 53 0 60 1 9 32 12 119 12
l119 0 -3 -67 c-2 -38 -5 -90 -7 -116 -3 -30 0 -50 7 -52 6 -3 76 -6 156 -7
l145 -3 0 -55 0 -55 70 -5 c114 -8 115 -8 115 61 0 59 0 59 30 59 l30 0 0 60
0 60 90 0 90 0 0 60 0 60 90 0 90 0 0 60 0 60 60 0 60 0 0 60 0 60 60 0 60 0
0 -60 0 -60 60 0 60 0 0 60 0 60 60 0 60 0 0 60 0 60 60 0 60 0 0 60 0 60 60
0 60 0 0 60 0 60 30 0 30 0 0 60 0 60 63 -1 c34 -1 50 -4 35 -6 -22 -3 -27 -9
-26 -29 2 -21 15 -29 41 -25 4 0 7 -13 7 -29 0 -30 0 -30 60 -30 l60 0 0 120
0 120 90 0 90 0 0 60 0 60 30 0 30 0 0 60 0 60 -30 0 -30 0 0 60 0 60 30 0 31
0 -3 183 -3 182 93 -3 92 -3 0 60 0 61 30 0 30 0 0 60 0 60 -30 0 c-27 0 -30
3 -30 29 0 25 -4 30 -27 33 -27 3 -28 6 -31 61 -3 55 -4 57 -31 57 -27 0 -29
3 -36 58 -5 31 -7 69 -6 85 2 21 -2 27 -17 27 -18 0 -20 -6 -18 -45 1 -25 -1
-50 -6 -57 -4 -7 -8 14 -8 50 l0 62 30 0 30 0 0 60 0 60 30 0 30 0 0 73 c0 39
4 67 8 61 4 -7 31 -11 67 -10 l60 2 3 52 c2 32 -1 52 -7 52 -7 0 -11 26 -11
65 0 67 -3 71 -47 66 -8 -1 -13 10 -13 28 0 19 -6 31 -16 33 -10 2 -18 15 -19
34 -2 26 1 31 16 27 17 -5 19 1 19 55 0 59 1 61 28 64 21 2 28 9 30 31 2 17
-2 27 -10 28 -7 1 -20 2 -28 3 -8 0 -16 13 -18 29 -4 29 -10 31 -84 28 -36 -1
-38 1 -38 29 0 29 -14 37 -52 31 -5 0 -8 14 -8 32 0 32 2 33 30 29 l30 -4 0
60 c0 56 -2 60 -25 64 -14 3 -28 1 -31 -3 -3 -5 -29 -9 -59 -9 -48 0 -54 -2
-52 -20 1 -19 10 -25 32 -20 6 1 7 -2 3 -6 -4 -4 -3 -12 2 -19 7 -8 5 -12 -5
-12 -8 0 -12 4 -9 8 2 4 0 10 -6 14 -5 3 -10 2 -10 -4 0 -5 -3 -17 -7 -27 -5
-13 -3 -15 7 -9 9 5 11 4 6 -3 -16 -27 -26 -8 -26 51 l0 62 57 0 c58 0 58 0
58 30 0 26 -3 30 -27 29 -25 -1 -28 2 -28 30 l0 31 -89 -1 -90 -1 -3 31 c-3
30 -3 31 -60 29 -57 -1 -58 -1 -58 28 0 16 -3 29 -7 30 -5 0 -18 2 -30 3 -13
2 -23 -1 -23 -6 0 -4 -11 -8 -25 -8 -31 0 -31 -28 0 -48 l20 -13 -20 5 c-16 5
-20 1 -20 -19 0 -17 4 -24 13 -20 7 3 10 0 7 -5 -3 -6 -2 -10 4 -10 5 0 11 5
13 12 3 8 6 7 10 -4 5 -11 0 -15 -20 -14 -22 1 -26 -4 -27 -26 -2 -27 0 -28
52 -28 52 0 53 0 53 -30 0 -19 -5 -30 -12 -29 -38 5 -48 -2 -48 -30 l0 -29
-87 1 -88 2 -5 -33 c-3 -18 -8 -33 -12 -32 -46 2 -47 1 -50 -57 l-3 -58 -45 0
-44 0 -2 42 c0 23 3 40 7 37 5 -3 6 2 3 10 -5 13 -33 30 -40 24 -1 -2 -4 -29
-5 -59 l-2 -56 -54 -1 -53 0 0 89 c0 85 -1 89 -22 90 -13 1 -67 1 -120 1 l-98
0 0 29 c0 28 7 33 43 30 14 -2 17 6 17 54 0 30 5 64 12 74 14 22 3 55 -14 45
-8 -4 -10 -3 -5 2 5 5 14 9 20 9 5 0 12 5 14 10 6 19 -12 33 -47 37 l-35 3 -5
64 c-5 62 -6 64 -32 66 -29 1 -32 -4 -29 -42 2 -18 -3 -21 -28 -19 -27 2 -30
-1 -33 -28 -2 -26 -7 -31 -28 -31 -20 0 -26 -6 -30 -31 -4 -26 -9 -31 -32 -30
-25 2 -28 -2 -28 -31 0 -29 -3 -32 -30 -31 -30 1 -30 1 -30 60 0 44 -4 58 -15
59 -8 1 -21 2 -27 3 -14 1 -25 115 -11 117 4 0 44 1 88 2 l80 1 5 60 c5 57 7
61 30 61 23 0 25 4 31 65 3 36 7 54 8 40 2 -14 3 -31 2 -37 -1 -9 17 -13 64
-13 63 0 74 -6 63 -36 -2 -4 7 -10 20 -15 28 -11 32 -66 5 -66 -38 0 -43 -4
-43 -33 l0 -30 58 3 57 2 3 58 c2 44 0 57 -11 57 -18 0 -25 24 -22 73 2 20 -1
37 -6 37 -5 0 -9 4 -9 8 0 5 24 8 53 8 51 -1 52 -2 52 -31 0 -25 -4 -30 -25
-30 -21 0 -26 -5 -28 -32 l-3 -33 60 3 61 2 0 117 c0 115 8 144 33 119 8 -8 7
-11 -4 -11 -12 0 -15 -12 -15 -50 1 -56 -9 -51 111 -53 l70 -1 3 42 c2 23 -2
50 -8 59 -10 16 -11 15 -7 -5 3 -12 1 -20 -4 -16 -5 3 -9 11 -9 18 0 9 -9 12
-24 9 -13 -3 -32 0 -43 7 -16 10 -16 11 0 6 15 -5 17 2 17 54 0 59 12 82 33
61 8 -8 6 -11 -8 -12 -11 0 -14 -3 -7 -6 6 -2 9 -10 5 -16 -12 -19 -12 -36 -2
-43 6 -3 5 -11 -2 -20 -9 -11 -7 -14 12 -15 13 -1 33 -2 44 -3 11 0 27 6 35
14 8 9 12 11 7 4 -4 -7 -1 -14 8 -18 12 -4 15 4 15 49 l0 55 -37 1 c-21 1 -40
1 -43 1 -3 0 -5 31 -5 69 0 51 4 69 13 69 8 0 12 6 9 13 -2 6 -11 11 -20 11
-9 -1 -14 3 -11 8 3 5 12 7 20 4 10 -4 14 4 14 29 0 33 -2 35 -32 36 -18 1
-44 3 -58 4 -14 2 -32 -1 -40 -5 -9 -5 -23 -4 -32 1 -12 6 -17 4 -21 -11 -3
-11 0 -20 6 -20 9 0 9 -2 1 -8 -12 -8 -13 -56 -1 -68 7 -7 11 11 7 31 -1 5 8
1 20 -10 12 -11 31 -20 43 -20 17 0 23 -7 25 -31 3 -27 0 -30 -25 -30 -24 1
-29 -4 -33 -29 -4 -24 -10 -30 -30 -30 -20 0 -26 -6 -30 -30 -5 -29 -7 -30
-60 -30 -53 0 -55 -1 -60 -30 -5 -29 -7 -30 -60 -30 l-55 0 -5 60 c-5 56 -7
60 -30 60 -23 0 -25 4 -28 58 -2 31 1 57 5 58 4 1 36 2 69 3 l61 1 -1 -30 c-1
-27 2 -30 32 -33 31 -3 33 -2 30 25 -2 23 -7 28 -27 25 -14 -1 -21 1 -17 5 4
4 38 8 74 8 l67 0 0 60 0 60 -85 0 -85 0 -5 -30 c-5 -29 -7 -30 -60 -30 -53
-1 -55 -2 -60 -30 -4 -24 -10 -30 -30 -30 -23 0 -25 -4 -30 -60 l-5 -60 -142
0 c-78 -1 -145 -3 -148 -7 -3 -3 -7 -29 -8 -58 -2 -50 -4 -54 -29 -57 -28 -4
-28 -3 -28 57 0 60 -3 64 -40 61 -12 -1 -11 1 2 9 9 6 15 19 13 30 -3 17 2 20
31 20 32 0 34 2 34 33 l0 32 67 0 68 0 5 60 c5 56 7 60 30 60 23 0 25 4 30 60
5 57 6 60 31 61 25 0 27 -3 28 -54 1 -64 4 -70 33 -68 22 1 23 4 23 91 l0 90
-148 0 -149 0 4 -32z m93 -34 c4 -5 -3 -8 -14 -6 -28 4 -34 12 -11 14 11 1 22
-2 25 -8z m12 -94 c0 -8 -4 -12 -9 -9 -5 3 -6 10 -3 15 9 13 12 11 12 -6z
m-229 -51 l3 -30 -117 1 c-108 0 -118 2 -124 20 -13 37 -3 41 118 40 l117 -1
3 -30z m-431 -49 c0 -8 -4 -12 -9 -9 -5 3 -6 10 -3 15 9 13 12 11 12 -6z
m-192 -45 c3 -6 -1 -7 -9 -4 -18 7 -21 14 -7 14 6 0 13 -4 16 -10z m95 6 c0
-3 -4 -8 -10 -11 -5 -3 -10 -1 -10 4 0 6 5 11 10 11 6 0 10 -2 10 -4z m564 -9
c-9 -5 -33 -7 -55 -5 -21 2 -41 -1 -43 -7 -2 -5 -5 -3 -5 5 -1 12 12 15 59 15
40 1 55 -2 44 -8z m56 9 c0 -2 -7 -7 -16 -10 -8 -3 -12 -2 -9 4 6 10 25 14 25
6z m-85 -35 c3 -5 2 -12 -3 -15 -5 -3 -9 1 -9 9 0 17 3 19 12 6z m-180 -30
c-9 -8 -36 -10 -30 -2 2 4 11 8 20 8 8 0 13 -3 10 -6z m65 -15 c0 -2 -7 -7
-16 -10 -8 -3 -12 -2 -9 4 6 10 25 14 25 6z m31 -13 c13 -16 12 -17 -3 -4 -10
7 -18 15 -18 17 0 8 8 3 21 -13z m63 -19 c3 -8 2 -12 -4 -9 -6 3 -10 10 -10
16 0 14 7 11 14 -7z m-1610 -12 c2 -4 -4 -8 -14 -8 -10 0 -16 4 -14 8 3 4 9 8
14 8 5 0 11 -4 14 -8z m36 4 c0 -3 -4 -8 -10 -11 -5 -3 -10 -1 -10 4 0 6 5 11
10 11 6 0 10 -2 10 -4z m60 0 c0 -3 -4 -8 -10 -11 -5 -3 -10 -1 -10 4 0 6 5
11 10 11 6 0 10 -2 10 -4z m80 0 c0 -3 -4 -8 -10 -11 -5 -3 -10 -1 -10 4 0 6
5 11 10 11 6 0 10 -2 10 -4z m1380 -62 c0 -8 -19 -13 -24 -6 -3 5 1 9 9 9 8 0
15 -2 15 -3z m1017 -9 c0 -8 -4 -12 -9 -9 -4 3 -8 9 -8 15 0 5 4 9 8 9 5 0 9
-7 9 -15z m-1987 -65 c-14 -3 -26 -13 -28 -24 -2 -13 1 -16 10 -10 10 6 11 5
1 -8 -17 -20 -4 -31 16 -15 14 11 14 10 2 -5 -7 -10 -17 -15 -22 -12 -5 3 -9
-5 -9 -17 0 -12 -3 -19 -7 -16 -10 10 -10 111 0 118 5 3 20 3 35 0 l27 -5 -25
-6z m390 16 c0 -3 -4 -8 -10 -11 -5 -3 -10 -1 -10 4 0 6 5 11 10 11 6 0 10 -2
10 -4z m40 -6 c0 -5 -5 -10 -11 -10 -5 0 -7 5 -4 10 3 6 8 10 11 10 2 0 4 -4
4 -10z m80 6 c0 -3 -4 -8 -10 -11 -5 -3 -10 -1 -10 4 0 6 5 11 10 11 6 0 10
-2 10 -4z m60 -11 c0 -2 -9 -3 -19 -2 -11 0 -18 5 -15 9 4 6 34 0 34 -7z m745
5 c4 -6 1 -9 -6 -8 -7 2 -14 -9 -15 -24 -3 -27 -2 -28 52 -28 54 0 55 0 52
-27 -3 -27 -5 -28 -58 -28 l-55 0 -3 54 c-2 37 1 57 10 62 16 11 16 11 23 -1z
m35 6 c0 -3 -4 -8 -10 -11 -5 -3 -10 -1 -10 4 0 6 5 11 10 11 6 0 10 -2 10 -4z
m165 -31 c0 -27 -3 -29 -47 -31 -47 -3 -48 -2 -48 26 0 22 -4 28 -15 24 -8 -4
-15 -2 -15 3 0 4 28 8 63 7 61 0 62 -1 62 -29z m374 14 c-16 -10 -23 -4 -14
10 3 6 11 8 17 5 6 -4 5 -9 -3 -15z m-9 -91 c0 -6 -6 -5 -15 2 -8 7 -15 14
-15 16 0 2 7 1 15 -2 8 -4 15 -11 15 -16z m-2923 -78 l126 0 -6 33 -5 32 82 0
81 -1 0 -59 0 -60 -200 -1 c-110 0 -205 1 -211 3 -5 2 -9 27 -8 56 2 68 6 81
11 35 l4 -38 126 0z m-63 60 c3 -3 -5 -6 -19 -5 -13 0 -26 2 -29 5 -3 3 5 6
19 5 13 0 26 -2 29 -5z m161 -1 c-5 -7 -132 -5 -139 2 -3 3 28 5 68 4 41 0 72
-3 71 -6z m2479 3 c3 -5 -1 -9 -9 -9 -8 0 -15 4 -15 9 0 4 4 8 9 8 6 0 12 -4
15 -8z m101 -1 c-9 -8 -36 -10 -30 -2 2 4 11 8 20 8 8 0 13 -3 10 -6z m-2888
-131 c-3 -11 -2 -20 1 -20 4 0 7 -18 7 -40 1 -37 -5 -45 -29 -41 -12 2 -36
-20 -35 -33 3 -27 -3 -34 -29 -33 -24 1 -28 6 -27 32 1 26 4 29 30 29 30 -1
30 -1 30 55 0 51 2 57 25 62 14 4 27 7 29 8 2 0 1 -8 -2 -19z m2328 -50 c18 0
24 -6 27 -27 2 -23 8 -28 31 -28 15 1 27 -3 27 -7 0 -4 -10 -8 -23 -8 -25 0
-34 -29 -13 -42 7 -5 7 -8 -2 -8 -7 0 -10 -5 -7 -10 4 -6 11 -7 17 -4 7 4 8 2
4 -5 -4 -6 -12 -9 -17 -5 -5 3 -9 2 -8 -3 3 -19 -1 -36 -8 -29 -4 4 -6 33 -5
65 2 57 1 58 -24 55 -35 -3 -37 -6 -38 -66 l-1 -53 -53 -1 c-29 0 -55 -4 -58
-7 -4 -3 -6 -39 -6 -79 0 -40 -3 -66 -7 -58 -3 8 -12 16 -18 18 -13 2 -15 -8
-16 -80 l0 -36 -99 0 c-96 1 -98 1 -99 24 -4 63 0 94 9 94 5 0 7 -13 4 -30 -4
-29 -3 -30 31 -30 41 0 52 11 38 39 -9 15 -7 20 9 24 13 3 18 1 13 -5 -3 -6
-1 -8 4 -5 6 4 11 32 12 63 1 67 4 72 35 69 24 -3 25 -1 25 52 -1 36 4 58 12
64 7 4 16 5 19 2 3 -3 -1 -8 -7 -10 -7 -3 -13 -16 -13 -29 0 -23 3 -25 37 -22
45 4 58 33 21 47 -26 11 -20 12 57 14 l55 0 2 66 c1 42 3 52 5 29 4 -32 8 -38
28 -38z m9 62 c3 -5 -1 -9 -9 -9 -8 0 -12 4 -9 9 3 4 7 8 9 8 2 0 6 -4 9 -8z
m-864 -77 c7 -8 11 -15 9 -16 -31 -6 -41 -5 -56 8 -10 8 -13 12 -6 9 6 -4 14
-2 18 4 9 14 20 12 35 -5z m-1472 -226 c20 0 51 -2 69 -4 30 -4 34 1 24 33 -1
1 -1 5 0 8 0 4 -5 11 -13 16 -9 7 -4 8 15 5 15 -2 30 0 33 5 3 4 11 5 17 1 17
-11 40 -10 56 2 12 8 13 7 6 -4 -6 -11 -4 -13 11 -7 29 12 383 13 387 1 2 -5
3 -32 3 -60 l-1 -50 -230 -1 c-180 -1 -232 2 -243 12 -9 9 -9 14 -2 14 6 0 9
4 5 9 -3 6 -15 8 -27 6 -27 -6 -36 -15 -14 -15 9 0 15 -4 11 -9 -3 -5 3 -11
12 -13 10 -3 -22 -4 -72 -2 -49 1 -93 2 -96 3 -5 1 -4 111 2 121 1 3 4 -12 6
-32 4 -36 6 -38 41 -39z m2 61 c0 -5 -5 -10 -11 -10 -5 0 -7 5 -4 10 3 6 8 10
11 10 2 0 4 -4 4 -10z m54 2 c3 -5 -1 -9 -9 -9 -8 0 -12 4 -9 9 3 4 7 8 9 8 2
0 6 -4 9 -8z m2736 -4 c0 -4 -17 -8 -37 -9 -21 0 -32 -3 -24 -6 11 -5 11 -7 0
-15 -11 -8 -11 -11 -1 -15 10 -4 10 -8 1 -20 -10 -12 -10 -16 2 -24 12 -7 12
-9 -1 -9 -11 0 -12 -2 -2 -8 7 -5 32 -7 57 -6 27 1 43 -1 39 -7 -3 -5 -39 -9
-79 -7 -41 1 -77 -1 -80 -4 -8 -8 -9 -83 -1 -96 3 -6 15 -8 26 -5 11 3 20 0
20 -6 0 -6 -10 -11 -23 -11 -22 0 -24 -4 -22 -52 1 -29 -4 -56 -9 -60 -6 -4
-35 -8 -64 -8 -45 0 -52 -3 -50 -17 2 -10 7 -21 12 -24 5 -4 5 -13 0 -20 -12
-19 -12 -33 1 -41 17 -13 28 -9 16 6 -9 11 -9 16 0 22 8 4 9 3 5 -5 -4 -6 0
-14 8 -17 30 -12 4 -24 -51 -24 -51 0 -54 -1 -42 -17 8 -9 9 -14 3 -10 -15 9
-14 -45 1 -55 6 -5 4 -8 -5 -8 -13 0 -13 -1 0 -10 20 -13 33 -12 24 2 -4 7 -3
8 4 4 7 -4 12 -33 12 -70 0 -59 -1 -63 -23 -63 -20 0 -22 4 -20 39 1 28 -1 36
-10 31 -9 -5 -9 -3 0 9 16 18 7 28 -24 28 -13 0 -23 4 -23 9 0 5 9 7 20 4 18
-5 20 0 20 55 0 59 1 61 28 64 25 3 27 6 30 59 3 49 0 57 -16 61 -33 9 -45 -7
-46 -64 l-1 -53 -54 -1 c-55 -2 -72 -13 -64 -44 4 -15 -1 -18 -26 -16 -26 2
-31 -1 -31 -21 0 -13 0 -26 0 -30 0 -5 22 -8 50 -9 27 0 53 -4 57 -8 5 -4 4
-7 -2 -6 -5 1 -30 2 -54 1 l-44 -1 24 -27 c21 -24 21 -25 2 -9 l-22 19 4 -41
c2 -23 0 -44 -5 -47 -6 -4 -10 18 -10 54 l0 61 -30 0 c-27 0 -30 3 -30 30 0
29 -10 36 -47 31 -8 -1 -13 11 -13 31 l0 33 -72 -2 c-40 -1 -81 -2 -90 -2 -13
-1 -18 -9 -18 -29 0 -23 -4 -27 -30 -28 -33 -2 -31 -10 -32 129 0 41 14 67 26
48 4 -6 2 -11 -3 -11 -6 0 -11 -11 -11 -25 l0 -25 125 0 125 0 0 25 c0 23 -10
30 -35 25 -5 -1 -7 2 -2 6 4 4 22 8 40 8 l32 1 2 109 c1 60 4 114 6 120 4 9
61 12 110 7 4 -1 7 -14 7 -30 0 -23 -4 -28 -22 -28 -42 -1 -46 -3 -41 -22 7
-27 -14 -62 -33 -54 -11 4 -15 0 -12 -13 2 -11 7 -22 12 -26 6 -4 6 -12 0 -20
-15 -20 -11 -41 9 -44 14 -2 16 1 7 11 -8 10 -8 15 1 21 7 4 9 3 6 -3 -11 -17
18 -34 54 -32 70 2 112 11 98 20 -8 5 -9 9 -3 9 5 0 10 18 11 40 1 29 -3 40
-14 40 -8 0 -12 3 -10 8 3 4 44 6 91 5 l86 -1 0 59 c0 32 3 59 8 60 4 0 30 1
57 2 l50 2 3 57 c3 50 6 57 25 60 38 5 57 4 57 -4z m30 2 c0 -5 -5 -10 -11
-10 -5 0 -7 5 -4 10 3 6 8 10 11 10 2 0 4 -4 4 -10z m-40 -43 c0 -2 -10 -12
-22 -23 l-23 -19 19 23 c18 21 26 27 26 19z m-2053 -105 c-2 -25 -24 -36 -53
-25 -17 6 -13 46 6 54 28 11 49 -2 47 -29z m1263 22 c0 -2 -7 -4 -15 -4 -8 0
-15 4 -15 10 0 5 7 7 15 4 8 -4 15 -8 15 -10z m1615 7 c-9 -8 -36 -10 -30 -2
2 4 11 8 20 8 8 0 13 -3 10 -6z m-2792 -8 c-7 -2 -13 -15 -13 -28 0 -22 5 -24
53 -27 50 -3 52 -4 51 -31 0 -27 2 -28 40 -27 60 3 61 2 36 -20 -19 -17 -20
-20 -6 -20 10 0 14 -5 10 -11 -3 -6 -14 -9 -23 -6 -10 2 -18 -1 -18 -7 0 -7
10 -12 21 -12 15 1 20 -4 18 -16 -2 -10 2 -18 8 -18 5 0 9 6 7 13 -1 6 6 11
16 11 15 -2 16 1 5 13 -10 12 -9 14 3 13 7 -1 30 -2 49 -1 30 1 36 5 38 26 2
24 -6 29 -38 26 -12 -2 -13 0 -1 8 7 5 21 7 30 6 9 -2 23 -4 32 -4 13 -1 16
-12 14 -61 l-1 -60 53 1 c29 1 57 -1 61 -5 4 -4 7 -31 7 -60 0 -50 -1 -52 -27
-54 -26 -2 -33 6 -29 32 3 17 -20 33 -43 29 -21 -4 -23 -2 -19 20 3 14 -1 28
-8 32 -6 5 -52 8 -100 7 -145 -1 -135 1 -135 -29 l1 -28 -89 0 c-87 0 -89 1
-91 23 -2 30 7 34 102 35 l78 2 0 54 c1 61 -10 70 -79 64 l-41 -4 0 61 c-1 54
1 60 20 59 11 0 14 -3 8 -6z m2007 -33 c0 -5 -5 -10 -11 -10 -5 0 -7 5 -4 10
3 6 8 10 11 10 2 0 4 -4 4 -10z m-653 -67 c-3 -10 -5 -4 -5 12 0 17 2 24 5 18
2 -7 2 -21 0 -30z m-1123 -11 c3 -5 -1 -9 -9 -9 -8 0 -12 4 -9 9 3 4 7 8 9 8
2 0 6 -4 9 -8z m1657 -59 c13 -16 12 -17 -3 -4 -10 7 -18 15 -18 17 0 8 8 3
21 -13z m-1701 -13 c0 -5 -2 -10 -4 -10 -3 0 -8 5 -11 10 -3 6 -1 10 4 10 6 0
11 -4 11 -10z m1704 -28 c3 -5 -1 -9 -9 -9 -8 0 -12 4 -9 9 3 4 7 8 9 8 2 0 6
-4 9 -8z m-2661 -21 c24 -1 27 -4 24 -28 -3 -21 -10 -28 -26 -29 -27 -2 -36
-10 -36 -36 0 -13 -7 -22 -18 -24 -37 -5 -45 -13 -43 -38 3 -21 -1 -26 -19
-26 -18 0 -22 5 -20 25 2 14 0 25 -3 26 -55 8 -62 6 -62 -22 0 -21 5 -28 23
-31 19 -3 22 -9 22 -48 1 -63 -3 -70 -37 -70 -17 0 -28 -5 -27 -12 5 -39 -1
-49 -28 -46 -27 3 -28 5 -28 61 0 47 3 57 17 58 10 1 23 2 30 3 13 1 20 98 9
113 -3 4 -31 8 -61 8 l-55 0 -1 54 c0 42 4 54 17 60 15 5 155 6 322 2z m1991
1 c2 -4 -5 -9 -17 -9 -17 -2 -19 0 -7 7 18 12 18 12 24 2z m106 -7 c0 -2 -9
-3 -19 -2 -11 0 -18 5 -15 9 4 6 34 0 34 -7z m-1700 -142 c0 -25 5 -32 23 -35
16 -2 22 -10 22 -28 0 -21 5 -25 30 -25 24 0 30 4 31 23 1 22 -11 36 -31 37
-5 0 -9 11 -8 23 3 20 -7 27 -32 22 -5 -1 -6 2 -2 6 4 4 36 8 70 9 l63 0 -3
-65 c-2 -36 -4 -91 -6 -122 -2 -55 -3 -58 -28 -58 -24 0 -25 -3 -24 -50 2 -59
-2 -67 -35 -71 -19 -3 -25 -10 -25 -29 0 -24 -3 -25 -62 -27 l-61 -2 5 30 c4
29 3 30 -29 27 -28 -2 -33 -7 -33 -28 0 -20 -6 -26 -27 -28 -18 -2 -28 1 -29
10 0 7 -2 21 -4 31 -3 13 4 17 30 17 l33 0 -2 59 -3 60 31 3 31 3 1 80 c0 87
-7 106 -36 98 -14 -4 -20 0 -21 11 -1 9 -2 22 -3 29 -1 13 37 22 96 22 36 0
38 -2 38 -32z m2510 -2 c0 -22 -5 -26 -30 -27 -26 -2 -30 2 -30 26 0 34 5 38
35 32 19 -3 25 -11 25 -31z m-2748 0 c-3 -25 0 -30 19 -33 18 -2 24 -9 24 -28
0 -20 -5 -25 -27 -27 -16 -1 -29 3 -29 10 -6 58 -3 107 6 107 7 0 10 -12 7
-29z m2328 -36 c0 -2 -6 -5 -13 -8 -8 -3 -14 1 -14 8 0 7 6 11 14 8 7 -3 13
-6 13 -8z m47 -29 c0 -7 -5 -13 -12 -13 -6 0 -11 8 -11 18 0 9 5 15 11 12 7
-2 12 -10 12 -17z m1353 -28 c0 -4 -14 -8 -32 -10 -30 -3 -32 -6 -33 -41 0
-20 3 -37 6 -37 3 0 6 -6 6 -13 0 -8 -6 -14 -14 -14 -16 0 -19 113 -3 119 18
6 70 3 70 -4z m50 1 c0 -4 -9 -7 -19 -6 -11 0 -18 4 -16 7 6 9 35 8 35 -1z
m-3270 -8 c-21 -6 -25 -13 -26 -48 -1 -22 -5 -49 -9 -59 -4 -11 -8 -43 -9 -71
-1 -47 1 -53 19 -54 11 0 14 -3 8 -6 -7 -2 -13 -16 -13 -29 l0 -24 125 0 125
0 0 25 c0 17 -6 26 -17 27 -10 0 2 4 27 7 82 11 87 7 86 -59 l0 -59 -90 1 -90
2 -1 -60 0 -59 -35 -5 -35 -5 0 -56 0 -55 -52 -2 c-54 -1 -57 2 -56 46 1 6 -9
12 -21 12 -11 0 -26 4 -31 8 -14 10 -13 172 1 172 6 0 9 -13 6 -31 -4 -29 -3
-30 28 -27 25 2 34 8 36 26 3 13 -1 22 -10 22 -9 0 -12 15 -11 58 1 31 -2 63
-8 69 -5 7 -7 27 -4 45 2 18 1 43 -4 55 -5 14 -4 23 5 26 9 4 13 24 12 61 l-1
56 35 -1 c31 -1 32 -2 10 -8z m3380 0 c0 -6 -5 -13 -12 -17 -6 -4 -8 -3 -4 4
4 7 -7 11 -34 10 -23 0 -44 2 -47 6 -4 3 17 6 45 6 29 0 52 -4 52 -9z m-73
-36 c0 -8 -4 -12 -9 -9 -5 3 -6 10 -3 15 9 13 12 11 12 -6z m-124 -10 c-3 -9
-8 -14 -10 -11 -3 3 -2 9 2 15 9 16 15 13 8 -4z m183 -11 c1 -9 0 -13 -4 -10
-3 4 -7 14 -8 22 -1 9 0 13 4 10 3 -4 7 -14 8 -22z m-1725 -7 c-10 -9 -11 -8
-5 6 3 10 9 15 12 12 3 -3 0 -11 -7 -18z m111 -11 c-4 -6 -7 -14 -7 -18 0 -19
-11 -14 -11 6 0 12 6 23 13 23 6 0 9 -5 5 -11z m-1741 -13 c13 -16 12 -17 -3
-4 -17 13 -22 21 -14 21 2 0 10 -8 17 -17z m1629 1 c0 -8 -19 -13 -24 -6 -3 5
1 9 9 9 8 0 15 -2 15 -3z m-2208 -54 c-3 -24 0 -29 19 -32 18 -2 24 -9 24 -28
0 -23 -4 -25 -44 -26 -24 -1 -57 -5 -75 -8 -20 -4 -26 -3 -17 3 24 15 24 52 1
58 -14 4 -20 14 -20 32 0 15 2 30 4 32 2 2 29 3 58 1 53 -4 54 -4 50 -32z
m2138 28 c0 -10 -19 -12 -67 -10 -81 3 -100 -2 -84 -22 9 -11 9 -16 0 -21 -8
-6 -7 -10 2 -16 11 -7 11 -9 1 -9 -9 0 -10 -5 -3 -18 8 -14 6 -19 -5 -19 -15
0 -16 4 -16 62 0 19 1 39 1 45 1 5 38 11 84 13 45 1 83 4 85 5 1 1 2 -4 2 -10z
m895 2 c3 -5 -1 -10 -10 -10 -9 0 -13 5 -10 10 3 6 8 10 10 10 2 0 7 -4 10
-10z m855 -1 c0 -5 -9 -9 -21 -9 -11 0 -18 -4 -15 -9 4 -5 0 -12 -6 -15 -10
-5 -10 -7 0 -12 6 -3 12 -10 12 -15 0 -6 -4 -8 -8 -5 -4 3 -7 -8 -6 -25 1 -16
-2 -29 -7 -29 -5 0 -9 28 -9 63 l0 62 30 1 c17 1 30 -2 30 -7z m-4565 -16 c-2
-10 -4 -24 -4 -30 -1 -9 -32 -12 -118 -10 -110 2 -118 3 -119 22 0 11 1 23 3
28 2 4 58 7 123 7 107 0 118 -2 115 -17z m457 10 c-20 -4 -23 -10 -22 -46 3
-59 1 -71 -7 -63 -5 4 -8 32 -8 62 0 54 0 54 30 53 24 -1 26 -3 7 -6z m323
-20 c-1 -20 -7 -29 -22 -31 -18 -3 -21 1 -17 22 3 21 0 25 -23 29 -18 3 -12 5
18 6 44 1 46 0 44 -26z m377 -33 c-5 -74 -19 -72 -16 2 2 61 2 58 12 58 4 0 5
-27 4 -60z m2518 29 c0 -24 4 -29 25 -29 21 0 25 -5 25 -30 0 -27 3 -30 30
-30 l30 0 0 -61 c0 -51 -3 -60 -17 -58 -40 4 -43 0 -43 -61 l0 -60 30 0 31 0
-3 -57 -3 -58 -57 -3 -58 -3 0 34 c0 32 -2 33 -30 29 -28 -4 -30 -2 -30 26 0
26 -4 31 -27 34 -30 3 -37 23 -19 47 8 11 8 13 -1 8 -6 -4 -14 -1 -16 5 -3 7
-4 -4 -2 -24 l3 -38 -50 0 c-32 0 -47 4 -43 11 4 6 14 8 24 4 13 -5 13 -4 4 6
-10 10 -17 9 -33 -6 -20 -18 -20 -18 -20 44 0 53 3 62 18 60 9 -1 36 -1 60 0
l42 1 0 60 0 60 30 0 c30 0 30 0 30 59 l0 59 35 0 c32 0 35 -3 35 -29z m-924
-45 c1 -9 0 -13 -4 -10 -3 4 -7 14 -8 22 -1 9 0 13 4 10 3 -4 7 -14 8 -22z
m50 6 c0 -12 -4 -16 -9 -11 -5 5 -6 14 -3 20 10 15 12 14 12 -9z m-86 -14 c0
-2 -6 -9 -14 -15 -11 -9 -16 -9 -22 0 -4 7 -3 9 4 5 6 -3 13 -2 17 4 6 10 15
14 15 6z m1847 -2 c-3 -3 -12 -4 -19 -1 -8 3 -5 6 6 6 11 1 17 -2 13 -5z
m-4632 -34 c-3 -5 -13 -10 -21 -10 -8 0 -14 -10 -14 -25 0 -18 5 -25 18 -25
26 0 30 -6 24 -36 -4 -20 -10 -25 -31 -22 -25 3 -26 6 -26 58 0 50 2 56 25 61
14 4 26 7 28 8 2 0 0 -3 -3 -9z m635 -6 c0 -2 -7 -4 -15 -4 -8 0 -15 4 -15 10
0 5 7 7 15 4 8 -4 15 -8 15 -10z m720 0 c0 -2 -7 -4 -15 -4 -8 0 -15 4 -15 10
0 5 7 7 15 4 8 -4 15 -8 15 -10z m120 0 c0 -2 -7 -4 -15 -4 -8 0 -15 4 -15 10
0 5 7 7 15 4 8 -4 15 -8 15 -10z m-1285 -24 c0 -21 -5 -25 -29 -25 -21 0 -30
5 -32 19 -4 29 5 38 34 34 21 -2 27 -8 27 -28z m388 23 c-7 -2 -13 -16 -13
-29 0 -22 4 -24 49 -24 50 0 62 -9 53 -42 -3 -14 -14 -17 -61 -15 l-56 2 0 58
c0 51 2 57 20 56 11 0 14 -3 8 -6z m840 0 c-7 -2 -19 -2 -25 0 -7 3 -2 5 12 5
14 0 19 -2 13 -5z m1009 -23 c-4 -26 -1 -30 20 -30 25 0 25 -1 24 -89 l-1 -90
-75 1 c-42 0 -86 -2 -98 -6 -14 -5 -22 -3 -22 4 0 6 4 9 9 5 5 -3 9 9 9 27 -1
85 0 88 30 87 23 -2 24 -2 5 -6 -16 -3 -23 -11 -23 -29 0 -23 3 -24 58 -24 32
0 63 -5 68 -10 7 -7 10 -4 8 12 -1 13 -3 30 -3 39 -1 13 -9 16 -36 12 -19 -3
-35 -1 -35 4 0 5 10 9 23 9 19 -1 22 4 23 39 3 69 4 75 12 75 5 0 7 -13 4 -30z
m45 24 c-3 -3 -12 -4 -19 -1 -8 3 -5 6 6 6 11 1 17 -2 13 -5z m571 -1 c-11 -3
-18 -14 -18 -29 0 -19 5 -24 25 -24 21 0 25 -5 25 -30 0 -29 1 -30 53 -31 28
-1 44 -3 35 -6 -11 -3 -18 -14 -18 -29 0 -19 5 -24 25 -24 21 0 25 -5 25 -31
0 -25 -4 -30 -22 -29 -13 1 -27 2 -33 1 -9 -1 -12 -228 -2 -237 2 -2 14 -5 28
-7 20 -3 24 -10 25 -38 0 -19 -4 -40 -10 -48 -8 -11 -8 -13 2 -7 7 4 12 1 12
-8 0 -11 -9 -16 -30 -16 l-30 0 0 60 0 60 -61 0 c-56 0 -60 1 -48 17 10 11 10
14 2 9 -9 -5 -13 0 -13 13 0 12 6 21 13 21 9 0 9 2 -1 9 -8 4 -12 17 -10 27 2
16 -4 19 -38 20 l-42 1 2 -51 c1 -28 4 -55 7 -61 4 -5 7 -22 7 -38 l0 -27 -79
3 c-43 2 -76 -1 -73 -5 3 -5 9 -6 14 -3 13 8 19 -22 7 -35 -9 -10 -9 -11 1 -6
8 5 12 0 12 -14 0 -14 -4 -19 -12 -14 -10 6 -10 4 -3 -7 6 -8 10 -45 10 -84
l0 -70 -57 -3 -58 -3 0 30 c0 25 4 30 28 33 l27 3 2 90 c2 152 1 146 21 144
37 -3 43 1 42 29 -1 15 -2 42 -1 60 1 28 4 32 30 32 29 0 29 0 28 58 l0 57 49
1 c45 1 46 1 7 -3 -38 -4 -43 -7 -43 -29 0 -20 5 -24 33 -25 17 0 51 -1 74 -3
28 -1 39 2 33 8 -14 14 -12 36 3 33 6 -2 2 1 -10 7 -24 10 -24 11 -24 151 0
108 -1 105 24 104 16 -1 18 -2 5 -6z m-2974 -174 c-2 -56 -1 -60 19 -59 57 5
64 1 59 -30 -4 -29 -3 -30 31 -30 31 0 35 3 32 22 -3 12 -10 25 -17 30 -12 7
60 9 407 9 294 0 277 1 266 -19 -15 -28 0 -40 54 -44 47 -3 50 -5 49 -30 l0
-28 90 -1 c50 -1 81 -4 69 -6 -16 -3 -23 -11 -23 -28 0 -17 6 -25 23 -27 16
-2 22 -10 22 -30 1 -25 -3 -28 -31 -28 -29 0 -31 2 -29 30 l3 30 -59 0 c-58 0
-64 4 -60 37 3 20 -17 24 -107 24 -147 0 -138 2 -138 -28 1 -25 -3 -28 -29
-28 -26 0 -30 3 -29 28 1 15 -4 27 -10 28 -6 0 -141 1 -301 2 l-290 2 0 52
c-1 58 -5 65 -37 67 -20 1 -23 6 -24 51 -1 66 2 72 34 67 28 -4 28 -5 26 -63z
m4676 61 c0 -5 -5 -10 -11 -10 -5 0 -7 5 -4 10 3 6 8 10 11 10 2 0 4 -4 4 -10z
m-5798 -17 c-16 -30 -3 -43 41 -43 23 0 38 4 32 8 -5 4 -11 16 -13 28 -2 18 3
21 48 23 50 2 50 2 50 -29 0 -29 -2 -31 -30 -26 -28 4 -30 2 -30 -30 0 -31 -3
-34 -30 -34 -27 0 -30 -3 -30 -31 0 -27 -3 -30 -27 -27 l-28 3 -1 88 c-1 67 2
87 13 87 10 0 11 -5 5 -17z m45 11 c-3 -3 -12 -4 -19 -1 -8 3 -5 6 6 6 11 1
17 -2 13 -5z m2158 -24 l0 -25 -207 -2 c-115 -1 -208 1 -209 5 0 4 -2 17 -3
30 l-3 22 211 -2 211 -3 0 -25z m3538 23 c-31 -4 -39 -13 -33 -38 8 -35 5 -72
-7 -72 -9 0 -13 17 -13 59 l0 58 43 -2 c36 -1 38 -2 10 -5z m11 -74 c-3 -5
-11 -9 -17 -8 -8 0 -8 2 1 6 10 4 10 8 0 21 -12 15 -11 16 4 3 10 -7 15 -17
12 -22z m-4771 -101 c15 -2 22 -10 21 -28 0 -21 -4 -25 -29 -25 -28 0 -29 2
-31 50 -1 61 10 95 14 43 2 -29 8 -37 25 -40z m1010 55 c-7 -2 -19 -2 -25 0
-7 3 -2 5 12 5 14 0 19 -2 13 -5z m1318 -2 c-9 -6 -12 -24 -10 -60 2 -28 1
-51 -3 -51 -8 0 -10 10 -10 60 0 55 2 60 20 60 13 0 14 -2 3 -9z m39 -36 c0
-14 -4 -25 -8 -25 -4 0 -8 11 -8 25 0 14 4 25 8 25 4 0 8 -11 8 -25z m0 -49
c0 -8 -4 -17 -9 -21 -6 -3 -9 4 -8 15 1 23 17 28 17 6z m-3026 -33 c-29 -4
-31 -6 -25 -31 7 -24 11 -26 49 -24 52 4 61 -1 54 -33 -4 -23 -8 -25 -64 -25
l-60 0 4 -30 c4 -28 2 -30 -27 -30 -28 0 -31 3 -31 30 0 26 3 30 28 30 30 0
32 5 30 83 -1 37 -1 37 36 35 35 -1 36 -1 6 -5z m69 0 c-7 -2 -19 -2 -25 0 -7
3 -2 5 12 5 14 0 19 -2 13 -5z m190 -35 c-1 -24 -2 -51 -2 -61 -1 -14 -8 -18
-28 -15 -26 3 -28 6 -29 53 -1 62 1 65 34 65 26 0 27 -3 25 -42z m241 20 c-1
-13 -3 -26 -3 -30 -1 -5 -13 -8 -28 -8 -24 0 -28 4 -30 30 -2 28 0 30 31 30
28 0 32 -3 30 -22z m4729 15 c-13 -2 -23 -12 -24 -21 0 -9 -2 -27 -3 -39 -2
-14 2 -20 8 -16 6 4 5 0 -1 -9 -7 -8 -10 -18 -6 -21 3 -4 1 -7 -5 -7 -8 0 -12
21 -12 60 l0 60 33 -1 c23 -1 26 -3 10 -6z m12 -33 c3 -6 -1 -7 -9 -4 -18 7
-21 14 -7 14 6 0 13 -4 16 -10z m-4 -37 c13 -16 12 -17 -3 -4 -10 7 -18 15
-18 17 0 8 8 3 21 -13z m-351 -51 c0 -5 -10 -8 -22 -8 -20 1 -23 -4 -23 -48
l0 -49 50 -5 c67 -5 71 -12 6 -12 -32 0 -50 -4 -46 -10 3 -5 1 -10 -4 -10 -19
0 -12 -16 12 -29 22 -11 22 -11 -3 -5 -22 6 -23 5 -12 -9 9 -10 10 -17 2 -22
-17 -10 -2 -24 20 -18 11 3 20 0 20 -6 0 -6 -9 -11 -21 -11 -11 0 -18 -4 -15
-9 4 -5 0 -12 -6 -14 -10 -4 -10 -7 -1 -14 7 -5 9 -14 3 -22 -4 -8 -6 -20 -3
-27 2 -6 0 -15 -6 -19 -8 -4 -11 49 -11 174 l0 181 30 0 c17 0 30 -4 30 -8z
m-1947 -119 c-33 -6 -33 -53 0 -53 19 0 23 -5 23 -30 0 -26 -3 -30 -28 -30
-18 0 -28 -6 -29 -15 -1 -8 -2 -21 -3 -27 -1 -8 -20 -14 -51 -16 -67 -3 -73
-6 -68 -36 4 -21 11 -26 37 -26 17 0 26 -4 20 -8 -6 -4 -10 -31 -10 -59 l2
-53 -53 0 c-53 0 -58 3 -54 43 2 13 -5 17 -28 17 -31 0 -41 13 -33 43 3 11 14
17 32 17 28 0 29 1 28 56 -2 59 9 75 43 67 17 -5 19 0 16 51 -2 31 -1 58 1 61
3 3 44 4 91 4 47 -1 76 -4 64 -6z m1249 -2 c-10 -6 -12 -24 -10 -60 3 -28 1
-51 -4 -51 -4 0 -8 27 -8 60 0 51 3 60 18 60 13 0 14 -2 4 -9z m68 -1 c-8 -5
-15 -15 -16 -22 -1 -21 16 -48 29 -48 8 0 7 4 -3 11 -11 8 -7 9 17 4 30 -6 53
7 34 20 -6 3 -8 12 -5 20 4 8 -3 15 -18 17 -13 3 7 5 45 6 l67 1 0 -61 c0 -54
-2 -60 -19 -55 -38 10 -47 -11 -42 -100 1 -19 7 -23 32 -23 20 0 28 -4 23 -11
-10 -17 -12 -92 -3 -105 5 -5 7 -35 6 -65 l-2 -54 35 -6 c19 -4 30 -7 25 -8
-8 -1 -13 -106 -5 -106 2 0 4 -10 5 -22 1 -13 -3 -23 -9 -23 -6 0 -4 -5 4 -10
13 -9 13 -11 0 -20 -10 -6 -11 -10 -2 -10 6 0 11 -3 11 -7 -1 -5 -1 -41 0 -80
l1 -73 30 0 30 0 0 -60 0 -60 -50 0 -50 0 1 38 c2 60 0 72 -15 72 -12 0 -14
-37 -9 -236 l4 -235 -123 1 c-198 3 -178 10 -178 -60 l0 -60 -30 0 c-26 0 -30
3 -30 29 0 22 -5 30 -24 33 -31 6 -44 -2 -41 -24 2 -10 -2 -15 -9 -12 -7 3
-19 -3 -27 -13 -12 -16 -12 -17 1 -6 26 20 37 1 39 -64 l2 -63 -31 0 c-27 0
-30 3 -30 30 0 27 -3 30 -30 30 -27 0 -30 -3 -30 -30 0 -27 -3 -30 -30 -30
-27 0 -30 -3 -30 -30 0 -27 -3 -30 -30 -30 -27 0 -30 -3 -30 -30 0 -27 -3 -30
-30 -30 -29 0 -30 -2 -31 -47 -1 -27 -1 -54 0 -60 1 -8 -10 -13 -29 -13 -29 0
-30 -2 -31 -42 -1 -24 -1 -51 0 -60 2 -15 -7 -18 -58 -18 -63 0 -67 4 -62 48
1 8 -16 12 -59 12 -61 0 -65 -3 -61 -42 2 -14 -5 -18 -28 -18 -33 0 -34 1 -32
72 l1 47 -38 3 c-36 3 -37 4 -38 43 -2 62 -3 65 -19 65 -11 0 -15 -13 -15 -54
0 -49 2 -55 23 -58 16 -2 23 -11 25 -30 3 -25 0 -28 -27 -28 -33 0 -33 -1 -33
85 0 19 1 49 1 65 l1 30 210 0 210 0 -1 98 c0 53 0 107 0 120 1 22 3 22 121
22 l120 0 0 60 0 60 60 0 60 0 0 60 0 60 120 0 120 0 0 60 c0 33 -4 60 -8 60
-5 0 -8 25 -7 55 2 48 0 55 -17 55 -18 0 -19 -6 -16 -55 2 -30 1 -55 -4 -55
-4 0 -8 81 -8 180 l0 180 120 0 120 0 0 59 c0 33 -4 62 -8 65 -5 3 -7 28 -6
55 1 44 -1 51 -18 51 -17 0 -19 -6 -16 -55 2 -30 0 -55 -4 -55 -4 0 -8 55 -8
123 l0 124 -30 -5 -30 -4 0 60 c0 52 -3 60 -21 65 -13 4 -18 10 -13 18 4 8 3
10 -5 5 -6 -4 -9 -12 -6 -17 4 -5 1 -9 -4 -9 -7 0 -11 24 -11 60 0 33 -3 60
-8 60 -4 0 -7 27 -7 60 0 60 0 60 30 60 23 0 26 -3 15 -10z m635 -30 c3 -5 1
-10 -4 -10 -6 0 -11 5 -11 10 0 6 2 10 4 10 3 0 8 -4 11 -10z m-1515 -80 c0
-5 -9 -10 -20 -10 -30 0 -28 -47 3 -52 16 -2 22 -10 23 -30 1 -24 -3 -28 -26
-28 -25 0 -28 4 -31 38 -6 59 0 80 24 85 12 2 23 5 25 6 1 0 2 -3 2 -9z
m-2455 -60 l-1 -55 -50 -3 -49 -3 0 53 c1 29 -4 56 -10 61 -5 4 17 6 50 5 l60
-3 0 -55z m120 33 c0 -24 -4 -28 -29 -28 -21 0 -30 5 -32 19 -4 28 3 36 35 36
23 0 27 -4 26 -27z m4025 -33 c0 -53 -2 -60 -20 -60 -21 0 -22 3 -22 68 1 23
-4 42 -9 42 -6 0 -7 -6 -3 -12 6 -10 5 -10 -7 -1 -8 6 -25 13 -39 16 -14 2 3
5 38 6 l62 1 0 -60z m-3485 -87 c-1 -24 -5 -28 -30 -28 -25 0 -29 4 -30 28 -2
24 1 27 30 27 29 0 32 -3 30 -27z m338 20 c-81 -4 -83 -5 -83 -28 0 -19 5 -25
23 -26 12 0 49 -1 82 -2 57 -2 60 -3 60 -27 0 -21 5 -26 32 -28 27 -3 32 0 28
17 -2 11 5 30 16 42 23 27 23 24 3 43 -14 15 -5 16 104 16 l120 0 -2 -57 -1
-58 60 -5 c56 -5 60 -7 60 -30 0 -24 -2 -25 -85 -28 -86 -3 -101 -10 -95 -44
3 -16 -1 -19 -28 -16 -28 3 -32 6 -30 31 l2 28 -62 -3 c-59 -3 -62 -4 -62 -28
0 -21 -5 -25 -30 -25 -26 0 -30 3 -29 28 0 26 -1 27 -58 27 -32 0 -59 5 -59
10 -1 6 -2 18 -3 28 0 11 -11 19 -31 22 -24 4 -30 10 -30 30 0 23 -4 25 -60
30 -57 5 -60 6 -61 33 l0 27 150 -2 c92 -1 119 -3 69 -5z m1985 0 c-37 -6 -41
-50 -5 -55 16 -2 23 -11 25 -30 3 -24 8 -28 33 -28 16 0 29 -5 29 -11 0 -5 -6
-7 -12 -3 -9 5 -9 2 1 -9 11 -14 11 -17 0 -17 -9 0 -10 -3 -4 -8 16 -10 17
-54 2 -45 -7 4 -6 0 2 -10 10 -12 29 -17 72 -17 l59 0 -1 -90 -1 -90 -29 0
c-26 0 -29 4 -29 30 0 32 -5 34 -84 32 -35 -1 -38 -5 -38 -37 0 -24 -3 -25
-47 -21 -36 3 -42 2 -31 -7 18 -14 24 -80 6 -70 -7 3 -6 1 1 -7 10 -11 10 -17
0 -29 -6 -8 -7 -12 -2 -9 7 4 11 -16 12 -58 l0 -64 -31 0 -31 0 3 -60 4 -60
-61 0 -61 0 0 30 c0 27 -3 30 -30 30 -27 0 -30 -3 -30 -30 0 -27 -3 -30 -30
-30 -28 0 -30 -2 -31 -42 -1 -24 -1 -51 0 -60 2 -16 -9 -18 -118 -18 -125 0
-126 0 -122 -42 2 -14 -5 -18 -28 -18 -30 0 -35 7 -32 43 2 13 -5 17 -27 17
-20 0 -31 6 -34 18 -9 34 2 42 64 42 l60 0 -3 33 c-1 17 -1 44 0 60 l1 27 90
0 89 0 -1 58 -2 57 152 3 152 3 0 179 0 180 60 0 60 0 0 60 0 60 -30 0 -30 0
0 60 0 60 33 -1 c30 -2 30 -2 5 -6z m-2225 -120 c-31 -6 -33 -53 -3 -53 22 0
21 3 25 -62 1 -27 -2 -48 -8 -48 -5 0 -7 9 -4 20 4 15 0 20 -14 20 -16 0 -19
-8 -19 -56 0 -30 -4 -53 -8 -50 -4 2 -7 42 -7 88 l1 83 -30 5 c-24 4 -30 10
-31 33 -2 27 -1 27 59 26 34 -1 51 -4 39 -6z m3627 -2 c0 -5 -8 -7 -19 -4 -11
3 -21 -2 -24 -11 -4 -9 -1 -16 5 -16 9 0 9 -3 0 -12 -9 -9 -7 -14 6 -25 16
-12 16 -13 0 -7 -13 4 -16 1 -13 -15 2 -12 0 -21 -6 -21 -5 0 -9 27 -9 60 l0
60 30 0 c17 0 30 -4 30 -9z m-1922 -176 c0 -35 -2 -64 -6 -64 -4 1 -42 1 -84
0 -76 -1 -78 -2 -78 -26 0 -27 -2 -27 105 -27 l61 0 1 -59 1 -59 -62 0 -63 0
5 30 4 30 -61 0 c-67 0 -64 4 -63 -77 l1 -43 -89 0 c-86 0 -90 -1 -91 -22 -1
-13 -1 -26 0 -30 0 -5 -26 -8 -59 -8 -61 0 -65 3 -61 43 2 14 -7 17 -58 17
-34 0 -61 5 -62 10 0 6 -1 24 -1 40 0 76 -11 70 122 70 l120 0 -1 48 c-1 26
-1 53 0 60 1 9 44 12 182 12 l181 0 -2 33 c-5 79 -2 87 28 87 28 0 29 -1 30
-65z m1724 58 c-16 -3 -22 -10 -18 -19 3 -9 1 -12 -4 -9 -6 3 -10 1 -10 -4 0
-6 5 -11 10 -11 6 0 10 -5 10 -11 0 -5 -4 -8 -9 -5 -4 3 -7 -6 -5 -19 1 -14
-2 -27 -7 -31 -5 -3 -9 21 -9 55 l0 61 33 -1 c24 -1 26 -3 9 -6z m-3406 -80
c-1 -22 4 -29 24 -33 25 -5 25 -5 25 -123 l0 -117 -25 0 -26 0 1 116 c0 63 -3
118 -7 120 -11 7 -10 64 0 64 4 0 8 -12 8 -27z m336 -280 c-18 -4 -23 -10 -20
-31 2 -19 9 -27 23 -27 19 0 20 -7 21 -117 l0 -118 -28 0 c-27 0 -32 8 -31 48
1 7 -12 12 -31 12 l-31 0 0 58 c1 55 1 57 30 62 29 5 30 7 29 55 -1 62 1 65
34 64 25 -2 25 -2 4 -6z m-397 -173 l1 -60 -32 0 c-27 0 -31 -3 -29 -27 1 -24
-3 -29 -29 -33 -25 -4 -31 -10 -31 -30 0 -23 -4 -25 -60 -30 l-60 -5 0 -57 c0
-58 0 -58 30 -58 l31 0 -1 -60 c0 -33 -3 -60 -7 -60 -5 0 -8 25 -8 55 0 42 -3
55 -15 55 -12 0 -15 -13 -15 -55 0 -34 -4 -55 -11 -55 -6 0 -9 -7 -6 -15 4 -8
1 -17 -5 -21 -7 -4 -6 -9 3 -15 9 -6 10 -9 2 -9 -26 0 -41 12 -36 31 5 16 0
19 -31 19 -35 0 -37 -2 -34 -27 3 -24 8 -28 38 -29 63 -1 67 -3 65 -26 -2 -21
3 -23 58 -28 39 -3 62 -10 65 -19 3 -9 0 -11 -9 -5 -11 6 -10 3 1 -11 14 -17
13 -18 -4 -12 -16 6 -17 5 -7 -7 7 -8 9 -21 5 -27 -4 -8 -3 -9 4 -5 14 8 15 4
6 -18 -5 -12 -20 -16 -63 -16 l-56 0 0 58 0 57 -60 5 -60 5 0 55 c0 54 0 55
-31 58 -29 3 -31 1 -29 -28 l2 -31 -61 3 c-58 3 -60 4 -61 31 -2 24 2 27 29
27 l32 0 -1 58 c0 56 1 57 30 62 30 5 30 6 30 67 -1 34 2 60 6 57 4 -2 13 4
19 13 9 15 11 15 6 2 -4 -14 3 -17 42 -15 l47 1 0 55 c0 30 4 58 9 61 5 4 32
5 61 2 52 -5 52 -5 50 22 -2 16 2 28 11 32 17 6 19 49 2 56 -7 3 28 6 77 6
l90 1 0 -60z m-314 3 c-12 -20 -14 -14 -5 12 4 9 9 14 11 11 3 -2 0 -13 -6
-23z m38 -7 c8 -10 9 -16 1 -21 -6 -4 -9 -1 -8 7 2 7 -3 12 -10 10 -8 -1 -11
2 -7 8 8 13 10 13 24 -4z m-31 -41 c-3 -3 -9 2 -12 12 -6 14 -5 15 5 6 7 -7
10 -15 7 -18z m464 -22 c-18 -4 -23 -10 -20 -31 2 -19 9 -27 23 -27 15 0 20
-7 20 -30 0 -24 -5 -31 -23 -33 -19 -3 -23 -9 -20 -30 2 -20 8 -27 24 -26 18
1 21 -4 20 -28 -1 -26 -4 -29 -31 -26 l-30 3 -1 110 c0 61 1 113 3 118 2 4 16
6 31 6 25 -2 25 -2 4 -6z m3247 0 c-20 -3 -26 -10 -26 -29 0 -22 12 -30 40
-25 4 0 7 -12 7 -29 0 -27 -3 -30 -30 -30 l-30 0 0 60 0 60 33 -1 c28 -2 29
-3 6 -6z m-3869 -49 c0 -8 -19 -13 -24 -6 -3 5 1 9 9 9 8 0 15 -2 15 -3z m33
-39 c-3 -9 -8 -14 -10 -11 -3 3 -2 9 2 15 9 16 15 13 8 -4z m-181 -79 c7 4 8
2 4 -5 -9 -13 -26 -5 -25 12 0 9 2 8 6 -1 2 -6 10 -9 15 -6z m19 -19 c-10 -9
-11 -8 -5 6 3 10 9 15 12 12 3 -3 0 -11 -7 -18z m49 15 c0 -5 -7 -9 -15 -9 -8
0 -12 4 -9 9 3 4 9 8 15 8 5 0 9 -4 9 -8z m31 -25 c-10 -9 -11 -8 -5 6 3 10 9
15 12 12 3 -3 0 -11 -7 -18z m-258 -44 c-50 -4 -53 -6 -53 -31 0 -27 2 -28 52
-27 49 0 53 -2 53 -25 0 -23 4 -25 60 -30 l60 -5 0 -55 0 -55 -91 -3 c-82 -2
-91 -1 -91 15 0 38 -4 43 -32 43 -26 0 -29 3 -25 24 2 14 0 28 -6 31 -5 3 -10
31 -10 61 0 40 -4 54 -15 54 -10 0 -15 -15 -17 -57 -3 -55 -5 -58 -30 -61 -25
-3 -27 -7 -30 -60 -3 -55 -4 -57 -32 -60 -22 -3 -26 -6 -15 -13 10 -6 10 -9 2
-9 -9 0 -13 -16 -13 -45 0 -25 -4 -45 -8 -45 -5 0 -8 26 -8 57 1 56 2 58 31
63 29 5 30 6 29 63 l0 57 31 0 31 0 -1 60 -1 60 91 -2 c59 -1 72 -3 38 -5z
m893 -26 c1 -23 -3 -27 -20 -25 -15 2 -21 10 -20 26 1 19 -4 22 -32 22 -29 0
-34 -3 -34 -24 0 -23 23 -41 40 -31 4 3 7 -9 6 -26 -1 -27 -4 -30 -31 -27 -29
3 -30 5 -30 53 0 28 1 54 3 58 2 4 29 7 60 5 54 -3 56 -4 58 -31z m1139 -27
l0 -55 61 -3 61 -3 0 -179 -1 -180 -28 0 c-26 0 -35 -15 -29 -52 0 -5 -12 -8
-29 -8 -29 0 -34 -7 -31 -42 2 -14 -5 -18 -28 -18 -35 0 -33 -10 -33 143 l0
97 -29 0 c-28 0 -36 15 -30 53 1 4 -27 7 -61 5 -62 -3 -63 -3 -60 -30 3 -25 0
-28 -27 -28 -30 0 -38 15 -32 53 1 4 -27 7 -61 5 -62 -3 -63 -3 -62 -31 1 -26
-1 -28 -30 -25 -30 3 -30 4 -30 58 l0 55 181 3 182 2 -2 58 -2 57 32 3 c32 3
33 4 32 50 -2 73 -1 74 29 70 26 -3 27 -5 27 -58z m-1260 -92 c2 -25 -1 -28
-30 -28 -30 0 -32 -2 -30 -31 2 -28 1 -30 -29 -27 -30 3 -31 5 -32 53 0 28 1
54 3 58 3 4 30 7 61 5 53 -3 56 -4 57 -30z m-360 -118 c0 -21 -5 -25 -32 -25
-32 0 -53 -28 -32 -41 23 -14 -7 -21 -88 -23 l-88 -2 1 58 c1 32 2 59 3 61 0
1 54 1 119 0 l117 -3 0 -25z m-304 -100 c5 -42 3 -45 -26 -45 -23 0 -30 5 -31
20 0 11 1 23 3 28 6 11 53 9 54 -3z"/>
<path d="M2356 5122 c-3 -5 1 -9 9 -9 8 0 12 4 9 9 -3 4 -7 8 -9 8 -2 0 -6 -4
-9 -8z"/>
<path d="M4606 5038 c3 -5 10 -6 15 -3 13 9 11 12 -6 12 -8 0 -12 -4 -9 -9z"/>
<path d="M4636 5002 c-3 -5 1 -9 9 -9 8 0 12 4 9 9 -3 4 -7 8 -9 8 -2 0 -6 -4
-9 -8z"/>
<path d="M4605 4960 c-3 -5 -1 -10 4 -10 6 0 11 5 11 10 0 6 -2 10 -4 10 -3 0
-8 -4 -11 -10z"/>
<path d="M4495 4876 c0 -24 3 -42 8 -39 4 2 7 22 7 44 0 21 -3 39 -7 39 -5 0
-8 -20 -8 -44z"/>
<path d="M4399 4748 c-6 -21 -5 -38 1 -38 5 0 8 9 7 20 -1 17 -5 26 -8 18z"/>
<path d="M4420 4746 c0 -2 8 -10 18 -17 15 -13 16 -12 3 4 -13 16 -21 21 -21
13z"/>
<path d="M4456 4737 c3 -10 9 -15 12 -12 3 3 0 11 -7 18 -10 9 -11 8 -5 -6z"/>
<path d="M3836 5102 c-3 -5 1 -9 9 -9 8 0 12 4 9 9 -3 4 -7 8 -9 8 -2 0 -6 -4
-9 -8z"/>
<path d="M2514 4929 c-4 -7 -2 -15 4 -17 7 -2 12 -8 12 -13 0 -6 -4 -8 -8 -5
-4 2 -14 1 -21 -3 -9 -6 -10 -11 -2 -15 6 -4 11 -1 11 6 1 15 24 -21 25 -37 0
-5 11 -12 24 -13 14 -2 21 0 17 7 -4 5 -12 9 -19 7 -7 -1 -8 -1 -4 2 4 2 3 10
-2 16 -8 9 -7 13 4 13 8 0 12 -3 10 -7 -5 -7 26 -34 43 -38 7 -1 15 5 18 13 7
18 25 20 20 3 -1 -7 -1 -10 1 -5 3 4 10 4 15 1 7 -5 8 -2 2 7 -5 8 -9 19 -10
24 0 6 -2 16 -2 23 -3 19 -20 14 -27 -9 -7 -22 -17 -19 -21 6 -1 8 2 15 7 15
5 0 9 5 9 11 0 8 -5 8 -15 -1 -8 -7 -15 -8 -15 -3 0 6 -10 9 -22 9 -13 -1 -28
2 -35 6 -7 6 -14 4 -19 -3z m39 -13 c7 7 47 -14 45 -24 -1 -4 4 -17 11 -30 12
-22 11 -23 -9 -12 -11 6 -18 15 -15 21 6 9 -3 12 -37 12 -10 0 -15 4 -12 9 3
5 0 17 -8 26 -11 15 -11 15 3 5 9 -7 18 -10 22 -7z m97 -35 c0 -5 -7 -11 -14
-14 -10 -4 -13 -1 -9 9 6 15 23 19 23 5z"/>
<path d="M2635 4930 c3 -5 8 -10 11 -10 2 0 4 5 4 10 0 6 -5 10 -11 10 -5 0
-7 -4 -4 -10z"/>
<path d="M2485 4921 c-3 -5 -2 -12 3 -15 5 -3 9 1 9 9 0 17 -3 19 -12 6z"/>
<path d="M2457 4839 c7 -7 15 -10 18 -7 3 3 -2 9 -12 12 -14 6 -15 5 -6 -5z"/>
<path d="M4630 4761 c0 -34 4 -51 15 -55 17 -6 16 -8 19 57 2 40 0 47 -16 47
-15 0 -18 -8 -18 -49z"/>
<path d="M5013 4795 c0 -8 4 -12 9 -9 4 3 8 9 8 15 0 5 -4 9 -8 9 -5 0 -9 -7
-9 -15z"/>
<path d="M5016 4753 c-6 -14 -5 -15 5 -6 7 7 10 15 7 18 -3 3 -9 -2 -12 -12z"/>
<path d="M4923 4634 c-10 -27 2 -49 27 -49 20 0 26 6 28 26 3 22 -2 27 -23 31
-17 4 -28 1 -32 -8z"/>
<path d="M3616 4527 c3 -10 9 -15 12 -12 3 3 0 11 -7 18 -10 9 -11 8 -5 -6z"/>
<path d="M3620 4480 c-9 -6 -10 -10 -3 -10 6 0 15 5 18 10 8 12 4 12 -15 0z"/>
<path d="M2181 4494 c0 -11 3 -14 6 -6 3 7 2 16 -1 19 -3 4 -6 -2 -5 -13z"/>
<path d="M2920 4310 c0 -5 7 -7 15 -4 8 4 15 8 15 10 0 2 -7 4 -15 4 -8 0 -15
-4 -15 -10z"/>
<path d="M2910 4271 c0 -11 -5 -22 -10 -24 -6 -3 -5 -4 1 -3 15 3 32 46 19 46
-6 0 -10 -9 -10 -19z"/>
<path d="M2856 4191 c-4 -5 3 -7 14 -4 23 6 26 13 6 13 -8 0 -17 -4 -20 -9z"/>
<path d="M2866 4172 c-3 -5 1 -9 9 -9 8 0 15 4 15 9 0 4 -4 8 -9 8 -6 0 -12
-4 -15 -8z"/>
<path d="M2841 4158 c-1 -22 8 -26 44 -17 l30 8 -32 -3 c-22 -2 -34 2 -36 13
-4 14 -5 13 -6 -1z"/>
<path d="M3120 3972 c-11 -5 -15 -20 -14 -52 3 -59 2 -57 19 -57 12 0 15 13
15 59 0 32 -1 58 -2 57 -2 0 -10 -3 -18 -7z"/>
<path d="M5481 4153 c-1 -17 16 -25 25 -12 4 7 3 9 -4 5 -5 -3 -13 0 -15 6 -4
9 -6 10 -6 1z"/>
<path d="M5480 4077 c-9 -25 -3 -34 25 -39 11 -1 23 -7 27 -13 5 -6 8 -5 8 3
0 7 5 10 11 6 8 -5 8 -1 0 14 -14 27 -14 35 2 26 9 -5 9 -4 0 6 -21 23 -63 21
-73 -3z"/>
<path d="M5412 4031 c2 -50 5 -58 18 -51 10 6 15 25 16 59 0 43 -2 51 -18 51
-16 0 -18 -8 -16 -59z"/>
<path d="M5426 3954 c-18 -17 -20 -24 -8 -24 4 0 13 9 20 20 15 24 9 26 -12 4z"/>
<path d="M5470 3943 c0 -5 5 -15 10 -23 7 -12 9 -10 7 8 -1 19 -17 33 -17 15z"/>
<path d="M5435 3921 c-4 -7 0 -8 10 -5 10 4 15 2 13 -7 -2 -8 7 -14 22 -16 24
-2 24 -2 2 5 -13 4 -23 11 -22 17 2 14 -17 18 -25 6z"/>
<path d="M5347 3914 c-7 -7 4 -44 14 -44 4 0 11 5 15 12 5 7 3 8 -6 3 -10 -6
-12 -4 -7 8 6 16 -5 31 -16 21z"/>
<path d="M5435 3880 c-3 -5 -1 -10 4 -10 6 0 11 5 11 10 0 6 -2 10 -4 10 -3 0
-8 -4 -11 -10z"/>
<path d="M5544 3790 c0 -13 4 -16 10 -10 7 7 7 13 0 20 -6 6 -10 3 -10 -10z"/>
<path d="M5566 3758 c3 -5 10 -6 15 -3 13 9 11 12 -6 12 -8 0 -12 -4 -9 -9z"/>
<path d="M4216 3882 c-3 -5 1 -9 9 -9 8 0 12 4 9 9 -3 4 -7 8 -9 8 -2 0 -6 -4
-9 -8z"/>
<path d="M4837 3929 c4 -13 8 -18 11 -10 2 7 -1 18 -6 23 -8 8 -9 4 -5 -13z"/>
<path d="M4865 3938 c9 -22 33 -30 41 -15 4 7 3 9 -1 4 -5 -4 -17 1 -27 10
-17 15 -18 15 -13 1z"/>
<path d="M4910 3901 c0 -6 4 -12 8 -15 5 -3 9 1 9 9 0 8 -4 15 -9 15 -4 0 -8
-4 -8 -9z"/>
<path d="M4850 3896 c0 -2 7 -9 15 -16 9 -7 15 -8 15 -2 0 5 -7 12 -15 16 -8
3 -15 4 -15 2z"/>
<path d="M4850 3801 c0 -6 4 -13 10 -16 6 -3 7 1 4 9 -7 18 -14 21 -14 7z"/>
<path d="M4796 3778 c5 -8 1 -9 -12 -4 -14 5 -16 4 -7 -4 7 -8 17 -9 28 -3 16
9 16 10 1 16 -12 5 -15 3 -10 -5z"/>
<path d="M4833 3765 c0 -8 4 -12 9 -9 5 3 6 10 3 15 -9 13 -12 11 -12 -6z"/>
<path d="M4630 3675 c0 -30 3 -55 8 -55 19 1 27 19 28 63 1 40 -2 47 -17 47
-16 0 -19 -8 -19 -55z"/>
<path d="M4950 3550 c-6 -11 -8 -20 -6 -20 3 0 10 9 16 20 6 11 8 20 6 20 -3
0 -10 -9 -16 -20z"/>
<path d="M1825 3950 c-3 -5 -1 -10 4 -10 6 0 11 5 11 10 0 6 -2 10 -4 10 -3 0
-8 -4 -11 -10z"/>
<path d="M796 3878 c3 -5 10 -6 15 -3 13 9 11 12 -6 12 -8 0 -12 -4 -9 -9z"/>
<path d="M5396 3438 c3 -5 10 -6 15 -3 13 9 11 12 -6 12 -8 0 -12 -4 -9 -9z"/>
<path d="M5310 3398 c0 -4 4 -8 9 -8 6 0 12 4 15 8 3 5 -1 9 -9 9 -8 0 -15 -4
-15 -9z"/>
<path d="M5375 3369 c-4 -6 -13 -8 -21 -5 -7 3 -15 2 -18 -2 -9 -14 33 -11 45
4 6 8 9 14 6 14 -3 0 -9 -5 -12 -11z"/>
<path d="M5345 3330 c-3 -6 -10 -8 -15 -5 -5 3 -11 2 -14 -3 -7 -12 61 -9 71
3 4 6 4 7 -1 3 -5 -4 -15 -3 -22 3 -8 7 -14 7 -19 -1z"/>
<path d="M5350 3291 c0 -6 4 -12 8 -15 5 -3 9 1 9 9 0 8 -4 15 -9 15 -4 0 -8
-4 -8 -9z"/>
<path d="M5379 3258 c-5 -18 -6 -38 -1 -34 7 8 12 36 6 36 -2 0 -4 -1 -5 -2z"/>
<path d="M5395 3200 c3 -5 8 -10 11 -10 2 0 4 5 4 10 0 6 -5 10 -11 10 -5 0
-7 -4 -4 -10z"/>
<path d="M5234 2743 c1 -23 5 -27 24 -25 13 2 31 -2 40 -10 8 -7 13 -8 10 -3
-4 6 12 10 42 10 33 0 46 -3 40 -10 -6 -7 -3 -11 8 -11 13 0 18 10 20 38 l2
38 -93 0 -94 0 1 -27z"/>
<path d="M5346 2702 c-3 -5 1 -9 9 -9 8 0 12 4 9 9 -3 4 -7 8 -9 8 -2 0 -6 -4
-9 -8z"/>
<path d="M5326 2647 c8 -22 -13 -47 -34 -41 -14 5 -14 3 2 -10 10 -8 23 -13
27 -10 5 3 9 0 9 -5 0 -6 -4 -11 -10 -11 -5 0 -10 -4 -10 -8 0 -5 7 -9 15 -9
8 0 12 4 10 8 -3 4 2 10 11 13 18 7 57 -17 46 -29 -4 -5 -1 -5 6 -1 7 4 10 12
7 17 -4 5 -1 9 4 9 6 0 9 10 7 23 -3 12 -5 26 -5 30 -1 5 -6 5 -13 1 -8 -5 -9
-1 -5 12 6 16 4 15 -12 -4 l-19 -22 -21 27 c-12 16 -18 20 -15 10z m29 -37 c5
-7 11 -8 19 -1 13 11 32 2 31 -16 0 -20 -14 -26 -29 -14 -8 7 -20 10 -25 7 -5
-4 -12 -2 -16 4 -4 6 -12 7 -18 3 -7 -4 -6 0 2 10 15 19 27 22 36 7z"/>
<path d="M5375 2601 c-3 -5 -2 -12 3 -15 5 -3 9 1 9 9 0 17 -3 19 -12 6z"/>
<path d="M5360 2650 c-9 -6 -10 -10 -3 -10 6 0 15 5 18 10 8 12 4 12 -15 0z"/>
<path d="M5304 2642 c3 -5 0 -13 -6 -15 -9 -4 -10 -6 -1 -6 17 -1 25 16 12 25
-7 4 -9 3 -5 -4z"/>
<path d="M5267 2579 c7 -9 9 -20 5 -25 -4 -4 1 -2 11 5 9 7 17 16 17 19 0 3
-3 2 -7 -1 -3 -4 -13 -1 -22 6 -14 10 -14 10 -4 -4z"/>
<path d="M5350 2560 c0 -5 5 -10 10 -10 6 0 10 5 10 10 0 6 -4 10 -10 10 -5 0
-10 -4 -10 -10z"/>
<path d="M5302 2509 c-10 -16 -9 -19 3 -19 13 0 14 -4 5 -20 -8 -16 -8 -20 2
-18 7 2 12 -5 12 -14 -1 -10 2 -15 8 -12 5 3 6 15 2 27 -6 19 -5 20 9 9 14
-12 15 -10 11 13 -3 15 -1 24 4 21 4 -2 8 4 9 14 1 12 -5 18 -17 17 -10 -1
-16 -5 -14 -9 3 -5 11 -5 17 -2 7 4 7 1 -1 -7 -11 -12 -15 -12 -26 3 -11 15
-13 15 -24 -3z m31 -17 c15 -16 15 -19 2 -19 -8 0 -13 3 -10 5 3 3 0 11 -6 19
-17 20 -5 16 14 -5z"/>
<path d="M5399 2473 c-13 -16 -12 -17 4 -4 16 13 21 21 13 21 -2 0 -10 -8 -17
-17z"/>
<path d="M5379 2448 c15 -21 31 -23 31 -6 0 6 -3 8 -7 5 -3 -4 -13 -1 -22 6
-14 11 -14 10 -2 -5z"/>
<path d="M5336 2402 c-3 -5 1 -9 9 -9 8 0 12 4 9 9 -3 4 -7 8 -9 8 -2 0 -6 -4
-9 -8z"/>
<path d="M5403 2395 c-10 -10 -9 -14 3 -19 8 -3 13 -2 9 3 -3 5 0 11 7 13 7 3
8 7 3 10 -6 3 -15 0 -22 -7z"/>
<path d="M5345 2370 c-4 -6 -3 -10 2 -9 4 1 10 0 13 -1 16 -6 41 -7 35 -2 -4
4 -10 7 -13 7 -4 0 -12 4 -19 8 -6 4 -15 3 -18 -3z"/>
<path d="M5411 2344 c0 -11 3 -14 6 -6 3 7 2 16 -1 19 -3 4 -6 -2 -5 -13z"/>
<path d="M5315 2341 c-3 -5 -2 -12 3 -15 5 -3 9 1 9 9 0 17 -3 19 -12 6z"/>
<path d="M5340 2346 c0 -2 7 -7 16 -10 8 -3 12 -2 9 4 -6 10 -25 14 -25 6z"/>
<path d="M5110 2264 c0 -14 -4 -22 -10 -19 -6 3 -7 -1 -3 -10 3 -9 9 -12 12
-7 3 5 28 6 59 2 46 -6 55 -4 67 13 24 35 8 47 -61 47 -62 0 -64 -1 -64 -26z"/>
<path d="M5267 2259 c7 -7 15 -10 18 -7 3 3 -2 9 -12 12 -14 6 -15 5 -6 -5z"/>
<path d="M5253 2235 c0 -7 6 -11 14 -8 7 3 13 6 13 8 0 2 -6 5 -13 8 -8 3 -14
-1 -14 -8z"/>
<path d="M5070 2215 c5 -7 6 -16 2 -21 -4 -5 -3 -5 2 -1 15 12 15 34 0 34 -9
0 -11 -4 -4 -12z"/>
<path d="M5227 2215 c-4 -8 -3 -16 1 -19 4 -3 9 4 9 15 2 23 -3 25 -10 4z"/>
<path d="M5279 2213 c-13 -16 -12 -17 4 -4 16 13 21 21 13 21 -2 0 -10 -8 -17
-17z"/>
<path d="M5186 2204 c-5 -14 -4 -15 9 -4 17 14 19 20 6 20 -5 0 -12 -7 -15
-16z"/>
<path d="M5107 2199 c7 -7 15 -10 18 -7 3 3 -2 9 -12 12 -14 6 -15 5 -6 -5z"/>
<path d="M4986 2154 c-4 -10 -14 -14 -26 -11 -11 3 -18 1 -14 -4 9 -15 30 -10
49 11 10 11 13 20 8 20 -6 0 -14 -7 -17 -16z"/>
<path d="M5025 2162 c3 -3 -4 -11 -15 -19 -25 -18 -26 -42 -1 -40 11 0 18 4
15 8 -2 4 6 15 18 23 12 9 17 16 10 16 -7 0 -11 4 -8 8 3 5 -1 9 -9 9 -8 0
-13 -3 -10 -5z m-1 -31 c-10 -10 -21 -16 -24 -14 -3 3 4 11 14 19 28 20 33 17
10 -5z"/>
<path d="M4948 2113 c7 -3 16 -2 19 1 4 3 -2 6 -13 5 -11 0 -14 -3 -6 -6z"/>
<path d="M4970 2079 c0 -5 5 -7 10 -4 6 3 10 8 10 11 0 2 -4 4 -10 4 -5 0 -10
-5 -10 -11z"/>
<path d="M4885 1970 c-3 -5 -1 -10 4 -10 6 0 11 5 11 10 0 6 -2 10 -4 10 -3 0
-8 -4 -11 -10z"/>
<path d="M4690 1877 c0 -43 3 -53 18 -54 14 -1 17 7 18 53 0 45 -3 54 -18 54
-15 0 -18 -9 -18 -53z"/>
<path d="M4333 1788 c1 -13 5 -25 9 -28 6 -5 69 -5 114 -1 6 1 12 12 12 26 0
24 -3 25 -69 25 -65 0 -69 -1 -66 -22z"/>
<path d="M4510 1786 c0 -13 6 -26 13 -28 10 -3 78 -3 110 1 4 1 7 12 7 26 0
24 -2 25 -65 25 -62 0 -65 -1 -65 -24z"/>
<path d="M3250 3224 c0 -22 4 -25 32 -22 23 2 32 8 34 26 3 19 0 22 -31 22
-31 0 -35 -3 -35 -26z"/>
<path d="M5000 3060 c-9 -6 -10 -10 -3 -10 6 0 15 5 18 10 8 12 4 12 -15 0z"/>
<path d="M4870 2985 c0 -18 6 -25 20 -26 37 -3 41 -4 51 -19 9 -13 10 -13 6 1
-4 13 1 16 24 15 30 -1 38 -11 17 -19 -7 -3 -3 -4 8 -4 13 1 20 6 17 13 -3 8
4 11 20 10 20 -2 26 2 30 20 2 13 2 26 -1 29 -3 3 -47 5 -99 5 -93 0 -93 0
-93 -25z"/>
<path d="M4690 2625 c0 -21 5 -25 28 -25 15 0 33 -5 38 -10 7 -7 10 -4 8 12
-1 13 -3 29 -3 36 -1 7 -15 12 -36 12 -31 0 -35 -3 -35 -25z"/>
<path d="M4793 2643 c4 -3 1 -13 -6 -22 -11 -14 -10 -14 5 -2 16 12 16 31 1
31 -4 0 -3 -3 0 -7z"/>
<path d="M4817 2569 c4 -13 8 -18 11 -10 2 7 -1 18 -6 23 -8 8 -9 4 -5 -13z"/>
<path d="M4756 2562 c-3 -5 1 -9 9 -9 8 0 12 4 9 9 -3 4 -7 8 -9 8 -2 0 -6 -4
-9 -8z"/>
<path d="M4390 2505 c0 -14 6 -25 13 -26 105 -7 117 -3 117 37 0 11 -16 14
-65 14 -63 0 -65 -1 -65 -25z"/>
<path d="M4030 2866 c0 -17 7 -25 24 -28 30 -6 40 1 44 30 3 19 -1 22 -32 22
-31 0 -36 -3 -36 -24z"/>
<path d="M3790 2746 c0 -42 62 -40 68 2 3 19 -1 22 -32 22 -31 0 -36 -3 -36
-24z"/>
<path d="M3010 2503 c0 -24 4 -28 30 -28 17 0 30 2 31 5 0 3 2 15 5 28 3 19 0
22 -31 22 -32 0 -35 -3 -35 -27z"/>
<path d="M2335 2120 l0 -61 60 3 60 3 0 55 0 55 -60 3 -60 3 0 -61z"/>
<path d="M2472 1903 c2 -22 8 -27 28 -28 14 0 30 -3 35 -7 6 -3 10 7 9 25 -1
29 -4 32 -38 35 -36 3 -37 2 -34 -25z"/>
<path d="M3920 2151 c0 -5 7 -11 15 -15 8 -3 15 -1 15 3 0 5 -7 11 -15 15 -8
3 -15 1 -15 -3z"/>
<path d="M3850 1995 c0 -42 3 -55 15 -55 16 0 17 3 17 55 0 52 -1 55 -17 55
-12 0 -15 -13 -15 -55z"/>
<path d="M3912 2025 c1 -14 5 -25 8 -26 51 -8 60 -4 60 23 0 25 -3 28 -35 28
-31 0 -35 -3 -33 -25z"/>
<path d="M2110 1905 c0 -14 5 -26 10 -26 6 -1 18 -2 28 -3 9 -1 22 -4 28 -8 6
-4 11 -1 11 7 0 8 -4 15 -8 15 -4 0 -5 9 -2 20 5 17 0 20 -31 20 -32 0 -36 -3
-36 -25z"/>
<path d="M2225 1921 c-3 -5 -2 -12 3 -15 5 -3 9 1 9 9 0 17 -3 19 -12 6z"/>
<path d="M2236 1878 c3 -5 10 -6 15 -3 13 9 11 12 -6 12 -8 0 -12 -4 -9 -9z"/>
<path d="M4676 5933 c-6 -14 -5 -15 5 -6 7 7 10 15 7 18 -3 3 -9 -2 -12 -12z"/>
<path d="M5700 5718 c0 -64 -1 -68 -23 -68 -21 0 -23 -4 -22 -50 1 -47 14 -84
16 -44 0 18 1 18 9 -1 l9 -20 1 20 c2 11 2 24 1 28 -1 5 3 6 8 2 6 -3 8 -12 5
-19 -3 -9 4 -15 20 -18 29 -6 32 1 14 22 -11 12 -10 12 3 2 9 -6 20 -8 24 -4
5 4 5 1 1 -5 -4 -8 -2 -13 5 -13 7 0 10 10 6 28 -5 27 -4 28 29 24 34 -4 35
-3 32 24 -2 24 -7 29 -28 26 -23 -2 -23 -2 -6 11 27 20 18 62 -14 61 -20 0
-26 6 -30 30 -4 24 -10 30 -32 31 -28 2 -28 2 -28 -67z m35 -58 c3 -5 -1 -10
-9 -10 -9 0 -16 5 -16 10 0 6 4 10 9 10 6 0 13 -4 16 -10z m35 -10 c-8 -5 -17
-7 -19 -4 -3 3 1 9 9 14 8 5 17 7 19 4 3 -3 -1 -9 -9 -14z"/>
<path d="M4961 5772 c-25 -3 -31 -6 -20 -13 12 -7 12 -9 -1 -9 -13 0 -13 -1 0
-10 10 -6 11 -10 3 -10 -7 0 -13 -5 -13 -11 0 -5 5 -7 12 -3 7 5 8 3 2 -7 -15
-24 -13 -37 7 -42 11 -3 19 0 19 6 0 7 4 6 10 -3 8 -12 10 -12 15 3 6 14 9 15
22 2 21 -21 57 -2 44 23 -5 9 -7 29 -4 43 3 18 0 28 -11 32 -9 4 -16 1 -16 -6
0 -8 -4 -6 -10 3 -9 13 -10 13 -10 0 0 -9 -3 -11 -8 -5 -4 6 -22 9 -41 7z m23
-30 c3 -5 -1 -9 -9 -9 -8 0 -12 4 -9 9 3 4 7 8 9 8 2 0 6 -4 9 -8z m56 -42 c8
-5 11 -10 5 -10 -5 0 -17 5 -25 10 -8 5 -10 10 -5 10 6 0 17 -5 25 -10z"/>
<path d="M3981 5694 c0 -11 3 -14 6 -6 3 7 2 16 -1 19 -3 4 -6 -2 -5 -13z"/>
<path d="M5096 5693 c-6 -14 -5 -15 5 -6 7 7 10 15 7 18 -3 3 -9 -2 -12 -12z"/>
<path d="M5243 5532 c-7 -4 -11 -18 -10 -30 1 -18 7 -22 35 -22 30 0 33 2 30
27 -3 27 -31 40 -55 25z"/>
<path d="M3861 5454 c0 -11 3 -14 6 -6 3 7 2 16 -1 19 -3 4 -6 -2 -5 -13z"/>
<path d="M3974 5279 c0 -10 10 -22 22 -27 19 -9 21 -7 18 15 -2 19 1 23 14 18
9 -3 13 -2 8 2 -4 4 -20 8 -35 9 -19 0 -27 -5 -27 -17z m31 2 c3 -5 1 -12 -5
-16 -5 -3 -10 1 -10 9 0 18 6 21 15 7z"/>
<path d="M3908 5268 c-19 -19 -15 -21 14 -10 10 4 14 12 10 18 -5 6 -13 4 -24
-8z"/>
<path d="M5537 5270 c-3 -11 -1 -23 4 -26 5 -3 6 -11 2 -17 -14 -22 -11 -35 9
-40 17 -5 17 -3 6 11 -12 15 -11 16 5 3 14 -11 17 -26 15 -75 -3 -53 -6 -61
-23 -62 -19 -1 -21 4 -18 60 1 34 0 56 -3 50 -3 -8 -17 -9 -37 -5 -18 4 -39 6
-47 5 -8 0 -35 -2 -60 -3 -25 -2 -39 -5 -31 -8 11 -5 11 -7 0 -14 -12 -8 -11
-11 1 -19 8 -5 10 -10 4 -10 -6 0 -10 -12 -8 -27 3 -38 4 -41 12 -21 7 17 8
16 20 -2 12 -19 10 -20 -71 -20 l-84 0 1 -50 c1 -58 14 -67 53 -38 15 12 22
15 16 8 -24 -27 -7 -36 26 -16 8 5 12 5 9 0 -4 -5 65 -9 163 -9 93 0 169 -3
169 -7 0 -5 -4 -8 -8 -8 -4 0 -8 -11 -8 -25 0 -19 5 -25 23 -25 19 0 23 -5 23
-29 l0 -29 90 1 91 1 -3 60 c-3 57 -4 61 -28 61 -20 0 -26 6 -30 30 -5 25 -10
30 -33 28 -24 -2 -27 1 -27 27 0 19 -5 30 -15 31 -8 1 -21 2 -27 3 -7 0 -15
15 -18 31 -4 25 -10 30 -32 29 -23 -1 -27 3 -30 33 -3 21 0 32 7 29 7 -2 11
16 13 50 l2 54 -59 0 c-50 0 -59 -3 -64 -20z m48 -10 c3 -5 1 -10 -4 -10 -6 0
-11 5 -11 10 0 6 2 10 4 10 3 0 8 -4 11 -10z m5 -34 c0 -3 -4 -8 -10 -11 -5
-3 -10 -1 -10 4 0 6 5 11 10 11 6 0 10 -2 10 -4z m-80 -86 c0 -5 -5 -10 -11
-10 -5 0 -7 5 -4 10 3 6 8 10 11 10 2 0 4 -4 4 -10z m-101 -13 c-2 -1 -13 -9
-24 -17 -19 -14 -19 -14 -6 3 7 9 18 17 24 17 6 0 8 -1 6 -3z m121 -21 c0 -2
-7 -7 -16 -10 -8 -3 -12 -2 -9 4 6 10 25 14 25 6z m-202 -111 c-3 -3 -9 2 -12
12 -6 14 -5 15 5 6 7 -7 10 -15 7 -18z m-64 7 c3 -5 -1 -9 -9 -9 -8 0 -12 4
-9 9 3 4 7 8 9 8 2 0 6 -4 9 -8z m120 -8 c3 -8 2 -12 -4 -9 -6 3 -10 10 -10
16 0 14 7 11 14 -7z"/>
<path d="M4031 5258 c3 -24 -1 -41 -8 -35 -3 4 -13 1 -21 -6 -13 -10 -15 -9
-9 6 4 11 3 16 -3 12 -6 -3 -10 -2 -10 3 0 6 -7 13 -16 16 -14 5 -15 4 -4 -9
12 -14 7 -19 -13 -16 -5 1 -6 -3 -2 -9 5 -8 12 -7 22 2 14 11 15 10 9 -12 -5
-17 -4 -21 2 -11 8 11 10 11 15 0 4 -11 6 -11 6 1 1 13 2 13 11 0 9 -13 10
-13 10 0 0 11 2 12 8 3 6 -9 11 -6 21 8 7 13 8 18 1 14 -7 -4 -9 2 -6 19 3 14
0 26 -5 26 -5 0 -9 -6 -8 -12z"/>
<path d="M4067 5260 c13 -17 12 -36 -1 -60 -7 -12 -6 -13 4 -3 21 19 22 49 2
64 -15 12 -15 12 -5 -1z"/>
<path d="M3913 5210 c1 -21 10 -18 13 5 1 8 -2 15 -6 15 -5 0 -8 -9 -7 -20z"/>
<path d="M2235 5210 c-3 -5 -1 -10 4 -10 6 0 11 5 11 10 0 6 -2 10 -4 10 -3 0
-8 -4 -11 -10z"/>
<path d="M3862 5160 c-7 -12 -8 -20 -2 -20 5 0 10 5 10 12 0 6 11 1 26 -13 18
-17 23 -19 18 -6 -3 9 -10 17 -15 17 -5 0 -8 5 -6 11 4 20 -18 20 -31 -1z"/>
<path d="M3741 5114 c0 -11 3 -14 6 -6 3 7 2 16 -1 19 -3 4 -6 -2 -5 -13z"/>
<path d="M3787 5045 c-4 -9 -3 -13 3 -10 6 3 10 2 10 -4 0 -5 -6 -12 -12 -14
-9 -4 -9 -6 -1 -6 7 -1 10 -13 7 -33 -4 -31 -3 -32 7 -8 10 24 11 24 25 6 8
-11 14 -16 14 -10 0 5 5 2 10 -6 8 -13 13 -11 32 10 19 20 19 21 2 7 -27 -22
-39 -10 -17 17 15 17 15 19 1 8 -14 -11 -19 -9 -33 10 l-17 23 8 -25 c6 -22 5
-23 -9 -11 -20 16 -5 54 17 45 8 -3 16 -2 19 3 3 4 -6 9 -19 9 -13 1 -24 -3
-24 -10 0 -7 -3 -6 -9 2 -7 11 -9 10 -14 -3z"/>
<path d="M5846 4973 c-6 -14 -5 -15 5 -6 7 7 10 15 7 18 -3 3 -9 -2 -12 -12z"/>
<path d="M3748 4973 c7 -3 16 -2 19 1 4 3 -2 6 -13 5 -11 0 -14 -3 -6 -6z"/>
<path d="M5354 4926 c1 -6 5 -17 9 -23 7 -12 -2 -17 -24 -15 -3 1 -6 -6 -6
-14 0 -10 4 -11 11 -4 5 5 27 10 48 10 35 0 38 2 38 28 0 26 -3 28 -39 29 -24
0 -38 -4 -37 -11z"/>
<path d="M4945 4859 c-4 -6 -5 -12 -2 -15 2 -3 7 2 10 11 7 17 1 20 -8 4z"/>
<path d="M5316 4847 c3 -10 9 -15 12 -12 3 3 0 11 -7 18 -10 9 -11 8 -5 -6z"/>
<path d="M5460 4818 c0 -5 -11 -8 -25 -8 -14 0 -25 -4 -25 -10 0 -5 5 -10 10
-10 6 0 10 -5 10 -11 0 -5 -4 -8 -8 -5 -5 3 -9 -1 -9 -9 0 -8 5 -11 10 -8 6 4
7 1 1 -8 -15 -24 -13 -39 4 -40 10 -1 47 -3 85 -4 l67 -3 0 59 c0 49 -3 59
-17 60 -75 4 -103 3 -103 -3z"/>
<path d="M5482 4571 c-6 -4 -10 -17 -9 -29 1 -18 7 -22 34 -22 29 0 33 3 33
28 0 21 -5 27 -24 28 -13 1 -28 -1 -34 -5z"/>
<path d="M5547 4511 c-4 -17 -3 -21 5 -13 5 5 8 16 6 23 -3 8 -7 3 -11 -10z"/>
<path d="M5635 4490 c-4 -6 -11 -7 -17 -4 -7 4 -8 2 -4 -5 6 -9 11 -9 22 0 14
11 18 19 10 19 -3 0 -8 -5 -11 -10z"/>
<path d="M6678 4343 c-13 -3 -18 -18 -20 -66 -2 -34 -7 -61 -13 -60 -17 2 -34
-17 -32 -38 1 -15 9 -19 34 -19 30 0 33 -3 33 -30 0 -39 23 -35 31 5 l6 30 2
-32 c1 -30 4 -33 31 -33 l30 0 0 93 0 93 -27 -1 c-23 0 -29 5 -31 27 -3 28
-16 37 -44 31z m32 -128 c0 -2 -9 -3 -19 -2 -11 0 -18 5 -15 9 4 6 34 0 34 -7z"/>
<path d="M6494 3800 c1 -28 4 -50 9 -50 4 0 11 0 15 0 5 0 9 23 11 50 2 43 -1
50 -17 50 -16 0 -18 -7 -18 -50z"/>
<path d="M1990 3195 c0 -42 3 -55 15 -55 12 0 15 13 15 55 0 42 -3 55 -15 55
-12 0 -15 -13 -15 -55z"/>
<path d="M6625 3209 c-4 -6 -4 -13 -1 -16 3 -4 6 -1 6 5 0 6 8 13 18 15 15 4
15 5 0 6 -9 0 -20 -4 -23 -10z"/>
<path d="M1364 3078 c2 -39 6 -53 16 -53 11 0 15 14 16 53 1 43 -2 52 -16 52
-14 0 -17 -9 -16 -52z"/>
<path d="M1930 3106 c0 -42 64 -41 66 2 1 19 -4 22 -32 22 -29 0 -34 -3 -34
-24z"/>
<path d="M6556 3121 c-4 -5 -1 -11 6 -13 7 -3 8 -9 3 -19 -12 -19 -14 -59 -3
-60 4 -1 12 -2 17 -3 23 -3 21 -16 -2 -16 -22 0 -27 -5 -27 -25 0 -20 5 -25
25 -25 21 0 25 -5 25 -30 l0 -30 60 0 60 0 0 60 0 60 -35 0 -35 0 0 55 0 55
-44 0 c-25 0 -47 -4 -50 -9z m53 -34 c-2 -1 -13 -9 -24 -17 -19 -14 -19 -14
-6 3 7 9 18 17 24 17 6 0 8 -1 6 -3z"/>
<path d="M1570 2985 c0 -23 4 -25 50 -26 28 -1 56 -2 63 -3 36 -5 70 10 72 32
2 21 -1 22 -92 22 -93 0 -93 0 -93 -25z"/>
<path d="M1554 2873 c1 -27 -1 -28 -59 -33 -57 -5 -60 -6 -62 -32 l-2 -28 89
0 c97 0 96 -1 95 70 0 43 -1 45 -31 48 -29 3 -31 1 -30 -25z"/>
<path d="M1150 2865 c0 -27 -5 -26 119 -27 62 -1 65 0 68 26 l4 26 -96 0 c-95
0 -95 0 -95 -25z"/>
<path d="M6374 2838 c1 -40 5 -53 16 -53 11 0 16 14 17 53 2 44 0 52 -15 52
-16 0 -18 -8 -18 -52z"/>
<path d="M1570 2746 c0 -45 62 -42 65 3 1 17 -4 21 -32 21 -28 0 -33 -3 -33
-24z"/>
<path d="M6315 2400 c-3 -5 -2 -10 3 -10 13 0 11 -30 -2 -30 -6 -1 0 -7 14
-16 22 -13 22 -14 3 -9 -17 5 -21 2 -19 -12 2 -14 12 -18 47 -18 l44 0 2 53 3
52 -45 0 c-24 0 -47 -4 -50 -10z m50 -28 c-3 -3 -11 0 -18 7 -9 10 -8 11 6 5
10 -3 15 -9 12 -12z"/>
<path d="M6210 2280 c-8 -5 -10 -10 -4 -10 7 0 14 -10 17 -21 4 -15 11 -20 22
-15 9 3 23 6 30 6 7 0 12 8 10 18 -2 9 -4 20 -4 25 -1 10 -53 8 -71 -3z"/>
<path d="M6319 2288 c-5 -10 -5 -48 0 -49 54 -7 61 -4 61 23 0 24 -4 28 -30
28 -16 0 -31 -1 -31 -2z"/>
<path d="M5833 2028 c1 -29 12 -36 43 -30 17 3 24 11 24 28 0 21 -5 24 -34 24
-30 0 -35 -3 -33 -22z"/>
<path d="M2830 1905 c0 -14 3 -25 8 -26 4 0 15 -2 24 -4 20 -4 35 13 35 38 0
13 -9 17 -34 17 -29 0 -33 -3 -33 -25z"/>
<path d="M5713 1908 c1 -29 12 -36 43 -30 17 3 24 11 24 28 0 21 -5 24 -34 24
-30 0 -35 -3 -33 -22z"/>
<path d="M2710 1755 c0 -42 3 -55 15 -55 14 0 17 11 17 60 0 42 -2 50 -17 50
-12 0 -15 -13 -15 -55z"/>
<path d="M5592 1785 c-1 -14 2 -25 6 -26 58 -8 62 -6 62 23 0 25 -3 28 -33 28
-28 0 -33 -4 -35 -25z"/>
<path d="M1563 1673 c0 -26 14 -40 39 -38 17 1 24 9 26 28 3 25 0 27 -31 27
-25 0 -34 -4 -34 -17z"/>
<path d="M2470 1665 c0 -24 4 -27 35 -27 28 0 31 2 31 27 0 22 -4 25 -33 25
-29 0 -33 -3 -33 -25z"/>
<path d="M5237 1683 c-11 -11 -8 -41 5 -45 29 -10 58 4 58 28 0 20 -5 24 -28
24 -16 0 -32 -3 -35 -7z"/>
<path d="M5473 1663 c2 -23 7 -27 35 -28 29 -1 32 2 32 27 0 25 -3 28 -34 28
-32 0 -35 -2 -33 -27z"/>
<path d="M2352 1543 c5 -42 68 -35 65 7 -1 16 -8 20 -35 20 -30 0 -33 -2 -30
-27z"/>
<path d="M5112 1546 c-2 -29 7 -33 73 -31 47 1 50 2 53 28 3 27 3 27 -60 27
-60 0 -64 -1 -66 -24z"/>
<path d="M2052 1423 c3 -25 7 -27 51 -28 56 -1 70 6 72 34 2 19 -4 21 -62 21
-64 0 -64 0 -61 -27z"/>
<path d="M3972 1423 c3 -27 4 -27 83 -28 98 -1 105 1 103 31 -2 23 -4 24 -96
24 l-93 0 3 -27z"/>
<path d="M3730 1302 c0 -26 3 -28 32 -27 27 1 32 5 33 28 2 24 -2 27 -32 27
-30 0 -33 -3 -33 -28z"/>
<path d="M4752 1303 c2 -19 8 -28 21 -27 9 1 24 2 32 3 9 1 15 11 15 26 0 22
-4 25 -36 25 -33 0 -35 -2 -32 -27z"/>
<path d="M4212 1183 c3 -26 6 -28 48 -28 67 -1 80 4 80 31 0 23 -3 24 -66 24
l-65 0 3 -27z"/>
<path d="M4369 1206 c-2 -2 -2 -27 -1 -55 3 -35 8 -51 18 -51 10 0 14 14 14
55 0 39 -4 55 -13 55 -8 0 -16 -2 -18 -4z"/>
<path d="M4510 1060 c0 -27 3 -30 26 -26 32 6 37 11 41 36 2 17 -3 20 -32 20
-32 0 -35 -2 -35 -30z"/>
</g>
</svg>
