<?xml version="1.0" encoding="UTF-8"?>
<svg width="15.24mm" height="128.5mm" style="margin:auto" version="1.1" viewBox="0 0 15.24 128.5" xmlns="http://www.w3.org/2000/svg" xmlns:cc="http://creativecommons.org/ns#" xmlns:dc="http://purl.org/dc/elements/1.1/" xmlns:osb="http://www.openswatchbook.org/uri/2009/osb" xmlns:rdf="http://www.w3.org/1999/02/22-rdf-syntax-ns#" xmlns:xlink="http://www.w3.org/1999/xlink">
<defs>
<linearGradient id="q" x1="16.232" x2="24.769" y1="48.466" y2="3.846" gradientTransform="matrix(1 0 0 1.6485 1.6215e-7 -3.6806)" gradientUnits="userSpaceOnUse">
<stop offset="0"/>
<stop stop-color="#171816" offset="1"/>
</linearGradient>
<linearGradient id="p" x1="14.984" x2="23.685" y1="131.64" y2="105.05" gradientUnits="userSpaceOnUse">
<stop stop-color="#e7e7e7" offset="0"/>
<stop stop-color="#f2f2f2" offset="1"/>
</linearGradient>
<filter id="d" x="-1.2e-6" y="-1.2e-6" width="1" height="1" color-interpolation-filters="sRGB">
<feGaussianBlur stdDeviation="5.0002078e-06"/>
</filter>
<linearGradient id="b" x1="143.36" x2="143.36" y1="63.598" y2="72.266" gradientTransform="matrix(.67064 0 0 .67064 42.37 18.322)" gradientUnits="userSpaceOnUse" xlink:href="#j"/>
<linearGradient id="j">
<stop stop-color="#fff" stop-opacity=".9" offset="0"/>
<stop stop-color="#fff" stop-opacity=".1" offset="1"/>
</linearGradient>
<filter id="c" x="-1.2e-6" y="-1.2e-6" width="1" height="1" color-interpolation-filters="sRGB">
<feGaussianBlur stdDeviation="5.0002078e-06"/>
</filter>
<linearGradient id="a" x1="143.36" x2="143.36" y1="63.598" y2="72.266" gradientTransform="matrix(.80935 0 0 .80935 -134.42 -25.549)" gradientUnits="userSpaceOnUse" xlink:href="#j"/>
<linearGradient id="g" x1="92.789" x2="92.789" y1="118.73" y2="128.73" gradientTransform="matrix(1.0169 0 0 1.0169 -1.5722 -2.0905)" gradientUnits="userSpaceOnUse" xlink:href="#m"/>
<linearGradient id="m">
<stop stop-color="#d6d6d6" offset="0"/>
<stop stop-color="#363636" offset="1"/>
</linearGradient>
<linearGradient id="h" x1="92.789" x2="92.789" y1="118.73" y2="131.77" gradientTransform="matrix(1.0169 0 0 1.0169 -1.5724 -2.0907)" gradientUnits="userSpaceOnUse" xlink:href="#n"/>
<linearGradient id="n">
<stop stop-color="#fff" offset="0"/>
<stop offset="1"/>
</linearGradient>
<linearGradient id="f" x1="92.761" x2="92.684" y1="119.72" y2="126.72" gradientTransform="matrix(1.3352 0 0 1.3352 -31.099 -41.351)" gradientUnits="userSpaceOnUse" xlink:href="#l"/>
<linearGradient id="l">
<stop stop-color="#fff" offset="0"/>
<stop stop-color="#bcbcbc" offset="1"/>
</linearGradient>
<linearGradient id="i" x1="92.883" x2="92.813" y1="118.63" y2="124.15" gradientTransform="matrix(.90378 0 0 .90378 8.9281 11.871)" gradientUnits="userSpaceOnUse" xlink:href="#o"/>
<linearGradient id="o">
<stop offset="0"/>
<stop stop-color="#fff" offset="1"/>
</linearGradient>
<linearGradient id="e" x1="93.077" x2="93.077" y1="121.66" y2="125.73" gradientTransform="matrix(1.0103 0 0 1.0103 -1.2919 -1.539)" gradientUnits="userSpaceOnUse" xlink:href="#k"/>
<linearGradient id="k">
<stop offset="0"/>
<stop stop-color="#afafaf" offset="1"/>
</linearGradient>
</defs>
<metadata>
<rdf:RDF>
<cc:Work rdf:about="">
<dc:format>image/svg+xml</dc:format>
<dc:type rdf:resource="http://purl.org/dc/dcmitype/StillImage"/>
<dc:title/>
</cc:Work>
</rdf:RDF>
</metadata>
<g transform="translate(-8.0107 -5.6755)">
<path d="m8.2367 105.65h15.449v28.433h-15.449z" fill="url(#p)"/>
<rect x="8.0107" y="5.6755" width="15.635" height="100.68" fill="url(#q)" fill-rule="evenodd" stroke-width="1.1781"/>
<path transform="matrix(.26458 0 0 .26458 8.0107 5.6755)" d="m0 351.03v19.193h59.094v-19.193zm0 51.014v19.193h59.094v-19.193zm0 50.002v34.193h59.094v-34.193z" opacity="0"/>
<rect transform="matrix(.99999 .0049994 .00034912 -1 0 0)" x="18.223" y="-127.44" width=".42523" height="24.137" fill="#2bc0e6"/>
<rect transform="matrix(1 .0019444 .00089762 -1 0 0)" x="13.049" y="-106.6" width=".42522" height="9.3877" fill="#fff"/>
<rect transform="matrix(.99999 .0045647 .00038237 -1 0 0)" x="13.002" y="-128.33" width=".42523" height="22.038"/>
</g>
<g fill-rule="evenodd">
<g transform="matrix(1.2068 0 0 1.2068 -161.92 12.148)">
<circle cx="138.56" cy="64.607" r="2.2386" fill="#e9e9e9"/>
<path transform="matrix(.26458 0 0 .25362 133.63 60.472)" d="m18.541 7.8457a8.461 8.461 0 0 0-0.93555 0.0625v8.4668h2.0352v-8.4668a8.461 8.461 0 0 0-1.0176-0.0625 8.461 8.461 0 0 0-0.08203 0z" filter="url(#d)"/>
<path d="m138.54 62.457a2.1499 2.1499 0 0 0-2.1317 2.15 2.1499 2.1499 0 0 0 2.15 2.15 2.1499 2.1499 0 0 0 2.15-2.15 2.1499 2.1499 0 0 0-2.15-2.15 2.1499 2.1499 0 0 0-0.0183 0zm0.0182 0.09415a2.0558 2.0558 0 0 1 2.0558 2.0558 2.0558 2.0558 0 0 1-2.0558 2.0558 2.0558 2.0558 0 0 1-2.0558-2.0558 2.0558 2.0558 0 0 1 2.0558-2.0558z" fill="url(#b)"/>
</g>
<g transform="matrix(1.2068 0 0 1.2068 -161.92 .029881)">
<circle cx="138.56" cy="64.607" r="2.2386" fill="#e9e9e9"/>
<path transform="matrix(.26458 0 0 .25362 133.63 60.472)" d="m18.541 7.8457a8.461 8.461 0 0 0-0.93555 0.0625v8.4668h2.0352v-8.4668a8.461 8.461 0 0 0-1.0176-0.0625 8.461 8.461 0 0 0-0.08203 0z" filter="url(#d)"/>
<path d="m138.54 62.457a2.1499 2.1499 0 0 0-2.1317 2.15 2.1499 2.1499 0 0 0 2.15 2.15 2.1499 2.1499 0 0 0 2.15-2.15 2.1499 2.1499 0 0 0-2.15-2.15 2.1499 2.1499 0 0 0-0.0183 0zm0.0182 0.09415a2.0558 2.0558 0 0 1 2.0558 2.0558 2.0558 2.0558 0 0 1-2.0558 2.0558 2.0558 2.0558 0 0 1-2.0558-2.0558 2.0558 2.0558 0 0 1 2.0558-2.0558z" fill="url(#b)"/>
</g>
<g transform="matrix(1.2068 0 0 1.2068 -161.92 -12.088)">
<circle cx="138.56" cy="64.607" r="2.2386" fill="#e9e9e9"/>
<path transform="matrix(.26458 0 0 .25362 133.63 60.472)" d="m18.541 7.8457a8.461 8.461 0 0 0-0.93555 0.0625v8.4668h2.0352v-8.4668a8.461 8.461 0 0 0-1.0176-0.0625 8.461 8.461 0 0 0-0.08203 0z" filter="url(#d)"/>
<path d="m138.54 62.457a2.1499 2.1499 0 0 0-2.1317 2.15 2.1499 2.1499 0 0 0 2.15 2.15 2.1499 2.1499 0 0 0 2.15-2.15 2.1499 2.1499 0 0 0-2.15-2.15 2.1499 2.1499 0 0 0-0.0183 0zm0.0182 0.09415a2.0558 2.0558 0 0 1 2.0558 2.0558 2.0558 2.0558 0 0 1-2.0558 2.0558 2.0558 2.0558 0 0 1-2.0558-2.0558 2.0558 2.0558 0 0 1 2.0558-2.0558z" fill="url(#b)"/>
</g>
<g transform="matrix(1.2068 0 0 1.2068 -161.92 -24.206)">
<circle cx="138.56" cy="64.607" r="2.2386" fill="#e9e9e9"/>
<path transform="matrix(.26458 0 0 .25362 133.63 60.472)" d="m18.541 7.8457a8.461 8.461 0 0 0-0.93555 0.0625v8.4668h2.0352v-8.4668a8.461 8.461 0 0 0-1.0176-0.0625 8.461 8.461 0 0 0-0.08203 0z" filter="url(#d)"/>
<path d="m138.54 62.457a2.1499 2.1499 0 0 0-2.1317 2.15 2.1499 2.1499 0 0 0 2.15 2.15 2.1499 2.1499 0 0 0 2.15-2.15 2.1499 2.1499 0 0 0-2.15-2.15 2.1499 2.1499 0 0 0-0.0183 0zm0.0182 0.09415a2.0558 2.0558 0 0 1 2.0558 2.0558 2.0558 2.0558 0 0 1-2.0558 2.0558 2.0558 2.0558 0 0 1-2.0558-2.0558 2.0558 2.0558 0 0 1 2.0558-2.0558z" fill="url(#b)"/>
</g>
<g transform="matrix(1.2068 0 0 1.2068 -161.92 -36.324)">
<circle cx="138.56" cy="64.607" r="2.2386" fill="#e9e9e9"/>
<path transform="matrix(.26458 0 0 .25362 133.63 60.472)" d="m18.541 7.8457a8.461 8.461 0 0 0-0.93555 0.0625v8.4668h2.0352v-8.4668a8.461 8.461 0 0 0-1.0176-0.0625 8.461 8.461 0 0 0-0.08203 0z" filter="url(#d)"/>
<path d="m138.54 62.457a2.1499 2.1499 0 0 0-2.1317 2.15 2.1499 2.1499 0 0 0 2.15 2.15 2.1499 2.1499 0 0 0 2.15-2.15 2.1499 2.1499 0 0 0-2.15-2.15 2.1499 2.1499 0 0 0-0.0183 0zm0.0182 0.09415a2.0558 2.0558 0 0 1 2.0558 2.0558 2.0558 2.0558 0 0 1-2.0558 2.0558 2.0558 2.0558 0 0 1-2.0558-2.0558 2.0558 2.0558 0 0 1 2.0558-2.0558z" fill="url(#b)"/>
</g>
<g transform="matrix(1.2068 0 0 1.2068 -161.92 -48.442)">
<circle cx="138.56" cy="64.607" r="2.2386" fill="#e9e9e9"/>
<path transform="matrix(.26458 0 0 .25362 133.63 60.472)" d="m18.541 7.8457a8.461 8.461 0 0 0-0.93555 0.0625v8.4668h2.0352v-8.4668a8.461 8.461 0 0 0-1.0176-0.0625 8.461 8.461 0 0 0-0.08203 0z" filter="url(#d)"/>
<path d="m138.54 62.457a2.1499 2.1499 0 0 0-2.1317 2.15 2.1499 2.1499 0 0 0 2.15 2.15 2.1499 2.1499 0 0 0 2.15-2.15 2.1499 2.1499 0 0 0-2.15-2.15 2.1499 2.1499 0 0 0-0.0183 0zm0.0182 0.09415a2.0558 2.0558 0 0 1 2.0558 2.0558 2.0558 2.0558 0 0 1-2.0558 2.0558 2.0558 2.0558 0 0 1-2.0558-2.0558 2.0558 2.0558 0 0 1 2.0558-2.0558z" fill="url(#b)"/>
</g>
<g transform="matrix(1.2068 0 0 1.2068 -161.92 -60.56)">
<circle cx="138.56" cy="64.607" r="2.2386" fill="#e9e9e9"/>
<path transform="matrix(.26458 0 0 .25362 133.63 60.472)" d="m18.541 7.8457a8.461 8.461 0 0 0-0.93555 0.0625v8.4668h2.0352v-8.4668a8.461 8.461 0 0 0-1.0176-0.0625 8.461 8.461 0 0 0-0.08203 0z" filter="url(#d)"/>
<path d="m138.54 62.457a2.1499 2.1499 0 0 0-2.1317 2.15 2.1499 2.1499 0 0 0 2.15 2.15 2.1499 2.1499 0 0 0 2.15-2.15 2.1499 2.1499 0 0 0-2.15-2.15 2.1499 2.1499 0 0 0-0.0183 0zm0.0182 0.09415a2.0558 2.0558 0 0 1 2.0558 2.0558 2.0558 2.0558 0 0 1-2.0558 2.0558 2.0558 2.0558 0 0 1-2.0558-2.0558 2.0558 2.0558 0 0 1 2.0558-2.0558z" fill="url(#b)"/>
</g>
<g transform="matrix(1.2068 0 0 1.2068 -161.92 -72.678)">
<circle cx="138.56" cy="64.607" r="2.2386" fill="#e9e9e9"/>
<path transform="matrix(.26458 0 0 .25362 133.63 60.472)" d="m18.541 7.8457a8.461 8.461 0 0 0-0.93555 0.0625v8.4668h2.0352v-8.4668a8.461 8.461 0 0 0-1.0176-0.0625 8.461 8.461 0 0 0-0.08203 0z" filter="url(#d)"/>
<path d="m138.54 62.457a2.1499 2.1499 0 0 0-2.1317 2.15 2.1499 2.1499 0 0 0 2.15 2.15 2.1499 2.1499 0 0 0 2.15-2.15 2.1499 2.1499 0 0 0-2.15-2.15 2.1499 2.1499 0 0 0-0.0183 0zm0.0182 0.09415a2.0558 2.0558 0 0 1 2.0558 2.0558 2.0558 2.0558 0 0 1-2.0558 2.0558 2.0558 2.0558 0 0 1-2.0558-2.0558 2.0558 2.0558 0 0 1 2.0558-2.0558z" fill="url(#b)"/>
</g>
<g transform="translate(28.786 -18.958)">
<g transform="matrix(1.2068 0 0 1.2068 -185.55 -47.661)">
<circle cx="138.56" cy="64.607" r="2.2386" fill="#1bb9e2"/>
<path transform="matrix(.26458 0 0 .25362 133.63 60.472)" d="m18.541 7.8457a8.461 8.461 0 0 0-0.93555 0.0625v8.4668h2.0352v-8.4668a8.461 8.461 0 0 0-1.0176-0.0625 8.461 8.461 0 0 0-0.08203 0z" fill="#fff" filter="url(#c)"/>
</g>
<path d="m-18.357 27.714a2.5946 2.5946 0 0 0-2.5726 2.5946 2.5946 2.5946 0 0 0 2.5947 2.5946 2.5946 2.5946 0 0 0 2.5947-2.5946 2.5946 2.5946 0 0 0-2.5947-2.5946 2.5946 2.5946 0 0 0-0.02209 0zm0.02196 0.11362a2.4811 2.4811 0 0 1 2.481 2.481 2.4811 2.4811 0 0 1-2.481 2.481 2.4811 2.4811 0 0 1-2.481-2.481 2.4811 2.4811 0 0 1 2.481-2.481z" fill="url(#a)"/>
</g>
<g transform="translate(28.786 -6.8398)">
<g transform="matrix(1.2068 0 0 1.2068 -185.55 -47.661)">
<circle cx="138.56" cy="64.607" r="2.2386" fill="#1bb9e2"/>
<path transform="matrix(.26458 0 0 .25362 133.63 60.472)" d="m18.541 7.8457a8.461 8.461 0 0 0-0.93555 0.0625v8.4668h2.0352v-8.4668a8.461 8.461 0 0 0-1.0176-0.0625 8.461 8.461 0 0 0-0.08203 0z" fill="#fff" filter="url(#c)"/>
</g>
<path d="m-18.357 27.714a2.5946 2.5946 0 0 0-2.5726 2.5946 2.5946 2.5946 0 0 0 2.5947 2.5946 2.5946 2.5946 0 0 0 2.5947-2.5946 2.5946 2.5946 0 0 0-2.5947-2.5946 2.5946 2.5946 0 0 0-0.02209 0zm0.02196 0.11362a2.4811 2.4811 0 0 1 2.481 2.481 2.4811 2.4811 0 0 1-2.481 2.481 2.4811 2.4811 0 0 1-2.481-2.481 2.4811 2.4811 0 0 1 2.481-2.481z" fill="url(#a)"/>
</g>
<g transform="translate(28.786 5.2781)">
<g transform="matrix(1.2068 0 0 1.2068 -185.55 -47.661)">
<circle cx="138.56" cy="64.607" r="2.2386" fill="#1bb9e2"/>
<path transform="matrix(.26458 0 0 .25362 133.63 60.472)" d="m18.541 7.8457a8.461 8.461 0 0 0-0.93555 0.0625v8.4668h2.0352v-8.4668a8.461 8.461 0 0 0-1.0176-0.0625 8.461 8.461 0 0 0-0.08203 0z" fill="#fff" filter="url(#c)"/>
</g>
<path d="m-18.357 27.714a2.5946 2.5946 0 0 0-2.5726 2.5946 2.5946 2.5946 0 0 0 2.5947 2.5946 2.5946 2.5946 0 0 0 2.5947-2.5946 2.5946 2.5946 0 0 0-2.5947-2.5946 2.5946 2.5946 0 0 0-0.02209 0zm0.02196 0.11362a2.4811 2.4811 0 0 1 2.481 2.481 2.4811 2.4811 0 0 1-2.481 2.481 2.4811 2.4811 0 0 1-2.481-2.481 2.4811 2.4811 0 0 1 2.481-2.481z" fill="url(#a)"/>
</g>
<g transform="translate(28.786 17.396)">
<g transform="matrix(1.2068 0 0 1.2068 -185.55 -47.661)">
<circle cx="138.56" cy="64.607" r="2.2386" fill="#1bb9e2"/>
<path transform="matrix(.26458 0 0 .25362 133.63 60.472)" d="m18.541 7.8457a8.461 8.461 0 0 0-0.93555 0.0625v8.4668h2.0352v-8.4668a8.461 8.461 0 0 0-1.0176-0.0625 8.461 8.461 0 0 0-0.08203 0z" fill="#fff" filter="url(#c)"/>
</g>
<path d="m-18.357 27.714a2.5946 2.5946 0 0 0-2.5726 2.5946 2.5946 2.5946 0 0 0 2.5947 2.5946 2.5946 2.5946 0 0 0 2.5947-2.5946 2.5946 2.5946 0 0 0-2.5947-2.5946 2.5946 2.5946 0 0 0-0.02209 0zm0.02196 0.11362a2.4811 2.4811 0 0 1 2.481 2.481 2.4811 2.4811 0 0 1-2.481 2.481 2.4811 2.4811 0 0 1-2.481-2.481 2.4811 2.4811 0 0 1 2.481-2.481z" fill="url(#a)"/>
</g>
<g transform="translate(28.786 29.514)">
<g transform="matrix(1.2068 0 0 1.2068 -185.55 -47.661)">
<circle cx="138.56" cy="64.607" r="2.2386" fill="#1bb9e2"/>
<path transform="matrix(.26458 0 0 .25362 133.63 60.472)" d="m18.541 7.8457a8.461 8.461 0 0 0-0.93555 0.0625v8.4668h2.0352v-8.4668a8.461 8.461 0 0 0-1.0176-0.0625 8.461 8.461 0 0 0-0.08203 0z" fill="#fff" filter="url(#c)"/>
</g>
<path d="m-18.357 27.714a2.5946 2.5946 0 0 0-2.5726 2.5946 2.5946 2.5946 0 0 0 2.5947 2.5946 2.5946 2.5946 0 0 0 2.5947-2.5946 2.5946 2.5946 0 0 0-2.5947-2.5946 2.5946 2.5946 0 0 0-0.02209 0zm0.02196 0.11362a2.4811 2.4811 0 0 1 2.481 2.481 2.4811 2.4811 0 0 1-2.481 2.481 2.4811 2.4811 0 0 1-2.481-2.481 2.4811 2.4811 0 0 1 2.481-2.481z" fill="url(#a)"/>
</g>
<g transform="translate(28.786 41.632)">
<g transform="matrix(1.2068 0 0 1.2068 -185.55 -47.661)">
<circle cx="138.56" cy="64.607" r="2.2386" fill="#1bb9e2"/>
<path transform="matrix(.26458 0 0 .25362 133.63 60.472)" d="m18.541 7.8457a8.461 8.461 0 0 0-0.93555 0.0625v8.4668h2.0352v-8.4668a8.461 8.461 0 0 0-1.0176-0.0625 8.461 8.461 0 0 0-0.08203 0z" fill="#fff" filter="url(#c)"/>
</g>
<path d="m-18.357 27.714a2.5946 2.5946 0 0 0-2.5726 2.5946 2.5946 2.5946 0 0 0 2.5947 2.5946 2.5946 2.5946 0 0 0 2.5947-2.5946 2.5946 2.5946 0 0 0-2.5947-2.5946 2.5946 2.5946 0 0 0-0.02209 0zm0.02196 0.11362a2.4811 2.4811 0 0 1 2.481 2.481 2.4811 2.4811 0 0 1-2.481 2.481 2.4811 2.4811 0 0 1-2.481-2.481 2.4811 2.4811 0 0 1 2.481-2.481z" fill="url(#a)"/>
</g>
<g transform="translate(28.786 53.75)">
<g transform="matrix(1.2068 0 0 1.2068 -185.55 -47.661)">
<circle cx="138.56" cy="64.607" r="2.2386" fill="#1bb9e2"/>
<path transform="matrix(.26458 0 0 .25362 133.63 60.472)" d="m18.541 7.8457a8.461 8.461 0 0 0-0.93555 0.0625v8.4668h2.0352v-8.4668a8.461 8.461 0 0 0-1.0176-0.0625 8.461 8.461 0 0 0-0.08203 0z" fill="#fff" filter="url(#c)"/>
</g>
<path d="m-18.357 27.714a2.5946 2.5946 0 0 0-2.5726 2.5946 2.5946 2.5946 0 0 0 2.5947 2.5946 2.5946 2.5946 0 0 0 2.5947-2.5946 2.5946 2.5946 0 0 0-2.5947-2.5946 2.5946 2.5946 0 0 0-0.02209 0zm0.02196 0.11362a2.4811 2.4811 0 0 1 2.481 2.481 2.4811 2.4811 0 0 1-2.481 2.481 2.4811 2.4811 0 0 1-2.481-2.481 2.4811 2.4811 0 0 1 2.481-2.481z" fill="url(#a)"/>
</g>
<g transform="translate(28.786 65.868)">
<g transform="matrix(1.2068 0 0 1.2068 -185.55 -47.661)">
<circle cx="138.56" cy="64.607" r="2.2386" fill="#1bb9e2"/>
<path transform="matrix(.26458 0 0 .25362 133.63 60.472)" d="m18.541 7.8457a8.461 8.461 0 0 0-0.93555 0.0625v8.4668h2.0352v-8.4668a8.461 8.461 0 0 0-1.0176-0.0625 8.461 8.461 0 0 0-0.08203 0z" fill="#fff" filter="url(#c)"/>
</g>
<path d="m-18.357 27.714a2.5946 2.5946 0 0 0-2.5726 2.5946 2.5946 2.5946 0 0 0 2.5947 2.5946 2.5946 2.5946 0 0 0 2.5947-2.5946 2.5946 2.5946 0 0 0-2.5947-2.5946 2.5946 2.5946 0 0 0-0.02209 0zm0.02196 0.11362a2.4811 2.4811 0 0 1 2.481 2.481 2.4811 2.4811 0 0 1-2.481 2.481 2.4811 2.4811 0 0 1-2.481-2.481 2.4811 2.4811 0 0 1 2.481-2.481z" fill="url(#a)"/>
</g>
</g>
<g>
<g transform="translate(-87.497 -17.781)">
<path d="m92.789 127.5c-2.2731 0-4.1215-1.8484-4.1215-4.1215 0-2.273 1.8484-4.1215 4.1215-4.1215 2.273 0 4.1215 1.8484 4.1215 4.1215 0 2.2731-1.8484 4.1215-4.1215 4.1215" fill="url(#g)"/>
<path d="m96.936 123.74v-0.74566l-0.79036-0.15292c-0.02118-0.087-0.04475-0.19757-0.06583-0.28462l0.6798-0.43987-0.28463-0.70098-0.79036 0.17642c-0.04475-0.087-0.11056-0.15289-0.1529-0.24227l0.46105-0.65864-0.5269-0.52691-0.65865 0.46104c-0.08702-0.0658-0.15289-0.11056-0.24228-0.1529l0.17642-0.79036-0.70098-0.28463-0.43988 0.67981c-0.08703-0.0212-0.17642-0.0448-0.28463-0.0658l-0.15291-0.79036h-0.74566l-0.1529 0.79036c-0.08703 0.0212-0.19759 0.0447-0.28463 0.0658l-0.43988-0.67981-0.70098 0.28463 0.17642 0.79036c-0.08703 0.0447-0.15289 0.11056-0.24228 0.1529l-0.65864-0.46104-0.52691 0.54808 0.46104 0.65864c-0.06585 0.087-0.11056 0.15289-0.1529 0.24228l-0.79036-0.17643-0.28698 0.70098 0.67981 0.43988c-0.02116 0.087-0.04469 0.17642-0.06585 0.28462l-0.79037 0.1529v0.74567l0.79037 0.15291c0.02116 0.087 0.04469 0.19758 0.06585 0.28463l-0.67981 0.43986 0.28463 0.70099 0.79036-0.17642c0.04469 0.087 0.11056 0.15289 0.1529 0.24226l-0.46105 0.65867 0.52691 0.52689 0.65864-0.46105c0.08702 0.0658 0.15289 0.11057 0.24229 0.15291l-0.17642 0.79035 0.70098 0.28464 0.43988-0.67981c0.08702 0.0212 0.17642 0.0447 0.28463 0.0658l0.15289 0.79037h0.74567l0.15289-0.79037c0.08702-0.0212 0.19759-0.0448 0.28463-0.0658l0.43988 0.67981 0.70098-0.28464-0.17642-0.79035c0.08702-0.0448 0.15289-0.11057 0.24229-0.15291l0.65864 0.46105 0.5269-0.52689-0.46104-0.65867c0.06583-0.087 0.11055-0.15288 0.15289-0.24226l0.79036 0.17642 0.28463-0.70099-0.67981-0.43986c0.02118-0.087 0.04475-0.17643 0.06583-0.28463zm-4.1471 1.2726c-0.89857 0-1.6442-0.72449-1.6442-1.6442 0-0.91973 0.7245-1.6442 1.6442-1.6442s1.6442 0.72451 1.6442 1.6442c0 0.91975-0.74332 1.6442-1.6442 1.6442z" opacity="0" stroke-width=".023523"/>
<path d="m92.789 127.5c-2.2731 0-4.1215-1.8484-4.1215-4.1215 0-2.273 1.8484-4.1215 4.1215-4.1215 2.2731 0 4.1215 1.8484 4.1215 4.1215 0 2.2731-1.8484 4.1215-4.1215 4.1215" fill="url(#h)"/>
<path d="m92.789 127.27c-2.149 0-3.8969-1.7479-3.8969-3.8969s1.7479-3.8969 3.8969-3.8969c2.149 0 3.8969 1.7479 3.8969 3.8969s-1.7479 3.8969-3.8969 3.8969" fill="url(#f)"/>
<path d="m92.789 126.01c-1.4547 0-2.6379-1.1832-2.6379-2.6379 0-1.4547 1.1832-2.6378 2.6379-2.6378 1.4547 0 2.6378 1.1832 2.6378 2.6378 0 1.4547-1.1832 2.6379-2.6378 2.6379" fill="url(#i)"/>
<path d="m94.607 123.38c0 1.0038-0.81444 1.8182-1.8182 1.8182-1.0038 0-1.8182-0.81446-1.8182-1.8182s0.81444-1.8182 1.8182-1.8182c1.0038 0 1.8182 0.81442 1.8182 1.8182" fill="url(#e)"/>
<path d="m94.451 123.38c0 0.91779-0.74468 1.6625-1.6625 1.6625-0.9178 0-1.6625-0.74469-1.6625-1.6625 0-0.9178 0.74468-1.6625 1.6625-1.6625 0.9178 0 1.6625 0.74466 1.6625 1.6625"/>
</g>
<g transform="translate(-82.338 -9.7379)">
<path d="m92.789 127.5c-2.2731 0-4.1215-1.8484-4.1215-4.1215 0-2.273 1.8484-4.1215 4.1215-4.1215 2.273 0 4.1215 1.8484 4.1215 4.1215 0 2.2731-1.8484 4.1215-4.1215 4.1215" fill="url(#g)"/>
<path d="m96.936 123.74v-0.74566l-0.79036-0.15292c-0.02118-0.087-0.04475-0.19757-0.06583-0.28462l0.6798-0.43987-0.28463-0.70098-0.79036 0.17642c-0.04475-0.087-0.11056-0.15289-0.1529-0.24227l0.46105-0.65864-0.5269-0.52691-0.65865 0.46104c-0.08702-0.0658-0.15289-0.11056-0.24228-0.1529l0.17642-0.79036-0.70098-0.28463-0.43988 0.67981c-0.08703-0.0212-0.17642-0.0448-0.28463-0.0658l-0.15291-0.79036h-0.74566l-0.1529 0.79036c-0.08703 0.0212-0.19759 0.0447-0.28463 0.0658l-0.43988-0.67981-0.70098 0.28463 0.17642 0.79036c-0.08703 0.0447-0.15289 0.11056-0.24228 0.1529l-0.65864-0.46104-0.52691 0.54808 0.46104 0.65864c-0.06585 0.087-0.11056 0.15289-0.1529 0.24228l-0.79036-0.17643-0.28698 0.70098 0.67981 0.43988c-0.02116 0.087-0.04469 0.17642-0.06585 0.28462l-0.79037 0.1529v0.74567l0.79037 0.15291c0.02116 0.087 0.04469 0.19758 0.06585 0.28463l-0.67981 0.43986 0.28463 0.70099 0.79036-0.17642c0.04469 0.087 0.11056 0.15289 0.1529 0.24226l-0.46105 0.65867 0.52691 0.52689 0.65864-0.46105c0.08702 0.0658 0.15289 0.11057 0.24229 0.15291l-0.17642 0.79035 0.70098 0.28464 0.43988-0.67981c0.08702 0.0212 0.17642 0.0447 0.28463 0.0658l0.15289 0.79037h0.74567l0.15289-0.79037c0.08702-0.0212 0.19759-0.0448 0.28463-0.0658l0.43988 0.67981 0.70098-0.28464-0.17642-0.79035c0.08702-0.0448 0.15289-0.11057 0.24229-0.15291l0.65864 0.46105 0.5269-0.52689-0.46104-0.65867c0.06583-0.087 0.11055-0.15288 0.15289-0.24226l0.79036 0.17642 0.28463-0.70099-0.67981-0.43986c0.02118-0.087 0.04475-0.17643 0.06583-0.28463zm-4.1471 1.2726c-0.89857 0-1.6442-0.72449-1.6442-1.6442 0-0.91973 0.7245-1.6442 1.6442-1.6442s1.6442 0.72451 1.6442 1.6442c0 0.91975-0.74332 1.6442-1.6442 1.6442z" opacity="0" stroke-width=".023523"/>
<path d="m92.789 127.5c-2.2731 0-4.1215-1.8484-4.1215-4.1215 0-2.273 1.8484-4.1215 4.1215-4.1215 2.2731 0 4.1215 1.8484 4.1215 4.1215 0 2.2731-1.8484 4.1215-4.1215 4.1215" fill="url(#h)"/>
<path d="m92.789 127.27c-2.149 0-3.8969-1.7479-3.8969-3.8969s1.7479-3.8969 3.8969-3.8969c2.149 0 3.8969 1.7479 3.8969 3.8969s-1.7479 3.8969-3.8969 3.8969" fill="url(#f)"/>
<path d="m92.789 126.01c-1.4547 0-2.6379-1.1832-2.6379-2.6379 0-1.4547 1.1832-2.6378 2.6379-2.6378 1.4547 0 2.6378 1.1832 2.6378 2.6378 0 1.4547-1.1832 2.6379-2.6378 2.6379" fill="url(#i)"/>
<path d="m94.607 123.38c0 1.0038-0.81444 1.8182-1.8182 1.8182-1.0038 0-1.8182-0.81446-1.8182-1.8182s0.81444-1.8182 1.8182-1.8182c1.0038 0 1.8182 0.81442 1.8182 1.8182" fill="url(#e)"/>
<path d="m94.451 123.38c0 0.91779-0.74468 1.6625-1.6625 1.6625-0.9178 0-1.6625-0.74469-1.6625-1.6625 0-0.9178 0.74468-1.6625 1.6625-1.6625 0.9178 0 1.6625 0.74466 1.6625 1.6625"/>
</g>
<g transform="translate(-85.169 -.60974)">
<path d="m92.789 127.5c-2.2731 0-4.1215-1.8484-4.1215-4.1215 0-2.273 1.8484-4.1215 4.1215-4.1215 2.273 0 4.1215 1.8484 4.1215 4.1215 0 2.2731-1.8484 4.1215-4.1215 4.1215" fill="url(#g)"/>
<path d="m96.936 123.74v-0.74566l-0.79036-0.15292c-0.02118-0.087-0.04475-0.19757-0.06583-0.28462l0.6798-0.43987-0.28463-0.70098-0.79036 0.17642c-0.04475-0.087-0.11056-0.15289-0.1529-0.24227l0.46105-0.65864-0.5269-0.52691-0.65865 0.46104c-0.08702-0.0658-0.15289-0.11056-0.24228-0.1529l0.17642-0.79036-0.70098-0.28463-0.43988 0.67981c-0.08703-0.0212-0.17642-0.0448-0.28463-0.0658l-0.15291-0.79036h-0.74566l-0.1529 0.79036c-0.08703 0.0212-0.19759 0.0447-0.28463 0.0658l-0.43988-0.67981-0.70098 0.28463 0.17642 0.79036c-0.08703 0.0447-0.15289 0.11056-0.24228 0.1529l-0.65864-0.46104-0.52691 0.54808 0.46104 0.65864c-0.06585 0.087-0.11056 0.15289-0.1529 0.24228l-0.79036-0.17643-0.28698 0.70098 0.67981 0.43988c-0.02116 0.087-0.04469 0.17642-0.06585 0.28462l-0.79037 0.1529v0.74567l0.79037 0.15291c0.02116 0.087 0.04469 0.19758 0.06585 0.28463l-0.67981 0.43986 0.28463 0.70099 0.79036-0.17642c0.04469 0.087 0.11056 0.15289 0.1529 0.24226l-0.46105 0.65867 0.52691 0.52689 0.65864-0.46105c0.08702 0.0658 0.15289 0.11057 0.24229 0.15291l-0.17642 0.79035 0.70098 0.28464 0.43988-0.67981c0.08702 0.0212 0.17642 0.0447 0.28463 0.0658l0.15289 0.79037h0.74567l0.15289-0.79037c0.08702-0.0212 0.19759-0.0448 0.28463-0.0658l0.43988 0.67981 0.70098-0.28464-0.17642-0.79035c0.08702-0.0448 0.15289-0.11057 0.24229-0.15291l0.65864 0.46105 0.5269-0.52689-0.46104-0.65867c0.06583-0.087 0.11055-0.15288 0.15289-0.24226l0.79036 0.17642 0.28463-0.70099-0.67981-0.43986c0.02118-0.087 0.04475-0.17643 0.06583-0.28463zm-4.1471 1.2726c-0.89857 0-1.6442-0.72449-1.6442-1.6442 0-0.91973 0.7245-1.6442 1.6442-1.6442s1.6442 0.72451 1.6442 1.6442c0 0.91975-0.74332 1.6442-1.6442 1.6442z" opacity="0" stroke-width=".023523"/>
<path d="m92.789 127.5c-2.2731 0-4.1215-1.8484-4.1215-4.1215 0-2.273 1.8484-4.1215 4.1215-4.1215 2.2731 0 4.1215 1.8484 4.1215 4.1215 0 2.2731-1.8484 4.1215-4.1215 4.1215" fill="url(#h)"/>
<path d="m92.789 127.27c-2.149 0-3.8969-1.7479-3.8969-3.8969s1.7479-3.8969 3.8969-3.8969c2.149 0 3.8969 1.7479 3.8969 3.8969s-1.7479 3.8969-3.8969 3.8969" fill="url(#f)"/>
<path d="m92.789 126.01c-1.4547 0-2.6379-1.1832-2.6379-2.6379 0-1.4547 1.1832-2.6378 2.6379-2.6378 1.4547 0 2.6378 1.1832 2.6378 2.6378 0 1.4547-1.1832 2.6379-2.6378 2.6379" fill="url(#i)"/>
<path d="m94.607 123.38c0 1.0038-0.81444 1.8182-1.8182 1.8182-1.0038 0-1.8182-0.81446-1.8182-1.8182s0.81444-1.8182 1.8182-1.8182c1.0038 0 1.8182 0.81442 1.8182 1.8182" fill="url(#e)"/>
<path d="m94.451 123.38c0 0.91779-0.74468 1.6625-1.6625 1.6625-0.9178 0-1.6625-0.74469-1.6625-1.6625 0-0.9178 0.74468-1.6625 1.6625-1.6625 0.9178 0 1.6625 0.74466 1.6625 1.6625"/>
</g>
</g>
<g display="none">
<text x="-52.255207" y="22.489584" font-family="sans-serif" font-size="3.5278px" stroke-width=".26458" style="line-height:1.25" xml:space="preserve"><tspan x="-52.255207" y="22.489584" stroke-width=".26458"/></text>
</g>
<g display="none" fill-rule="evenodd">
<circle cx="5.2917" cy="5.2917" r="3.5307" display="inline" fill="#f00" opacity=".35018" style="paint-order:normal"/>
<circle cx="10.451" cy="11.351" r="3.5307" display="inline" fill="#f00" opacity=".35018" style="paint-order:normal"/>
<circle cx="5.2917" cy="17.41" r="3.5307" display="inline" fill="#f00" opacity=".35018" style="paint-order:normal"/>
<circle cx="10.451" cy="23.469" r="3.5307" display="inline" fill="#f00" opacity=".35018" style="paint-order:normal"/>
<circle cx="5.2917" cy="29.528" r="3.5307" display="inline" fill="#f00" opacity=".35018" style="paint-order:normal"/>
<circle cx="10.451" cy="35.586" r="3.5307" display="inline" fill="#f00" opacity=".35018" style="paint-order:normal"/>
<circle cx="5.2917" cy="41.645" r="3.5307" display="inline" fill="#f00" opacity=".35018" style="paint-order:normal"/>
<circle cx="10.451" cy="47.704" r="3.5307" display="inline" fill="#f00" opacity=".35018" style="paint-order:normal"/>
<circle cx="5.2917" cy="53.763" r="3.5307" display="inline" fill="#f00" opacity=".35018" style="paint-order:normal"/>
<circle cx="10.451" cy="59.822" r="3.5307" display="inline" fill="#f00" opacity=".35018" style="paint-order:normal"/>
<circle cx="5.2917" cy="65.881" r="3.5307" display="inline" fill="#f00" opacity=".35018" style="paint-order:normal"/>
<circle cx="10.451" cy="71.94" r="3.5307" display="inline" fill="#f00" opacity=".35018" style="paint-order:normal"/>
<circle cx="5.2917" cy="77.999" r="3.5307" display="inline" fill="#f00" opacity=".35018" style="paint-order:normal"/>
<circle cx="10.451" cy="84.058" r="3.5307" display="inline" fill="#f00" opacity=".35018" style="paint-order:normal"/>
<circle cx="5.2917" cy="90.117" r="3.5307" display="inline" fill="#f00" opacity=".35018" style="paint-order:normal"/>
<circle cx="10.451" cy="96.176" r="3.5307" display="inline" fill="#f00" opacity=".35018" style="paint-order:normal"/>
<circle transform="scale(1,-1)" cx="5.2917" cy="-104.93" r="4.0715" display="inline" fill="#00f" fill-opacity=".34902" opacity=".35018" style="paint-order:normal"/>
<circle transform="scale(1,-1)" cx="10.451" cy="-112.98" r="4.0715" display="inline" fill="#00f" fill-opacity=".34902" opacity=".35018" style="paint-order:normal"/>
<circle transform="scale(1,-1)" cx="7.6199" cy="-122.63" r="4.0715" display="inline" fill="#00f" fill-opacity=".34902" opacity=".35018" style="paint-order:normal"/>
</g>
</svg>
