<svg xmlns="http://www.w3.org/2000/svg" xmlns:xlink="http://www.w3.org/1999/xlink" width="96" height="485.673" viewBox="0 0 25.4 128.501" xmlns:v="https://vecta.io/nano"><style><![CDATA[.B{opacity:0}.C{filter:url(#I)}.D{fill:#e7e7e7}.E{fill:#e9e9e9}.F{fill-rule:evenodd}]]></style><defs><linearGradient id="A" x1="23.34" y1="56.326" x2="35.119" y2="2.957" xlink:href="#w"><stop offset="0"/><stop offset="1" stop-color="#191918"/></linearGradient><linearGradient id="B" x1="9.041" y1="460.445" x2="116.163" y2="407.896" xlink:href="#w"><stop offset="0"/><stop offset="1" stop-color="#393939"/></linearGradient><linearGradient id="C" gradientTransform="matrix(1.6176607,0,0,0.34017548,-4.9479002,111.54791)" x1="9.882" y1="65.398" x2="24.769" y2="3.846" xlink:href="#w"><stop offset="0" stop-color="#eaeaea"/><stop offset="1" stop-color="#f5f5f4"/></linearGradient><linearGradient id="D" xlink:href="#w"><stop offset="0"/><stop offset="1" stop-color="#afafaf"/></linearGradient><linearGradient id="E" xlink:href="#w"><stop offset="0"/><stop offset="1" stop-color="#fff"/></linearGradient><linearGradient id="F" xlink:href="#w"><stop offset="0" stop-color="#fff"/><stop offset="1" stop-color="#bcbcbc"/></linearGradient><linearGradient id="G" xlink:href="#w"><stop offset="0" stop-color="#fff"/><stop offset="1"/></linearGradient><linearGradient id="H" xlink:href="#w"><stop offset="0" stop-color="#a2a2a2"/><stop offset="1" stop-color="#515151"/></linearGradient><filter id="I" x="0" width="1" y="0" height="1" color-interpolation-filters="sRGB"><feGaussianBlur stdDeviation="0"/></filter><linearGradient xlink:href="#H" id="J" x1="104.167" y1="46.172" x2="104.167" y2="55.138"/><linearGradient xlink:href="#G" id="K" x1="104.187" y1="46.697" x2="104.187" y2="57.243"/><linearGradient xlink:href="#F" id="L" x1="104.155" y1="46.523" x2="104.069" y2="54.432"/><linearGradient xlink:href="#E" id="M" x1="104.253" y1="47.342" x2="104.203" y2="51.191"/><linearGradient xlink:href="#D" id="N" x1="104.141" y1="48.646" x2="104.141" y2="52.764"/><linearGradient xlink:href="#H" id="O" x1="7.137" y1="92.979" x2="7.137" y2="101.945"/><linearGradient xlink:href="#G" id="P" x1="7.156" y1="93.134" x2="7.156" y2="102.456"/><linearGradient xlink:href="#F" id="Q" x1="7.122" y1="92.995" x2="7.028" y2="101.546"/><linearGradient xlink:href="#E" id="R" x1="7.242" y1="93.17" x2="7.178" y2="98.157"/><linearGradient xlink:href="#D" id="S" x1="104.141" y1="48.647" x2="104.141" y2="52.764"/><linearGradient xlink:href="#H" id="T" x1="18.273" y1="92.979" x2="18.273" y2="101.945"/><linearGradient xlink:href="#F" id="U" x1="7.121" y1="92.995" x2="7.028" y2="101.546"/><linearGradient xlink:href="#E" id="V" x1="7.241" y1="93.17" x2="7.177" y2="98.157"/><linearGradient xlink:href="#D" id="W" x1="104.14" y1="48.647" x2="104.14" y2="52.764"/><linearGradient id="X" x1="92.789" y1="118.656" x2="92.789" y2="128.823" xlink:href="#w"><stop offset="0" stop-color="#d6d6d6"/><stop offset="1" stop-color="#363636"/></linearGradient><linearGradient xlink:href="#H" id="Y" x1="92.77" y1="118.893" x2="92.77" y2="127.86"/><linearGradient xlink:href="#G" id="Z" x1="92.789" y1="118.656" x2="92.789" y2="131.913"/><linearGradient xlink:href="#F" id="a" x1="92.751" y1="118.491" x2="92.649" y2="127.843"/><linearGradient xlink:href="#E" id="b" x1="7.241" y1="93.171" x2="7.177" y2="98.157"/><linearGradient xlink:href="#D" id="c" x1="104.141" y1="48.647" x2="104.141" y2="52.765"/><linearGradient xlink:href="#e" id="d" x1="17.496" y1="72.341" x2="17.434" y2="81.779"/><linearGradient id="e" xlink:href="#w"><stop offset="0" stop-color="#fff" stop-opacity=".697"/><stop offset="1" stop-color="#fff" stop-opacity=".1"/></linearGradient><linearGradient xlink:href="#e" id="f" x1="17.496" y1="72.34" x2="17.434" y2="81.779"/><path id="g" d="M108.334 51.017v-.746l-.79-.153-.066-.285.68-.44-.285-.701-.79.176c-.045-.087-.111-.153-.153-.242l.461-.659-.527-.527-.659.461a1.3 1.3 0 0 0-.242-.153l.176-.79-.701-.285-.44.68-.285-.066-.153-.79h-.746l-.153.79-.285.066-.44-.68-.701.285.176.79c-.087.045-.153.111-.242.153l-.659-.461-.527.548.461.659a1.3 1.3 0 0 0-.153.242l-.79-.176-.287.701.68.44-.066.285-.79.153v.746l.79.153.066.285-.68.44.285.701.79-.176c.045.087.111.153.153.242l-.461.659.527.527.659-.461a1.3 1.3 0 0 0 .242.153l-.176.79.701.285.44-.68.285.066.153.79h.746l.153-.79.285-.066.44.68.701-.285-.176-.79c.087-.045.153-.111.242-.153l.659.461.527-.527-.461-.659a1.3 1.3 0 0 0 .153-.242l.79.176.285-.701-.68-.44.066-.285zm-4.147 1.273c-.899 0-1.644-.724-1.644-1.644a1.63 1.63 0 1 1 3.288 0 1.64 1.64 0 0 1-1.644 1.644z"/><path id="h" d="M104.187 54.11a3.46 3.46 0 0 1-3.456-3.456 3.46 3.46 0 0 1 3.456-3.456 3.46 3.46 0 0 1 3.456 3.456 3.46 3.46 0 0 1-3.456 3.456"/><path id="i" d="M104.187 53.95a3.3 3.3 0 0 1-3.296-3.296 3.3 3.3 0 0 1 3.296-3.296 3.3 3.3 0 0 1 3.296 3.296 3.3 3.3 0 0 1-3.296 3.296"/><path id="j" d="M104.187 52.691a2.04 2.04 0 0 1-2.036-2.037 2.04 2.04 0 0 1 2.036-2.036 2.04 2.04 0 0 1 2.037 2.036 2.04 2.04 0 0 1-2.037 2.037"/><path id="k" d="M106.005 50.655a1.82 1.82 0 0 1-1.818 1.818 1.82 1.82 0 0 1-1.818-1.818 1.82 1.82 0 0 1 1.818-1.818 1.82 1.82 0 0 1 1.818 1.818"/><path id="l" d="M105.849 50.655c0 .918-.745 1.662-1.662 1.662s-1.662-.745-1.662-1.662.745-1.662 1.662-1.662 1.662.745 1.662 1.662"/><path id="m" d="M7.156 101.767a4.31 4.31 0 0 1-4.305-4.305 4.31 4.31 0 0 1 4.305-4.305 4.31 4.31 0 0 1 4.305 4.305 4.31 4.31 0 0 1-4.305 4.305"/><path id="n" d="M7.156 101.241c-2.084 0-3.779-1.695-3.779-3.779s1.695-3.779 3.779-3.779 3.779 1.695 3.779 3.779-1.695 3.779-3.779 3.779"/><path id="o" d="M7.156 101.025a3.57 3.57 0 0 1-3.563-3.563 3.57 3.57 0 0 1 3.563-3.563 3.57 3.57 0 0 1 3.563 3.563 3.57 3.57 0 0 1-3.563 3.563"/><path id="p" d="M7.156 100.1a2.64 2.64 0 0 1-2.638-2.638 2.64 2.64 0 0 1 2.638-2.638 2.64 2.64 0 0 1 2.638 2.638 2.64 2.64 0 0 1-2.638 2.638"/><path id="q" d="M92.789 127.498c-2.273 0-4.121-1.848-4.121-4.121s1.848-4.121 4.121-4.121 4.121 1.848 4.121 4.121-1.848 4.121-4.121 4.121"/><path id="r" d="M143.594 64.035c-.055-.012-.11-.019-.167-.019s-.112.007-.167.019v5.044h.333zm0 0"/><path id="s" d="M18.541 7.846a8.46 8.46 0 0 0-.936.062v8.467h2.035V7.908a8.46 8.46 0 0 0-1.018-.062h-.082z"/><path id="t" d="M17.436 72.281a4.82 4.82 0 0 0-4.819 4.82 4.82 4.82 0 0 0 4.819 4.819 4.82 4.82 0 0 0 4.82-4.819 4.82 4.82 0 0 0-4.82-4.82zm.001.371a4.449 4.449 0 0 1 0 8.897 4.449 4.449 0 1 1 0-8.897z"/><path id="u" d="M11.073 123.995v-2.216h1.508v.429h-1.026v.454h.879v.425h-.879v.479h1.026v.429z"/><path id="v" d="M4.257 105.17h-.016q-.025.168-.171.279-.146.111-.397.111-.191 0-.356-.073-.165-.073-.289-.216-.124-.143-.194-.356-.07-.213-.07-.492 0-.279.073-.495.073-.216.203-.362.133-.146.317-.222.184-.076.41-.076.298 0 .514.13.216.127.34.384l-.394.225q-.051-.13-.159-.219-.108-.092-.302-.092-.225 0-.359.13-.133.13-.133.41v.356q0 .276.133.41.133.13.359.13.089 0 .168-.019.079-.022.14-.064.06-.044.092-.105.035-.06.035-.143v-.111h-.413v-.403h.873v1.235h-.406z"/><linearGradient id="w" gradientUnits="userSpaceOnUse"/></defs><g transform="translate(-8.011 -5.676)"><g class="F"><path d="M8.011 113.479h25.293v20.776H8.011z" fill="url(#C)"/><path d="M8.011 5.676h25.293v90.758H8.011z" fill="url(#A)"/></g><path d="M0 351.027v19.193h59.094v-19.193zm0 51.014v19.193h59.094v-19.193zm0 50.002v34.193h59.094v-34.193z" transform="matrix(.264583 0 0 .264583 8.01071 5.675522)" fill="url(#B)" class="B"/><path d="M8.001 95.995h25.302v18.197H8.001z" fill="#bcbcbc" class="F"/></g><g transform="translate(-97.704 22.575)"><use xlink:href="#g" fill="url(#J)" class="B"/><use xlink:href="#h" fill="url(#K)"/><use xlink:href="#i" fill="url(#L)"/><use xlink:href="#j" fill="url(#M)"/><use xlink:href="#k" fill="url(#N)"/><use xlink:href="#l"/></g><g transform="translate(-97.704 .791)"><use xlink:href="#g" fill="url(#J)" class="B"/><use xlink:href="#h" fill="url(#K)"/><use xlink:href="#i" fill="url(#L)"/><use xlink:href="#j" fill="url(#M)"/><use xlink:href="#k" fill="url(#N)"/><use xlink:href="#l"/></g><g transform="translate(-97.704 -20.993)"><use xlink:href="#g" fill="url(#J)" class="B"/><use xlink:href="#h" fill="url(#K)"/><use xlink:href="#i" fill="url(#L)"/><use xlink:href="#j" fill="url(#M)"/><use xlink:href="#k" fill="url(#N)"/><use xlink:href="#l"/></g><g transform="translate(-97.704 -42.777)"><use xlink:href="#g" fill="url(#J)" class="B"/><use xlink:href="#h" fill="url(#K)"/><use xlink:href="#i" fill="url(#L)"/><use xlink:href="#j" fill="url(#M)"/><use xlink:href="#k" fill="url(#N)"/><use xlink:href="#l"/></g><use xlink:href="#m" fill="#e5e5e5"/><path d="M11.303 97.824v-.746l-.79-.153-.066-.285.68-.44-.285-.701-.79.176c-.045-.087-.111-.153-.153-.242l.461-.659-.527-.527-.659.461a1.3 1.3 0 0 0-.242-.153l.176-.79-.701-.285-.44.68-.285-.066-.153-.79h-.746l-.153.79-.285.066-.44-.68-.701.285.176.79c-.087.045-.153.111-.242.153l-.659-.461-.527.548.461.659c-.066.087-.111.153-.153.242l-.79-.176-.287.701.68.44-.066.285-.79.153v.746l.79.153.066.285-.68.44.285.701.79-.176c.045.087.111.153.153.242l-.461.659.527.527.659-.461a1.3 1.3 0 0 0 .242.153l-.176.79.701.285.44-.68.285.066.153.79h.746l.153-.79.285-.066.44.68.701-.285-.176-.79c.087-.045.153-.111.242-.153l.659.461.527-.527-.461-.659c.066-.087.111-.153.153-.242l.79.176.285-.701-.68-.44.066-.285zm-4.147 1.273c-.899 0-1.644-.724-1.644-1.644a1.63 1.63 0 0 1 1.644-1.644A1.63 1.63 0 0 1 8.8 97.452a1.64 1.64 0 0 1-1.644 1.644z" fill="url(#O)" class="B"/><use xlink:href="#n" fill="url(#P)"/><use xlink:href="#o" fill="url(#Q)"/><use xlink:href="#p" fill="url(#R)"/><use xlink:href="#k" x="-97.031" y="46.807" fill="url(#S)"/><use xlink:href="#l" x="-97.03" y="46.807"/><use xlink:href="#m" x="11.137" fill="#e5e5e5"/><path d="M22.44 97.824v-.746l-.79-.153-.066-.285.68-.44-.285-.701-.79.176c-.045-.087-.111-.153-.153-.242l.461-.659-.527-.527-.659.461a1.3 1.3 0 0 0-.242-.153l.176-.79-.701-.285-.44.68-.285-.066-.153-.79h-.746l-.153.79-.285.066-.44-.68-.701.285.176.79c-.087.045-.153.111-.242.153l-.659-.461-.527.548.461.659c-.066.087-.111.153-.153.242l-.79-.176-.287.701.68.44-.066.285-.79.153v.746l.79.153.066.285-.68.44.285.701.79-.176c.045.087.111.153.153.242l-.461.659.527.527.659-.461a1.3 1.3 0 0 0 .242.153l-.176.79.701.285.44-.68.285.066.153.79h.746l.153-.79.285-.066.44.68.701-.285-.176-.79c.087-.045.153-.111.242-.153l.659.461.527-.527-.461-.659c.066-.087.111-.153.153-.242l.79.176.285-.701-.68-.44.066-.285zm-4.147 1.273c-.899 0-1.644-.724-1.644-1.644a1.63 1.63 0 0 1 1.644-1.644 1.63 1.63 0 0 1 1.644 1.644 1.64 1.64 0 0 1-1.644 1.644z" fill="url(#T)" class="B"/><use xlink:href="#n" x="11.137" fill="url(#P)"/><use xlink:href="#o" x="11.137" fill="url(#U)"/><use xlink:href="#p" x="11.137" fill="url(#V)"/><use xlink:href="#k" x="-85.894" y="46.807" fill="url(#W)"/><use xlink:href="#l" x="-85.894" y="46.807"/><g transform="translate(-80.089 -7.557)"><use xlink:href="#q" fill="url(#X)"/><path d="M96.936 123.739v-.746l-.79-.153-.066-.285.68-.44-.285-.701-.79.176c-.045-.087-.111-.153-.153-.242l.461-.659-.527-.527-.659.461a1.3 1.3 0 0 0-.242-.153l.176-.79-.701-.285-.44.68-.285-.066-.153-.79h-.746l-.153.79-.285.066-.44-.68-.701.285.176.79c-.087.045-.153.111-.242.153l-.659-.461-.527.548.461.659c-.066.087-.111.153-.153.242l-.79-.176-.287.701.68.44-.066.285-.79.153v.746l.79.153.066.285-.68.44.285.701.79-.176c.045.087.111.153.153.242l-.461.659.527.527.659-.461a1.3 1.3 0 0 0 .242.153l-.176.79.701.285.44-.68.285.066.153.79h.746l.153-.79.285-.066.44.68.701-.285-.176-.79c.087-.045.153-.111.242-.153l.659.461.527-.527-.461-.659c.066-.087.111-.153.153-.242l.79.176.285-.701-.68-.44.066-.285zm-4.147 1.273c-.899 0-1.644-.724-1.644-1.644a1.63 1.63 0 1 1 3.288 0 1.64 1.64 0 0 1-1.644 1.644z" fill="url(#Y)" class="B"/><use xlink:href="#q" fill="url(#Z)"/><path d="M92.789 127.273a3.9 3.9 0 0 1-3.897-3.897 3.9 3.9 0 0 1 3.897-3.897 3.9 3.9 0 0 1 3.897 3.897 3.9 3.9 0 0 1-3.897 3.897" fill="url(#a)"/><use xlink:href="#p" x="85.633" y="25.914" fill="url(#b)"/><use xlink:href="#k" x="-11.398" y="72.721" fill="url(#c)"/><use xlink:href="#l" x="-11.398" y="72.721"/></g><g class="F"><circle cx="17.436" cy="77.101" r="4.919" class="D"/><use xlink:href="#r" transform="matrix(1.642141 0 0 .927904 -218.09238 13.067705)" class="C"/><circle cx="17.436" cy="55.484" r="4.919" class="D"/><use xlink:href="#r" transform="matrix(1.642141 0 0 .927904 -218.09238 -8.549295)" class="C"/><circle cx="17.436" cy="33.868" r="4.919" class="D"/><use xlink:href="#r" transform="matrix(1.642141 0 0 .927904 -218.09238 -30.165295)" class="C"/><circle cx="17.436" cy="12.251" r="4.919" class="D"/><use xlink:href="#r" transform="matrix(1.642141 0 0 .927904 -218.09238 -51.782295)" class="C"/><circle cx="6.482" cy="81.618" r="2.702" class="E"/><use xlink:href="#s" transform="matrix(.319308 0 0 .306072 .535684 76.627541)" class="C"/><circle cx="6.482" cy="59.834" r="2.702" class="E"/><use xlink:href="#s" transform="matrix(.319308 0 0 .306072 .535684 54.843541)" class="C"/><circle cx="6.482" cy="38.05" r="2.702" class="E"/><use xlink:href="#s" transform="matrix(.319308 0 0 .306072 .535684 33.059541)" class="C"/><circle cx="6.482" cy="16.266" r="2.702" class="E"/><use xlink:href="#s" transform="matrix(.319308 0 0 .306072 .535684 11.275541)" class="C"/><use xlink:href="#t" fill="url(#d)"/><use xlink:href="#t" y="-21.617" fill="url(#d)"/><use xlink:href="#t" y="-43.233" fill="url(#f)"/><use xlink:href="#t" y="-64.85" fill="url(#d)"/></g><path d="M3.592 123.995v-2.216H5.1v.429H4.075v.454h.879v.425h-.879v.479h1.026v.429zm3.001-1.047l-.213-.445h-.01v1.492h-.454v-2.216h.527l.606 1.048.213.445h.01v-1.492h.454v2.216h-.527zm2.533 1.047l-.714-2.216h.489l.33 1.064.175.695h.01l.168-.695.33-1.064h.473l-.721 2.216z"/><use xlink:href="#u"/><path d="M13.397 123.995v-2.216h.483v1.788h.845v.429zm2.841.039q-.219 0-.4-.073-.181-.073-.308-.216-.127-.146-.197-.359-.07-.216-.07-.498 0-.283.07-.495.07-.216.197-.359.127-.146.308-.219.181-.073.4-.073.219 0 .4.073.181.073.308.219.127.143.197.359.07.213.07.495 0 .283-.07.498-.07.213-.197.359-.127.143-.308.216-.181.073-.4.073zm0-.429q.219 0 .34-.143.124-.143.124-.41v-.33q0-.267-.124-.41-.121-.143-.34-.143-.219 0-.343.143-.121.143-.121.41v.33q0 .267.121.41.124.143.343.143zm1.775.39v-2.216h1.048q.156 0 .279.054.124.051.21.143.089.092.137.225.048.13.048.286 0 .159-.048.289-.048.13-.137.222-.086.092-.21.146-.124.051-.279.051h-.565v.8zm.483-1.219h.508q.108 0 .168-.054.064-.057.064-.165v-.14q0-.108-.064-.162-.06-.057-.168-.057h-.508z"/><use xlink:href="#u" x="9.42"/><path d="M17.958 21.695l-.159-.527h-.74l-.159.527h-.489l.73-2.216h.597l.721 2.216zm-.524-1.778h-.016l-.244.841h.508z" fill="#e8e8e8"/><use xlink:href="#v"/><path d="M6.896 105.522l-.159-.527h-.74l-.159.527H5.35l.73-2.216h.597l.721 2.216zm-.524-1.778h-.016l-.244.841h.508zm2.448-.009v1.788h-.483v-1.788h-.6v-.429H9.42v.429zm1.327 1.787v-2.216h1.508v.429H10.63v.454h.879v.425h-.879v.479h1.026v.429zm4.944-1.787v1.788h-.483v-1.788h-.6v-.429h1.683v.429zm1.809 1.787h-.483v-2.216h1.051q.152 0 .276.051.124.051.21.146.089.092.137.222.048.13.048.289 0 .225-.102.394-.098.168-.302.244l.435.87h-.537l-.387-.813H16.9zm.508-1.219q.108 0 .168-.054.064-.057.064-.165v-.14q0-.108-.064-.162-.06-.057-.168-.057H16.9v.578zm1.461 1.219v-.384h.286v-1.448h-.286v-.384h1.054v.384h-.286v1.448h.286v.384z"/><use xlink:href="#v" x="17.873"/><path d="M16.574 41.043h.835q.219 0 .4.07.181.07.308.21.127.137.197.346.07.206.07.483 0 .276-.07.486-.07.206-.197.346-.127.137-.308.206-.181.07-.4.07h-.835zm.835 1.788q.216 0 .34-.121.124-.121.124-.387v-.343q0-.267-.124-.387-.124-.121-.34-.121h-.352v1.359zm-.002 22.029q-.292 0-.495-.098-.203-.102-.346-.26l.317-.321q.225.254.556.254.178 0 .264-.073.086-.073.086-.194 0-.092-.051-.152-.051-.063-.206-.086l-.219-.029q-.352-.044-.518-.213-.162-.168-.162-.448 0-.149.057-.273.057-.124.162-.213.108-.089.26-.137.156-.051.352-.051.251 0 .441.079.191.079.327.232l-.321.324q-.079-.092-.194-.149-.111-.06-.283-.06-.162 0-.241.057-.079.057-.079.159 0 .114.06.165.064.051.203.073l.219.035q.343.054.508.213.165.156.165.444 0 .159-.057.292-.057.133-.168.229-.108.095-.27.149-.162.051-.368.051zm-.314 21.526h-.483V84.17h1.051q.152 0 .276.051.124.051.21.146.089.092.137.222.048.13.048.289 0 .225-.102.394-.098.168-.302.244l.435.87h-.537l-.387-.813h-.346zm.508-1.219q.108 0 .168-.054.064-.057.064-.165v-.14q0-.108-.064-.162-.06-.057-.168-.057h-.508v.578z" fill="#e8e8e8"/></svg>