<svg xmlns="http://www.w3.org/2000/svg" xmlns:xlink="http://www.w3.org/1999/xlink" width="57.6" height="485.673" viewBox="0 0 15.24 128.501" xmlns:v="https://vecta.io/nano"><style><![CDATA[.B{fill-rule:evenodd}.C{opacity:0}.D{fill:#e7e7e7}.E{filter:url(#S)}]]></style><defs><linearGradient id="A" x1="15.173" y1="57.358" x2="24.769" y2="3.817" xlink:href="#m"><stop offset="0"/><stop offset="1" stop-color="#191918"/></linearGradient><linearGradient id="B" x1="7.399" y1="139.043" x2="25.115" y2="85.725" xlink:href="#m"><stop offset="0" stop-color="#9fa5a4"/><stop offset="1" stop-color="#c8cccc"/></linearGradient><linearGradient id="C" x1="9.041" y1="460.445" x2="116.163" y2="407.896" xlink:href="#m"><stop offset="0"/><stop offset="1" stop-color="#393939"/></linearGradient><linearGradient id="D" gradientTransform="matrix(1,0,0,0.73873767,0,84.944197)" x1="9.882" y1="65.398" x2="24.769" y2="3.846" xlink:href="#m"><stop offset="0" stop-color="#eaeaea"/><stop offset="1" stop-color="#f5f5f4"/></linearGradient><linearGradient id="E" x1="92.789" y1="118.656" x2="92.789" y2="128.823" xlink:href="#m"><stop offset="0" stop-color="#d6d6d6"/><stop offset="1" stop-color="#363636"/></linearGradient><linearGradient xlink:href="#G" id="F" x1="92.77" y1="118.893" x2="92.77" y2="127.86"/><linearGradient id="G" xlink:href="#m"><stop offset="0" stop-color="#a2a2a2"/><stop offset="1" stop-color="#515151"/></linearGradient><linearGradient xlink:href="#I" id="H" x1="92.789" y1="118.656" x2="92.789" y2="131.913"/><linearGradient id="I" xlink:href="#m"><stop offset="0" stop-color="#fff"/><stop offset="1"/></linearGradient><linearGradient xlink:href="#K" id="J" x1="92.751" y1="118.491" x2="92.649" y2="127.843"/><linearGradient id="K" xlink:href="#m"><stop offset="0" stop-color="#fff"/><stop offset="1" stop-color="#bcbcbc"/></linearGradient><linearGradient xlink:href="#M" id="L" x1="92.874" y1="119.085" x2="92.81" y2="124.071"/><linearGradient id="M" xlink:href="#m"><stop offset="0"/><stop offset="1" stop-color="#fff"/></linearGradient><linearGradient xlink:href="#O" id="N" x1="92.743" y1="121.368" x2="92.743" y2="125.486"/><linearGradient id="O" xlink:href="#m"><stop offset="0"/><stop offset="1" stop-color="#afafaf"/></linearGradient><linearGradient xlink:href="#I" id="P" x1="92.789" y1="118.656" x2="92.789" y2="131.913"/><linearGradient xlink:href="#M" id="Q" x1="92.874" y1="119.085" x2="92.81" y2="124.071"/><linearGradient xlink:href="#O" id="R" x1="92.743" y1="121.368" x2="92.743" y2="125.486"/><filter id="S" x="0" width="1" y="0" height="1" color-interpolation-filters="sRGB"><feGaussianBlur stdDeviation="0"/></filter><linearGradient id="T" x1="17.538" y1="6.137" x2="17.477" y2="15.575" xlink:href="#m"><stop offset="0" stop-color="#fff" stop-opacity=".697"/><stop offset="1" stop-color="#fff" stop-opacity=".1"/></linearGradient><linearGradient xlink:href="#G" id="U" x1="7.137" y1="92.979" x2="7.137" y2="101.945"/><linearGradient xlink:href="#I" id="V" x1="7.156" y1="93.134" x2="7.156" y2="102.456"/><linearGradient xlink:href="#K" id="W" x1="7.122" y1="92.995" x2="7.028" y2="101.546"/><linearGradient xlink:href="#M" id="X" x1="92.875" y1="119.084" x2="92.811" y2="124.071"/><linearGradient xlink:href="#O" id="Y" x1="92.743" y1="121.368" x2="92.743" y2="125.485"/><path id="Z" d="M92.789 127.498c-2.273 0-4.121-1.848-4.121-4.121s1.848-4.121 4.121-4.121 4.121 1.848 4.121 4.121-1.848 4.121-4.121 4.121"/><path id="a" d="M96.936 123.739v-.746l-.79-.153-.066-.285.68-.44-.285-.701-.79.176c-.045-.087-.111-.153-.153-.242l.461-.659-.527-.527-.659.461a1.3 1.3 0 0 0-.242-.153l.176-.79-.701-.285-.44.68-.285-.066-.153-.79h-.746l-.153.79-.285.066-.44-.68-.701.285.176.79c-.087.045-.153.111-.242.153l-.659-.461-.527.548.461.659c-.066.087-.111.153-.153.242l-.79-.176-.287.701.68.44-.066.285-.79.153v.746l.79.153.066.285-.68.44.285.701.79-.176c.045.087.111.153.153.242l-.461.659.527.527.659-.461a1.3 1.3 0 0 0 .242.153l-.176.79.701.285.44-.68.285.066.153.79h.746l.153-.79.285-.066.44.68.701-.285-.176-.79c.087-.045.153-.111.242-.153l.659.461.527-.527-.461-.659c.066-.087.111-.153.153-.242l.79.176.285-.701-.68-.44.066-.285zm-4.147 1.273c-.899 0-1.644-.724-1.644-1.644a1.63 1.63 0 1 1 3.288 0 1.64 1.64 0 0 1-1.644 1.644z"/><path id="b" d="M92.789 127.273a3.9 3.9 0 0 1-3.897-3.897 3.9 3.9 0 0 1 3.897-3.897 3.9 3.9 0 0 1 3.897 3.897 3.9 3.9 0 0 1-3.897 3.897"/><path id="c" d="M92.789 126.014a2.64 2.64 0 0 1-2.638-2.638 2.64 2.64 0 0 1 2.638-2.638 2.64 2.64 0 0 1 2.638 2.638 2.64 2.64 0 0 1-2.638 2.638"/><path id="d" d="M94.607 123.376a1.82 1.82 0 0 1-1.818 1.818 1.82 1.82 0 0 1-1.818-1.818 1.82 1.82 0 0 1 1.818-1.818 1.82 1.82 0 0 1 1.818 1.818"/><path id="e" d="M94.451 123.376c0 .918-.745 1.662-1.662 1.662s-1.662-.745-1.662-1.662.745-1.662 1.662-1.662 1.662.745 1.662 1.662"/><path id="f" d="M7.156 101.767a4.31 4.31 0 0 1-4.305-4.305 4.31 4.31 0 0 1 4.305-4.305 4.31 4.31 0 0 1 4.305 4.305 4.31 4.31 0 0 1-4.305 4.305"/><path id="g" d="M11.303 97.824v-.746l-.79-.153-.066-.285.68-.44-.285-.701-.79.176c-.045-.087-.111-.153-.153-.242l.461-.659-.527-.527-.659.461a1.3 1.3 0 0 0-.242-.153l.176-.79-.701-.285-.44.68-.285-.066-.153-.79h-.746l-.153.79-.285.066-.44-.68-.701.285.176.79c-.087.045-.153.111-.242.153l-.659-.461-.527.548.461.659c-.066.087-.111.153-.153.242l-.79-.176-.287.701.68.44-.066.285-.79.153v.746l.79.153.066.285-.68.44.285.701.79-.176c.045.087.111.153.153.242l-.461.659.527.527.659-.461a1.3 1.3 0 0 0 .242.153l-.176.79.701.285.44-.68.285.066.153.79h.746l.153-.79.285-.066.44.68.701-.285-.176-.79c.087-.045.153-.111.242-.153l.659.461.527-.527-.461-.659c.066-.087.111-.153.153-.242l.79.176.285-.701-.68-.44.066-.285zm-4.147 1.273c-.899 0-1.644-.724-1.644-1.644a1.63 1.63 0 0 1 1.644-1.644A1.63 1.63 0 0 1 8.8 97.452a1.64 1.64 0 0 1-1.644 1.644z"/><path id="h" d="M7.156 101.241c-2.084 0-3.779-1.695-3.779-3.779s1.695-3.779 3.779-3.779 3.779 1.695 3.779 3.779-1.695 3.779-3.779 3.779"/><path id="i" d="M7.156 101.025a3.57 3.57 0 0 1-3.563-3.563 3.57 3.57 0 0 1 3.563-3.563 3.57 3.57 0 0 1 3.563 3.563 3.57 3.57 0 0 1-3.563 3.563"/><path id="j" d="M143.594 64.035c-.055-.012-.11-.019-.167-.019s-.112.007-.167.019v5.044h.333zm0 0"/><path id="k" d="M17.478 6.077a4.82 4.82 0 0 0-4.819 4.82 4.82 4.82 0 0 0 4.819 4.819 4.82 4.82 0 0 0 4.82-4.819 4.82 4.82 0 0 0-4.82-4.82zm.001.371a4.449 4.449 0 0 1 0 8.897 4.449 4.449 0 1 1 0-8.897z"/><path id="l" d="M3.383 109.831l-.159-.527h-.74l-.159.527h-.489l.73-2.216h.597l.721 2.216zm-.524-1.778h-.016l-.244.841h.508z"/><linearGradient id="m" gradientUnits="userSpaceOnUse"/></defs><g transform="translate(-8.011 -5.676)"><path d="M8.104 5.769h15.581v128.313H8.104zm0 0" fill="url(#B)"/><path d="M8.011 89.137h15.635v45.117H8.011z" fill="url(#D)" class="B"/><path d="M8.011 67.543h15.635V83.1H8.011z" fill="#2bc0e6"/><path d="M8.011 5.676h15.635v62.051H8.011z" fill="url(#A)" class="B"/><path d="M0 351.027v19.193h59.094v-19.193zm0 51.014v19.193h59.094v-19.193zm0 50.002v34.193h59.094v-34.193z" transform="matrix(.264583 0 0 .264583 8.01071 5.675522)" fill="url(#C)" class="C"/><path d="M8.011 82.561h15.635v6.642H8.011z" fill="#bcbcbc"/><path d="M14.971 80.565l.408.12 1.802-6.118-.408-.12z" fill="#fff"/></g><g transform="translate(-85.169 -7.955)"><use xlink:href="#Z" fill="url(#E)"/><use xlink:href="#a" fill="url(#F)" class="C"/><use xlink:href="#Z" fill="url(#H)"/><use xlink:href="#b" fill="url(#J)"/><use xlink:href="#c" fill="url(#L)"/><use xlink:href="#d" fill="url(#N)"/><use xlink:href="#e"/></g><g transform="translate(-85.169 -21.32)"><use xlink:href="#Z" fill="url(#E)"/><use xlink:href="#a" fill="url(#F)" class="C"/><use xlink:href="#Z" fill="url(#P)"/><use xlink:href="#b" fill="url(#J)"/><use xlink:href="#c" fill="url(#Q)"/><use xlink:href="#d" fill="url(#R)"/><use xlink:href="#e"/></g><g transform="translate(-85.169 -34.82)"><use xlink:href="#Z" fill="url(#E)"/><use xlink:href="#a" fill="url(#F)" class="C"/><use xlink:href="#Z" fill="url(#P)"/><use xlink:href="#b" fill="url(#J)"/><use xlink:href="#c" fill="url(#Q)"/><use xlink:href="#d" fill="url(#R)"/><use xlink:href="#e"/></g><g transform="translate(-1.477 -19.796)"><use xlink:href="#f" fill="#e5e5e5"/><use xlink:href="#g" fill="url(#U)" class="C"/><use xlink:href="#h" fill="url(#V)"/><use xlink:href="#i" fill="url(#W)"/><use xlink:href="#c" x="-85.633" y="-25.914" fill="url(#X)"/><use xlink:href="#d" x="-85.633" y="-25.914" fill="url(#Y)"/><use xlink:href="#e" x="-85.632" y="-25.914"/></g><g transform="translate(2.605 -29.972)"><use xlink:href="#f" fill="#e5e5e5"/><use xlink:href="#g" fill="url(#U)" class="C"/><use xlink:href="#h" fill="url(#V)"/><use xlink:href="#i" fill="url(#W)"/><use xlink:href="#c" x="-85.633" y="-25.914" fill="url(#X)"/><use xlink:href="#d" x="-85.633" y="-25.914" fill="url(#Y)"/><use xlink:href="#e" x="-85.632" y="-25.914"/></g><g transform="translate(-10.009 41.952)" class="B"><circle cx="17.479" cy="10.896" r="4.919" class="D"/><use xlink:href="#j" transform="matrix(1.642141 0 0 .927904 -218.04998 -53.13657)" class="E"/><use xlink:href="#k" fill="url(#T)"/></g><g transform="translate(-9.94 26.983)" class="B"><circle cx="17.479" cy="10.896" r="4.919" class="D"/><use xlink:href="#j" transform="matrix(1.642141 0 0 .927904 -218.04998 -53.13657)" class="E"/><use xlink:href="#k" fill="url(#T)"/></g><g transform="translate(-9.94 12.014)" class="B"><circle cx="17.479" cy="10.896" r="4.919" class="D"/><use xlink:href="#j" transform="matrix(1.642141 0 0 .927904 -218.04998 -53.13657)" class="E"/><use xlink:href="#k" fill="url(#T)"/></g><g transform="translate(-9.94 -2.955)" class="B"><circle cx="17.479" cy="10.896" r="4.919" class="D"/><use xlink:href="#j" transform="matrix(1.642141 0 0 .927904 -218.04998 -53.13657)" class="E"/><use xlink:href="#k" fill="url(#T)"/></g><path d="M4.745 66.984H3.708l-.89-1.364H2.8l-.867 1.364H.966l1.321-1.916-1.256-1.788h1.044l.802 1.252h.018l.814-1.252h.967l-1.268 1.804z"/><use xlink:href="#l"/><path d="M5.266 108.783l-.213-.445h-.01v1.492H4.59v-2.216h.527l.606 1.048.213.445h.01v-1.492H6.4v2.216h-.527zm3.426.696h-.016q-.025.168-.171.279-.146.111-.397.111-.191 0-.356-.073-.165-.073-.289-.216-.124-.143-.194-.356-.07-.213-.07-.492 0-.279.073-.495.073-.216.203-.362.133-.146.317-.222.184-.076.41-.076.298 0 .514.13.216.127.34.384l-.394.225q-.051-.13-.159-.219-.108-.092-.302-.092-.225 0-.359.13-.133.13-.133.41v.356q0 .276.133.41.133.13.359.13.089 0 .168-.019.079-.022.14-.064.06-.044.092-.105.035-.06.035-.143v-.111h-.413v-.403h.873v1.235H8.69zm1.273.352v-2.216h.483v1.788h.845v.429zm2.08 0v-2.216h1.508v.429h-1.026v.454h.879v.425h-.879v.479h1.026v.429zM1.996 96.571v-2.216h1.508v.429H2.479v.454h.879v.425h-.879v.479h1.026v.429zm2.324 0v-2.216h.483v1.788h.845v.429zm2.08 0v-2.216h1.508v.429H6.883v.454h.879v.425h-.879v.479h1.026v.429zm2.838 0l-.714-2.216h.489l.33 1.064.175.695h.01l.168-.695.33-1.064h.473l-.721 2.216z"/><use xlink:href="#l" x="8.996" y="-13.26"/><path d="M13.896 96.606q-.143 0-.213-.07-.067-.073-.067-.184v-.064q0-.111.067-.181.07-.073.213-.073.143 0 .21.073.07.07.07.181v.064q0 .111-.07.184-.067.07-.21.07zm-11.628 26.52l-.502-2.216h.476l.21 1.064.117.616h.01l.14-.616.244-1.064h.527l.248 1.064.137.616h.01l.117-.616.213-1.064h.457l-.514 2.216h-.549l-.279-1.2-.108-.486h-.01l-.111.486-.279 1.2zm3.052 0v-.384h.286v-1.448H5.32v-.384h1.054v.384h-.286v1.448h.286v.384zm1.854-2.216h.835q.219 0 .4.07.181.07.308.21.127.137.197.346.07.206.07.483 0 .276-.07.486-.07.206-.197.346-.127.137-.308.206-.181.07-.4.07h-.835zm.835 1.788q.216 0 .34-.121.124-.121.124-.387v-.343q0-.267-.124-.387-.124-.121-.34-.121h-.352v1.359zm2.619-1.359v1.788h-.483v-1.788h-.6v-.429h1.683v.429zm2.654.879h-.845v.908h-.483v-2.216h.483v.883h.845v-.883h.483v2.216h-.483zm-1.041-39.974v-1.457l-1.418-2.269h1.008l.89 1.484h.012l.854-1.484h.979l-1.418 2.264v1.463z"/><path d="M6.377 45.781l-.529-2.103h.502l.221 1.009.124.584h.01l.147-.584.258-1.009h.556l.261 1.009.144.584h.01l.124-.584.224-1.009h.482l-.542 2.103H7.79l-.294-1.139-.114-.461h-.01l-.117.461-.294 1.139zM5.136 60.814l-.529-2.103h.502l.221 1.009.124.584h.01l.147-.584.258-1.009h.556l.261 1.009.144.584h.01l.124-.584.224-1.009h.482l-.542 2.103h-.579l-.294-1.139-.114-.461h-.01l-.117.461-.294 1.139zm3.141-2.102h.88q.231 0 .422.066.191.066.325.199.134.13.207.328.074.196.074.458 0 .262-.074.461-.074.196-.207.328-.134.13-.325.196-.191.066-.422.066h-.88zm.88 1.696q.228 0 .358-.114.131-.114.131-.367V59.6q0-.253-.131-.367-.131-.114-.358-.114h-.371v1.289zM6.615 15.716v-2.103h1.59v.407H7.124v.431h.927v.404h-.927v.455h1.081v.407zM5.303 30.748v-2.103h1.59v.407H5.812v.431h.927v.404h-.927v.455h1.081v.407zm2.285-2.102h.88q.231 0 .422.066.191.066.325.199.134.13.207.328.074.196.074.458 0 .262-.074.461-.074.196-.207.328-.134.13-.325.196-.191.066-.422.066h-.88zm.88 1.696q.228 0 .358-.114.131-.114.131-.367v-.325q0-.253-.131-.367-.131-.114-.358-.114h-.371v1.289z" fill="#fff"/></svg>