<svg xmlns="http://www.w3.org/2000/svg" xmlns:xlink="http://www.w3.org/1999/xlink" width="211.196" height="485.673" viewBox="0 0 55.879 128.501" xmlns:v="https://vecta.io/nano"><style><![CDATA[.B{fill-rule:evenodd}.C{filter:url(#R)}.D{opacity:0}.E{fill:#161616}.F{fill:#f3f3f3}.G{fill:#fff}.H{fill-opacity:0}.I{fill:#010101}.J{fill:#d8d8d8}.K{fill:#2bc0e6}.L{fill:#e7e7e7}.M{fill:#e9e9e9}.N{stroke:#2bc0e6}]]></style><defs><linearGradient id="A" xlink:href="#AM"><stop offset="0" stop-color="#292929"/><stop offset="1" stop-color="#121212"/></linearGradient><linearGradient id="B" xlink:href="#AM"><stop offset="0" stop-color="#fff" stop-opacity=".697"/><stop offset="1" stop-color="#fff" stop-opacity=".1"/></linearGradient><linearGradient id="C" xlink:href="#AM"><stop offset="0" stop-color="#fff" stop-opacity=".9"/><stop offset="1" stop-color="#fff" stop-opacity=".1"/></linearGradient><linearGradient id="D" xlink:href="#AM"><stop offset="0" stop-color="#a2a2a2"/><stop offset="1" stop-color="#515151"/></linearGradient><linearGradient id="E" xlink:href="#AM"><stop offset="0" stop-color="#fff"/><stop offset="1" stop-color="#bcbcbc"/></linearGradient><linearGradient id="F" xlink:href="#AM"><stop offset="0"/><stop offset="1" stop-color="#fff"/></linearGradient><linearGradient id="G" xlink:href="#AM"><stop offset="0"/><stop offset="1" stop-color="#afafaf"/></linearGradient><linearGradient id="H" xlink:href="#AM"><stop offset="0" stop-color="#fff"/><stop offset="1"/></linearGradient><linearGradient xlink:href="#D" id="I" x1="49.617" y1="119.989" x2="49.617" y2="128.955"/><linearGradient id="J" x1="34.132" y1="3.509" x2="33.907" y2="121.882" xlink:href="#AM"><stop offset="0" stop-color="#171717"/><stop offset="1" stop-color="gray"/></linearGradient><linearGradient id="K" x1="27.802" y1="53.399" x2="33.89" y2="1.101" xlink:href="#AM"><stop offset="0"/><stop offset="1" stop-color="#1b1c1a"/></linearGradient><linearGradient id="L" x1="57.811" y1="5.004" x2="46.481" y2="72.191" gradientTransform="matrix(2.2106445,0,0,0.93888826,-65.773247,0.34686266)" xlink:href="#AM"><stop offset="0" stop-color="#f2f2f2"/><stop offset="1" stop-color="#e9e9e9"/></linearGradient><linearGradient xlink:href="#A" id="M" x1="24.079" y1="113.856" x2="17.42" y2="121.374" gradientTransform="matrix(1,0,0,0.64601666,2.7150272,12.531819)"/><linearGradient xlink:href="#A" id="N" x1="24.079" y1="113.856" x2="17.42" y2="121.374" gradientTransform="matrix(1,0,0,0.60668518,2.7150272,-17.511574)"/><linearGradient xlink:href="#A" id="O" gradientTransform="matrix(1,0,0,0.58701944,2.7150272,-34.159168)" x1="24.079" y1="113.856" x2="17.42" y2="121.374"/><linearGradient xlink:href="#A" id="P" gradientTransform="matrix(1,0,0,0.58701942,2.7150272,-43.597636)" x1="24.079" y1="113.856" x2="17.42" y2="121.374"/><linearGradient xlink:href="#A" id="Q" gradientTransform="matrix(1,0,0,0.66568241,2.7150272,-65.924631)" x1="24.079" y1="113.856" x2="17.42" y2="121.374"/><filter id="R" x="0" width="1" y="0" height="1" color-interpolation-filters="sRGB"><feGaussianBlur stdDeviation="0"/></filter><linearGradient xlink:href="#B" id="S" x1="41.886" y1="5.072" x2="41.824" y2="14.51"/><linearGradient xlink:href="#B" id="T" x1="41.886" y1="5.072" x2="41.825" y2="14.51"/><linearGradient xlink:href="#F" id="U" x1="93.147" y1="119.357" x2="93.082" y2="124.344"/><linearGradient xlink:href="#E" id="V" x1="-19.472" y1="67.277" x2="-19.574" y2="76.63"/><linearGradient xlink:href="#H" id="W" x1="-19.434" y1="67.442" x2="-19.434" y2="80.699"/><linearGradient id="X" x1="-19.434" y1="67.442" x2="-19.434" y2="77.609" xlink:href="#AM"><stop offset="0" stop-color="#d6d6d6"/><stop offset="1" stop-color="#363636"/></linearGradient><linearGradient xlink:href="#D" id="Y" x1="-19.453" y1="67.679" x2="-19.453" y2="76.646"/><linearGradient xlink:href="#G" id="Z" x1="93.015" y1="121.64" x2="93.015" y2="125.758"/><linearGradient xlink:href="#H" id="a" x1="-19.434" y1="67.442" x2="-19.434" y2="80.699"/><linearGradient xlink:href="#F" id="b" x1="93.147" y1="119.357" x2="93.082" y2="124.344"/><linearGradient xlink:href="#D" id="c" x1="49.618" y1="119.988" x2="49.618" y2="128.955"/><linearGradient xlink:href="#H" id="d" x1="93.061" y1="119.321" x2="93.061" y2="128.642"/><linearGradient xlink:href="#E" id="e" x1="93.027" y1="119.182" x2="92.933" y2="127.733"/><linearGradient xlink:href="#F" id="f" x1="93.147" y1="119.357" x2="93.083" y2="124.344"/><linearGradient xlink:href="#F" id="g" x1="93.147" y1="119.357" x2="93.083" y2="124.344"/><linearGradient xlink:href="#H" id="h" x1="92.789" y1="119.419" x2="92.789" y2="129.964"/><linearGradient xlink:href="#E" id="i" x1="92.757" y1="119.245" x2="92.671" y2="127.154"/><linearGradient xlink:href="#F" id="j" x1="92.855" y1="120.063" x2="92.805" y2="123.913"/><linearGradient xlink:href="#G" id="k" x1="93.015" y1="121.641" x2="93.015" y2="125.759"/><linearGradient xlink:href="#C" id="l" x1="138.502" y1="59.761" x2="138.502" y2="66.777"/><linearGradient xlink:href="#C" id="m" x1="138.512" y1="60.973" x2="138.512" y2="66.787"/><linearGradient xlink:href="#D" id="n" x1="49.618" y1="119.989" x2="49.618" y2="128.955"/><path id="o" d="M143.594 64.035c-.055-.012-.11-.019-.167-.019s-.112.007-.167.019v5.044h.333zm0 0"/><path id="p" d="M41.826 5.012a4.82 4.82 0 0 0-4.819 4.82 4.82 4.82 0 0 0 4.819 4.819 4.82 4.82 0 0 0 4.82-4.819 4.82 4.82 0 0 0-4.82-4.82zm.001.371a4.449 4.449 0 0 1 0 8.897 4.449 4.449 0 1 1 0-8.897z"/><path id="q" d="M18.541 7.846a8.46 8.46 0 0 0-.936.062v8.467h2.035V7.908a8.46 8.46 0 0 0-1.018-.062h-.082z"/><path id="r" d="M138.539 62.457a2.15 2.15 0 0 0 .018 4.3 2.15 2.15 0 1 0 0-4.3 2.15 2.15 0 0 0-.018 0zm.018.094a2.056 2.056 0 0 1 0 4.112 2.056 2.056 0 0 1 0-4.112z"/><path id="s" d="M138.535 61.551a2.595 2.595 0 1 0 .022 5.189 2.595 2.595 0 1 0 0-5.189 2.595 2.595 0 0 0-.022 0zm.022.114a2.481 2.481 0 0 1 0 4.962 2.481 2.481 0 0 1 0-4.962z"/><path id="t" d="M53.784 124.834v-.746l-.79-.153-.066-.285.68-.44-.285-.701-.79.176c-.045-.087-.111-.153-.153-.242l.461-.659-.527-.527-.659.461a1.3 1.3 0 0 0-.242-.153l.176-.79-.701-.285-.44.68-.285-.066-.153-.79h-.746l-.153.79-.285.066-.44-.68-.701.285.176.79c-.087.045-.153.111-.242.153l-.659-.461-.527.548.461.659c-.066.087-.111.153-.153.242l-.79-.176-.287.701.68.44-.066.285-.79.153v.746l.79.153.066.285-.68.44.285.701.79-.176c.045.087.111.153.153.242l-.461.659.527.527.659-.461a1.3 1.3 0 0 0 .242.153l-.176.79.701.285.44-.68.285.066.153.79h.746l.153-.79.285-.066.44.68.701-.285-.176-.79c.087-.045.153-.111.242-.153l.659.461.527-.527-.461-.659c.066-.087.111-.153.153-.242l.79.176.285-.701-.68-.44.066-.285zm-4.147 1.273c-.899 0-1.644-.724-1.644-1.644a1.63 1.63 0 1 1 3.288 0 1.64 1.64 0 0 1-1.644 1.644z"/><path id="u" d="M93.061 127.984a4.34 4.34 0 0 1-4.335-4.335 4.34 4.34 0 0 1 4.335-4.335 4.34 4.34 0 0 1 4.335 4.335 4.34 4.34 0 0 1-4.335 4.335"/><path id="v" d="M93.061 127.427c-2.084 0-3.779-1.695-3.779-3.779s1.695-3.779 3.779-3.779 3.779 1.695 3.779 3.779-1.695 3.779-3.779 3.779"/><path id="w" d="M93.061 127.211a3.57 3.57 0 0 1-3.563-3.563 3.57 3.57 0 0 1 3.563-3.563 3.57 3.57 0 0 1 3.563 3.563 3.57 3.57 0 0 1-3.563 3.563"/><path id="x" d="M94.879 123.649a1.82 1.82 0 0 1-1.818 1.818 1.82 1.82 0 0 1-1.818-1.818 1.82 1.82 0 0 1 1.818-1.818 1.82 1.82 0 0 1 1.818 1.818"/><path id="y" d="M93.061 126.286a2.64 2.64 0 0 1-2.638-2.638 2.64 2.64 0 0 1 2.638-2.638 2.64 2.64 0 0 1 2.638 2.638 2.64 2.64 0 0 1-2.638 2.638"/><path id="z" d="M94.724 123.649c0 .918-.745 1.662-1.662 1.662s-1.662-.745-1.662-1.662.745-1.662 1.662-1.662 1.662.745 1.662 1.662"/><path id="AA" d="M92.789 126.832a3.46 3.46 0 0 1-3.456-3.456 3.46 3.46 0 0 1 3.456-3.456 3.46 3.46 0 0 1 3.456 3.456 3.46 3.46 0 0 1-3.456 3.456"/><path id="AB" d="M92.789 126.672a3.3 3.3 0 0 1-3.296-3.296 3.3 3.3 0 0 1 3.296-3.296 3.3 3.3 0 0 1 3.296 3.296 3.3 3.3 0 0 1-3.296 3.296"/><path id="AC" d="M92.789 125.413a2.04 2.04 0 0 1-2.036-2.037 2.04 2.04 0 0 1 2.036-2.036 2.04 2.04 0 0 1 2.036 2.036 2.04 2.04 0 0 1-2.036 2.037"/><path id="AD" d="M-19.434 76.284c-2.273 0-4.121-1.848-4.121-4.121s1.848-4.121 4.121-4.121 4.121 1.848 4.121 4.121-1.848 4.121-4.121 4.121"/><path id="AE" d="M-15.287 72.525v-.746l-.79-.153-.066-.285.68-.44-.285-.701-.79.176c-.045-.087-.111-.153-.153-.242l.461-.659-.527-.527-.659.461a1.3 1.3 0 0 0-.242-.153l.176-.79-.701-.285-.44.68-.285-.066-.153-.79h-.746l-.153.79-.285.066-.44-.68-.701.285.176.79c-.087.045-.153.111-.242.153l-.659-.461-.527.548.461.659c-.066.087-.111.153-.153.242l-.79-.176-.287.701.68.44-.066.285-.79.153v.746l.79.153.066.285-.68.44.285.701.79-.176c.045.087.111.153.153.242l-.461.659.527.527.659-.461a1.3 1.3 0 0 0 .242.153l-.176.79.701.285.44-.68.285.066.153.79h.746l.153-.79.285-.066.44.68.701-.285-.176-.79c.087-.045.153-.111.242-.153l.659.461.527-.527-.461-.659c.066-.087.111-.153.153-.242l.79.176.285-.701-.68-.44.066-.285zm-4.147 1.273c-.899 0-1.644-.724-1.644-1.644a1.63 1.63 0 0 1 1.644-1.644 1.63 1.63 0 0 1 1.644 1.644 1.64 1.64 0 0 1-1.644 1.644z"/><path id="AF" d="M-19.434 76.059a3.9 3.9 0 0 1-3.897-3.897 3.9 3.9 0 0 1 3.897-3.897 3.9 3.9 0 0 1 3.897 3.897 3.9 3.9 0 0 1-3.897 3.897"/><path id="AG" d="M52.195 8.419a1.7 1.7 0 0 0-2.179 1.016 1.7 1.7 0 0 0 1.016 2.177 1.7 1.7 0 0 0 2.178-1.015 1.7 1.7 0 0 0-1.016-2.178"/><path id="AH" d="M15.975 105.336h-.016q-.025.168-.171.279-.146.111-.397.111-.191 0-.356-.073-.165-.073-.289-.216-.124-.143-.194-.356-.07-.213-.07-.492 0-.279.073-.495.073-.216.203-.362.133-.146.318-.222.184-.076.41-.076.298 0 .514.13.216.127.34.384l-.394.225q-.051-.13-.159-.219-.108-.092-.302-.092-.225 0-.359.13-.133.13-.133.41v.356q0 .276.133.41.133.13.359.13.089 0 .168-.019.079-.022.14-.064.06-.044.092-.105.035-.06.035-.143v-.111h-.413v-.403h.873v1.235h-.406z"/><path id="AI" d="M18.613 105.689l-.159-.527h-.74l-.159.527h-.489l.73-2.216h.597l.721 2.216zm-.524-1.778h-.016l-.244.841h.508z"/><path id="AJ" d="M20.537 103.901v1.788h-.483v-1.788h-.6v-.429h1.683v.429z"/><path id="AK" d="M21.864 105.689v-2.216h1.508v.429h-1.026v.454h.879v.425h-.879v.479h1.026v.429z"/><path id="AL" d="M10.645 105.605q-.219 0-.4-.073-.181-.073-.308-.216-.127-.146-.197-.359-.07-.216-.07-.498 0-.283.07-.495.07-.216.197-.359.127-.146.308-.219.181-.073.4-.073.219 0 .4.073.181.073.308.219.127.143.197.359.07.213.07.495 0 .283-.07.498-.07.213-.197.359-.127.143-.308.216-.181.073-.4.073zm0-.429q.219 0 .34-.143.124-.143.124-.41v-.33q0-.267-.124-.41-.121-.143-.34-.143-.219 0-.343.143-.121.143-.121.41v.33q0 .267.121.41.124.143.343.143z"/><linearGradient id="AM" gradientUnits="userSpaceOnUse"/></defs><g transform="translate(-8.011 -5.676)" class="B"><path d="M8.016 5.676h56.229v120.931H8.016z" fill="url(#L)"/><path d="M8.003 5.553h28.104v76.681H8.003z" fill="url(#K)"/><path d="M8.024 81.449h28.083v15.863H8.024z" fill="#bcbcbc"/></g><path d="M.027 120.64H56.26v8.066H.027z" fill="#bcbcbc" class="B"/><g fill="none" stroke-width=".265" class="N"><path d="M28.095 104.664l9.916-5.556m-9.916-9.505l9.916-5.556m-9.916-24.331l9.916-5.556m-9.916 20.429l9.916-5.556"/><path d="M28.095 44.702l9.916-5.556m-9.916-24.497l9.916-5.556m-9.916 20.595l9.916-5.556m-9.916 85.253l9.916 5.924"/></g><path d="M28.337 109.561l.043-94.997" fill="#1bb9e2" stroke-width=".569" class="N"/><path d="M20.266 16.924v.002l-1.952 1.952 1.952-.007h.001l1.953.007-1.952-1.952v-.002l-.001.001zm3.909 0l-1.954 1.954 1.954-.007zM11.264 6.034l1.954-1.954v1.947zm12.235-1.913v.005L21.55 6.075l1.949-.008h.005l1.949.008-1.949-1.949v-.005l-.003.003z" class="G"/><path d="M33.666 3.768l-.002 117.08h.428l.002-117.08z" fill="url(#J)" class="D"/><path d="M11.361 17.812h.516v.526h-.516z" paint-order="markers stroke fill" class="B G"/><path d="M9.381 81.582l18.727.023" fill="none" stroke-width="1.188" class="N"/><g class="B"><circle cx="42.228" cy="114.822" r="5.441" class="K"/><path d="M2.833 86.887h25.172v3.859H2.833z" fill="url(#M)" class="D"/><path d="M2.833 52.317h25.172v3.624H2.833z" fill="url(#N)" class="D"/><path d="M2.833 33.406h25.172v3.506H2.833z" fill="url(#O)" class="D"/><path d="M2.833 23.967h25.172v3.506H2.833z" fill="url(#P)" class="D"/><path d="M2.833 10.694h25.172v3.976H2.833z" fill="url(#Q)" class="D"/><g class="K"><circle cx="42.228" cy="99.789" r="5.441"/><circle cx="42.228" cy="84.755" r="5.441"/><circle cx="42.228" cy="69.721" r="5.441"/><circle cx="42.228" cy="54.687" r="5.441"/><circle cx="42.228" cy="39.653" r="5.441"/><circle cx="42.228" cy="24.619" r="5.441"/><circle cx="42.233" cy="9.58" r="5.441"/></g><g fill="#1a1a1a" class="H"><circle cx="41.826" cy="9.832" r="7.386" paint-order="markers stroke fill"/><circle cx="41.826" cy="115.069" r="7.386" paint-order="markers stroke fill"/></g></g><path d="M41.768-2.297l.019 1.44.011 1.107h.135.137l-.01-.142-.018-1.178-.018-1.3-.011-.261h-.129-.129zM46.312-.22l-.695 1.254-.055.1.111.064.111.064.031-.051 1.368-2.457a1.34 1.34 0 0 0-.224-.129 80.05 80.05 0 0 0-.647 1.156zm-9.563-.946c-.055.034-.095.071-.092.082a119.36 119.36 0 0 0 1.485 2.429 1.03 1.03 0 0 0 .208-.127 147.41 147.41 0 0 0-1.493-2.443c-.006-.002-.055.026-.108.06zm12.85 4.194l-1.228.729c-.011.011.061.159.111.224a143.65 143.65 0 0 0 2.451-1.439c.018-.016.011-.037-.04-.126l-.071-.105c-.005 0-.555.322-1.223.716zm-16.55-.402c-.034.058-.055.113-.047.119a207.42 207.42 0 0 0 2.482 1.4c.005 0 .037-.05.069-.109l.06-.109-1.239-.7-1.25-.703a.37.37 0 0 0-.074.103zm17.556 4.803l-1.001.013-.134.002v.129.13l.834-.01 1.432-.018.599-.01v-.127-.127l-.43.003-1.3.014zm-17.466.235l-1.403.005v.129.129h1.432H34.6V7.79c0-.121-.003-.137-.027-.134a110.67 110.67 0 0 1-1.434.008zm15.379 3.641l-.061.113.142.079 2.361 1.32c.039-.05.119-.214.109-.224-.016-.014-2.433-1.378-2.467-1.389-.018-.006-.042.024-.084.101zm-14.167.775l-1.221.727a.62.62 0 0 0 .124.22c.011 0 2.422-1.426 2.445-1.447.011-.011-.111-.229-.129-.225-.006.002-.554.327-1.218.724zm11.471 1.977c-.063.035-.098.066-.093.079.011.031 1.426 2.404 1.447 2.429.014.016.042.005.127-.045.105-.063.108-.068.087-.1l-.735-1.231-.723-1.193a1.22 1.22 0 0 0-.109.061zm-7.575.103l-1.329 2.44c0 .005.05.035.109.068l.111.058.682-1.247.686-1.257c.003-.005-.047-.037-.108-.069l-.111-.061z" transform="matrix(.666167 .009336 -.009477 .676184 -10.45141 5.235225)" stroke="#fff" stroke-width=".144" class="D G"/><g class="B"><g fill="#1a1a1a" class="H"><circle cx="41.826" cy="115.069" r="7.386" paint-order="markers stroke fill"/><circle cx="41.826" cy="100.035" r="7.386" paint-order="markers stroke fill"/><circle cx="41.826" cy="85.002" r="7.386" paint-order="markers stroke fill"/><circle cx="41.826" cy="69.968" r="7.386" paint-order="markers stroke fill"/><circle cx="41.826" cy="54.934" r="7.386" paint-order="markers stroke fill"/><circle cx="41.826" cy="39.9" r="7.386" paint-order="markers stroke fill"/><circle cx="41.826" cy="24.866" r="7.386" paint-order="markers stroke fill"/></g><circle cx="17.478" cy="64.342" r="4.919" class="L"/><use xlink:href="#o" transform="matrix(1.642141 0 0 .927904 -218.05022 .308758)" class="C"/><circle cx="17.478" cy="46.514" r="4.919" class="L"/><use xlink:href="#o" transform="matrix(1.642141 0 0 .927904 -218.05022 -17.519207)" class="C"/><circle cx="17.479" cy="28.685" r="4.919" class="L"/><use xlink:href="#o" transform="matrix(1.642141 0 0 .927904 -218.04997 -35.347441)" class="C"/></g><g transform="translate(.429 -.286)" class="B"><g transform="translate(-98.981 -56.564)"><circle cx="140.807" cy="66.396" r="4.919" fill="#ff322c"/><use xlink:href="#o" transform="matrix(1.642141 0 0 .927904 -94.721392 2.363041)" class="C G"/></g><use xlink:href="#p" fill="url(#S)"/></g><g transform="translate(-98.659 -41.785)" class="B"><circle cx="140.807" cy="66.396" r="4.919" class="I"/><use xlink:href="#o" transform="matrix(1.642141 0 0 .927904 -94.720682 2.363054)" class="C G"/><use xlink:href="#p" x="98.981" y="56.564" fill="url(#S)"/><ellipse cx="146.062" cy="61.737" rx=".025" ry=".446" paint-order="markers stroke fill" class="D J"/></g><g transform="translate(-98.659 -26.751)" class="B"><circle cx="140.807" cy="66.396" r="4.919" class="I"/><use xlink:href="#o" transform="matrix(1.642141 0 0 .927904 -94.720682 2.363054)" class="C G"/><use xlink:href="#p" x="98.981" y="56.564" fill="url(#S)"/><ellipse cx="146.062" cy="61.737" rx=".025" ry=".446" paint-order="markers stroke fill" class="D J"/></g><g transform="translate(-98.659 -11.717)" class="B"><circle cx="140.807" cy="66.396" r="4.919" class="I"/><use xlink:href="#o" transform="matrix(1.642141 0 0 .927904 -94.720682 2.363054)" class="C G"/></g><use xlink:href="#p" x="0.322" y="44.847" fill="url(#T)" class="B"/><g transform="translate(-98.659 3.317)" class="B"><circle cx="140.807" cy="66.396" r="4.919" class="I"/><use xlink:href="#o" transform="matrix(1.642141 0 0 .927904 -94.720682 2.363054)" class="C G"/><use xlink:href="#p" x="98.981" y="56.564" fill="url(#S)"/><ellipse cx="146.062" cy="61.737" rx=".025" ry=".446" paint-order="markers stroke fill" class="D J"/></g><g transform="translate(-98.659 18.351)" class="B"><circle cx="140.807" cy="66.396" r="4.919" class="I"/><use xlink:href="#o" transform="matrix(1.642141 0 0 .927904 -94.720682 2.363054)" class="C G"/><use xlink:href="#p" x="98.981" y="56.564" fill="url(#S)"/><ellipse cx="146.062" cy="61.737" rx=".025" ry=".446" paint-order="markers stroke fill" class="D J"/></g><g transform="translate(-98.659 33.385)" class="B"><circle cx="140.807" cy="66.396" r="4.919" class="I"/><use xlink:href="#o" transform="matrix(1.642141 0 0 .927904 -94.720682 2.363054)" class="C G"/><use xlink:href="#p" x="98.981" y="56.564" fill="url(#S)"/><ellipse cx="146.062" cy="61.737" rx=".025" ry=".446" paint-order="markers stroke fill" class="D J"/></g><g transform="translate(-98.659 48.419)" class="B"><circle cx="140.807" cy="66.396" r="4.919" class="I"/><use xlink:href="#o" transform="matrix(1.642141 0 0 .927904 -94.720682 2.363054)" class="C G"/><use xlink:href="#p" x="98.981" y="56.564" fill="url(#S)"/><ellipse cx="146.062" cy="61.737" rx=".025" ry=".446" paint-order="markers stroke fill" class="D J"/></g><g class="B"><use xlink:href="#p" x="-24.348" y="54.51" fill="url(#S)"/><use xlink:href="#p" x="-24.348" y="36.682" fill="url(#S)"/><use xlink:href="#p" x="-24.348" y="18.854" fill="url(#T)"/><circle cx="17.479" cy="10.896" r="4.919" class="L"/><use xlink:href="#o" transform="matrix(1.642141 0 0 .927904 -218.04998 -53.13657)" class="C"/><use xlink:href="#p" x="-24.348" y="1.065" fill="url(#T)"/></g><g transform="matrix(1.206832 0 0 1.206832 -160.6269 -8.009477)" class="B"><circle cx="138.557" cy="64.607" r="2.239" class="M"/><use xlink:href="#q" transform="matrix(.264583 0 0 .253616 133.62981 60.471775)" class="C"/><use xlink:href="#r" fill="url(#m)"/></g><g transform="matrix(1.206832 0 0 1.206832 -160.6269 -26.168139)" class="B"><circle cx="138.557" cy="64.607" r="2.239" class="M"/><use xlink:href="#q" transform="matrix(.264583 0 0 .253616 133.62981 60.471775)" class="C"/><use xlink:href="#r" fill="url(#m)"/></g><g transform="matrix(1.206832 0 0 1.206832 -160.62683 -44.326837)" class="B"><circle cx="138.557" cy="64.607" r="2.239" class="M"/><use xlink:href="#q" transform="matrix(.264583 0 0 .253616 133.62981 60.471775)" class="C"/><use xlink:href="#r" fill="url(#m)"/></g><g transform="matrix(1.206832 0 0 1.206832 -160.62691 -62.485475)" class="B"><circle cx="138.557" cy="64.607" r="2.239" class="M"/><use xlink:href="#q" transform="matrix(.264583 0 0 .253616 133.62981 60.471775)" class="C"/><use xlink:href="#r" fill="url(#m)"/></g><g transform="translate(-88.274 -60.884)" class="B"><circle cx="138.557" cy="64.146" r="2.71" class="E"/><use xlink:href="#q" transform="matrix(.320285 0 0 .307009 132.59247 59.140648)" class="C F"/><use xlink:href="#s" fill="url(#l)"/></g><g transform="translate(-88.274 -45.897)" class="B"><circle cx="138.557" cy="64.146" r="2.71" class="E"/><use xlink:href="#q" transform="matrix(.320285 0 0 .307009 132.59247 59.140648)" class="C F"/><use xlink:href="#s" fill="url(#l)"/></g><g transform="translate(-88.274 -30.91)" class="B"><circle cx="138.557" cy="64.146" r="2.71" class="E"/><use xlink:href="#q" transform="matrix(.320285 0 0 .307009 132.59247 59.140648)" class="C F"/><use xlink:href="#s" fill="url(#l)"/></g><g transform="translate(-88.274 -15.924)" class="B"><circle cx="138.557" cy="64.146" r="2.71" class="E"/><use xlink:href="#q" transform="matrix(.320285 0 0 .307009 132.59247 59.140648)" class="C F"/><use xlink:href="#s" fill="url(#l)"/></g><g transform="translate(-88.274 -.937)" class="B"><circle cx="138.557" cy="64.146" r="2.71" class="E"/><use xlink:href="#q" transform="matrix(.320285 0 0 .307009 132.59247 59.140648)" class="C F"/><use xlink:href="#s" fill="url(#l)"/></g><g transform="translate(-88.274 14.05)" class="B"><circle cx="138.557" cy="64.146" r="2.71" class="E"/><use xlink:href="#q" transform="matrix(.320285 0 0 .307009 132.59247 59.140648)" class="C F"/><use xlink:href="#s" fill="url(#l)"/></g><g transform="translate(-88.274 29.037)" class="B"><circle cx="138.557" cy="64.146" r="2.71" class="E"/><use xlink:href="#q" transform="matrix(.320285 0 0 .307009 132.59247 59.140648)" class="C F"/><use xlink:href="#s" fill="url(#l)"/></g><g transform="translate(-88.274 44.023)" class="B"><circle cx="138.557" cy="64.146" r="2.71" class="E"/><use xlink:href="#q" transform="matrix(.320285 0 0 .307009 132.59247 59.140648)" class="C F"/><use xlink:href="#s" fill="url(#l)"/></g><g transform="translate(-104.678 44.023)" class="B"><circle cx="138.557" cy="64.146" r="2.71" class="E"/><use xlink:href="#q" transform="matrix(.320285 0 0 .307009 132.59247 59.140648)" class="C F"/><use xlink:href="#s" fill="url(#l)"/></g><g transform="translate(-104.678 29.037)" class="B"><circle cx="138.557" cy="64.146" r="2.71" class="E"/><use xlink:href="#q" transform="matrix(.320285 0 0 .307009 132.59247 59.140648)" class="C F"/><use xlink:href="#s" fill="url(#l)"/></g><g transform="translate(-104.678 14.05)" class="B"><circle cx="138.557" cy="64.146" r="2.71" class="E"/><use xlink:href="#q" transform="matrix(.320285 0 0 .307009 132.59247 59.140648)" class="C F"/><use xlink:href="#s" fill="url(#l)"/></g><g transform="translate(-104.678 -.937)" class="B"><circle cx="138.557" cy="64.146" r="2.71" class="E"/><use xlink:href="#q" transform="matrix(.320285 0 0 .307009 132.59247 59.140648)" class="C F"/><use xlink:href="#s" fill="url(#l)"/></g><g transform="translate(-104.678 -15.924)" class="B"><circle cx="138.557" cy="64.146" r="2.71" class="E"/><use xlink:href="#q" transform="matrix(.320285 0 0 .307009 132.59247 59.140648)" class="C F"/><use xlink:href="#s" fill="url(#l)"/></g><g transform="translate(-104.678 -30.91)" class="B"><circle cx="138.557" cy="64.146" r="2.71" class="E"/><use xlink:href="#q" transform="matrix(.320285 0 0 .307009 132.59247 59.140648)" class="C F"/><use xlink:href="#s" fill="url(#l)"/></g><g transform="translate(-104.678 -45.897)" class="B"><circle cx="138.557" cy="64.146" r="2.71" class="E"/><use xlink:href="#q" transform="matrix(.320285 0 0 .307009 132.59247 59.140648)" class="C F"/><use xlink:href="#s" fill="url(#l)"/></g><g transform="translate(-104.678 -60.884)" class="B"><circle cx="138.557" cy="64.146" r="2.71" class="E"/><use xlink:href="#q" transform="matrix(.320285 0 0 .307009 132.59247 59.140648)" class="C F"/><use xlink:href="#s" fill="url(#l)"/></g><g transform="translate(-132.631 60.458)" class="B"><circle cx="138.557" cy="64.146" r="2.71" class="E"/><use xlink:href="#q" transform="matrix(.320285 0 0 .307009 132.59247 59.140648)" class="C F"/><use xlink:href="#s" fill="url(#l)"/></g><g transform="translate(-124.75 60.458)" class="B"><circle cx="138.557" cy="64.146" r="2.71" class="E"/><use xlink:href="#q" transform="matrix(.320285 0 0 .307009 132.59247 59.140648)" class="C F"/><use xlink:href="#s" fill="url(#l)"/></g><g transform="translate(-116.262 60.458)" class="B"><circle cx="138.557" cy="64.146" r="2.71" class="E"/><use xlink:href="#q" transform="matrix(.320285 0 0 .307009 132.59247 59.140648)" class="C F"/><use xlink:href="#s" fill="url(#l)"/></g><use xlink:href="#t" fill="url(#I)" class="D"/><g transform="translate(-84.329 -42.162)"><use xlink:href="#t" x="43.424" y="-0.823" fill="url(#c)" class="D"/><use xlink:href="#u" class="K"/><use xlink:href="#v" fill="url(#d)"/><use xlink:href="#w" fill="url(#e)"/><use xlink:href="#x" fill="url(#Z)"/><use xlink:href="#y" fill="url(#f)"/><use xlink:href="#z"/></g><g transform="translate(-73.787 -42.162)"><use xlink:href="#t" x="43.424" y="-0.823" fill="url(#c)" class="D"/><use xlink:href="#u" class="K"/><use xlink:href="#v" fill="url(#d)"/><use xlink:href="#w" fill="url(#e)"/><use xlink:href="#x" fill="url(#Z)"/><use xlink:href="#y" fill="url(#g)"/><use xlink:href="#z"/></g><g transform="translate(-58.91 1.228)"><use xlink:href="#AA" fill="url(#h)"/><use xlink:href="#AB" fill="url(#i)"/><use xlink:href="#AC" fill="url(#j)"/><use xlink:href="#x" x="-0.272" y="-0.273" fill="url(#k)"/><use xlink:href="#z" x="-0.273" y="-0.273"/></g><g transform="translate(-50.973 1.228)"><use xlink:href="#AA" fill="url(#h)"/><use xlink:href="#AB" fill="url(#i)"/><use xlink:href="#AC" fill="url(#j)"/><use xlink:href="#x" x="-0.272" y="-0.273" fill="url(#k)"/><use xlink:href="#z" x="-0.273" y="-0.273"/></g><g transform="translate(-43.152 1.096)"><use xlink:href="#AA" fill="url(#h)"/><use xlink:href="#AB" fill="url(#i)"/><use xlink:href="#AC" fill="url(#j)"/><use xlink:href="#x" x="-0.272" y="-0.273" fill="url(#k)"/><use xlink:href="#z" x="-0.273" y="-0.273"/></g><g transform="translate(-86.201 -61.54)"><use xlink:href="#AA" fill="url(#h)"/><use xlink:href="#AB" fill="url(#i)"/><use xlink:href="#AC" fill="url(#j)"/><use xlink:href="#x" x="-0.272" y="-0.273" fill="url(#k)"/><use xlink:href="#z" x="-0.273" y="-0.273"/></g><g transform="translate(-86.201 -79.698)"><use xlink:href="#AA" fill="url(#h)"/><use xlink:href="#AB" fill="url(#i)"/><use xlink:href="#AC" fill="url(#j)"/><use xlink:href="#x" x="-0.272" y="-0.273" fill="url(#k)"/><use xlink:href="#z" x="-0.273" y="-0.273"/></g><g transform="translate(-86.201 -97.857)"><use xlink:href="#AA" fill="url(#h)"/><use xlink:href="#AB" fill="url(#i)"/><use xlink:href="#AC" fill="url(#j)"/><use xlink:href="#x" x="-0.272" y="-0.273" fill="url(#k)"/><use xlink:href="#z" x="-0.273" y="-0.273"/></g><g transform="translate(28.166 39.276)"><use xlink:href="#AD" fill="url(#X)"/><use xlink:href="#AE" fill="url(#Y)" class="D"/><use xlink:href="#AD" fill="url(#W)"/><use xlink:href="#AF" fill="url(#V)"/><use xlink:href="#y" x="-112.495" y="-51.486" fill="url(#U)"/><use xlink:href="#x" x="-112.495" y="-51.486" fill="url(#Z)"/><use xlink:href="#z" x="-112.495" y="-51.486"/></g><g transform="translate(38.708 39.276)"><use xlink:href="#AD" fill="url(#X)"/><use xlink:href="#AE" fill="url(#Y)" class="D"/><use xlink:href="#AD" fill="url(#a)"/><use xlink:href="#AF" fill="url(#V)"/><use xlink:href="#y" x="-112.495" y="-51.486" fill="url(#b)"/><use xlink:href="#x" x="-112.495" y="-51.486" fill="url(#Z)"/><use xlink:href="#z" x="-112.495" y="-51.486"/></g><g transform="translate(38.708 26.179)"><use xlink:href="#AD" fill="url(#X)"/><use xlink:href="#AE" fill="url(#Y)" class="D"/><use xlink:href="#AD" fill="url(#a)"/><use xlink:href="#AF" fill="url(#V)"/><use xlink:href="#y" x="-112.495" y="-51.486" fill="url(#b)"/><use xlink:href="#x" x="-112.495" y="-51.486" fill="url(#Z)"/><use xlink:href="#z" x="-112.495" y="-51.486"/></g><g transform="translate(28.166 26.179)"><use xlink:href="#AD" fill="url(#X)"/><use xlink:href="#AE" fill="url(#Y)" class="D"/><use xlink:href="#AD" fill="url(#a)"/><use xlink:href="#AF" fill="url(#V)"/><use xlink:href="#y" x="-112.495" y="-51.486" fill="url(#b)"/><use xlink:href="#x" x="-112.495" y="-51.486" fill="url(#Z)"/><use xlink:href="#z" x="-112.495" y="-51.486"/></g><g transform="translate(-86.201 -116.016)"><use xlink:href="#AA" fill="url(#h)"/><use xlink:href="#AB" fill="url(#i)"/><use xlink:href="#AC" fill="url(#j)"/><use xlink:href="#x" x="-0.272" y="-0.273" fill="url(#k)"/><use xlink:href="#z" x="-0.273" y="-0.273"/></g><g fill="#24f6ff"><use xlink:href="#AG"/><use xlink:href="#AG" x="0.005" y="105.482"/><use xlink:href="#AG" x="0.005" y="90.448"/><use xlink:href="#AG" x="0.005" y="75.414"/><use xlink:href="#AG" x="0.005" y="60.38"/><use xlink:href="#AG" x="0.005" y="45.346"/><use xlink:href="#AG" x="0.005" y="30.312"/><use xlink:href="#AG" y="15.145"/></g><use xlink:href="#t" x="-7.091" y="-108.282" fill="url(#n)" class="D"/><use xlink:href="#AH"/><use xlink:href="#AI"/><use xlink:href="#AJ"/><use xlink:href="#AK"/><path d="M6.229 105.567l-.714-2.216h.489l.33 1.064.175.695h.01l.168-.695.33-1.064h.473l-.721 2.216zm1.505.479l.946-2.829h.387l-.946 2.829z"/><use xlink:href="#AL"/><g fill="#e8e8e8"><path d="M11.286 37.05h-.483v-2.216h1.051q.152 0 .276.051.124.051.21.146.089.092.137.222.048.13.048.289 0 .225-.102.394-.098.168-.302.244l.435.87h-.537l-.387-.813h-.346zm.508-1.219q.108 0 .168-.054.063-.057.063-.165v-.14q0-.108-.063-.162-.06-.057-.168-.057h-.508v.578z"/><use xlink:href="#AK" x="-8.524" y="-68.639"/><path d="M15.664 37.05v-2.216h1.048q.156 0 .279.054.124.051.21.143.089.092.137.225.048.13.048.286 0 .159-.048.289-.048.13-.137.222-.086.092-.21.146-.124.051-.279.051h-.565v.8zm.483-1.219h.508q.108 0 .168-.054.064-.057.064-.165v-.14q0-.108-.064-.162-.06-.057-.168-.057h-.508z"/><use xlink:href="#AK" x="-3.72" y="-68.639"/><use xlink:href="#AI" x="3.22" y="-68.639"/><use xlink:href="#AJ" x="3.22" y="-68.638"/><path d="M11.956 52.751h.835q.219 0 .4.07.181.07.308.21.127.137.197.346.07.206.07.483 0 .276-.07.486-.07.206-.197.346-.127.137-.308.206-.181.07-.4.07h-.835zm.835 1.788q.216 0 .34-.121.124-.121.124-.387v-.343q0-.267-.124-.387-.124-.121-.34-.121h-.352v1.359z"/><use xlink:href="#AK" x="-7.298" y="-50.722"/><path d="M16.89 54.967v-2.216h.483v1.788h.845v.429z"/><use xlink:href="#AI" x="1.775" y="-50.722"/><path d="M21.916 54.967v-.867l-.759-1.349h.54l.476.883h.006l.457-.883h.524l-.759 1.346v.87z"/></g><path d="M20.325 118.851h-.559l-.479-.816h-.009l-.467.816h-.521l.711-1.146-.676-1.07h.562l.432.749h.009l.438-.749h.521l-.683 1.079zm-11.601-.094q-.292 0-.495-.098-.203-.102-.346-.26l.317-.321q.225.254.556.254.178 0 .264-.073.086-.073.086-.194 0-.092-.051-.152-.051-.064-.206-.086l-.219-.029q-.352-.044-.518-.213-.162-.168-.162-.448 0-.149.057-.273.057-.124.162-.213.108-.089.26-.137.156-.051.352-.051.251 0 .441.079.191.079.327.232l-.321.324q-.079-.092-.194-.149-.111-.06-.283-.06-.162 0-.241.057-.079.057-.079.159 0 .114.06.165.063.051.203.073l.219.035q.343.054.508.213.165.156.165.445 0 .159-.057.292-.057.133-.168.229-.108.095-.27.149-.162.051-.368.051z"/><g fill="#e8e8e8"><use xlink:href="#AH" x="-1.435" y="-32.892"/><use xlink:href="#AI" x="-1.434" y="-32.892"/><use xlink:href="#AJ" x="-1.434" y="-32.892"/><use xlink:href="#AK" x="-1.434" y="-32.892"/></g><path d="M16.367 89.239h-.016q-.025.168-.171.279-.146.111-.397.111-.191 0-.356-.073-.165-.073-.289-.216-.124-.143-.194-.356-.07-.213-.07-.492 0-.279.073-.495.073-.216.203-.362.133-.146.318-.222.184-.076.41-.076.298 0 .514.13.216.127.34.384l-.394.225q-.051-.13-.159-.219-.108-.092-.302-.092-.225 0-.359.13-.133.13-.133.41v.356q0 .276.133.41.133.13.359.13.089 0 .168-.019.079-.022.14-.064.06-.044.092-.105.035-.06.035-.143v-.111H15.9v-.403h.873v1.235h-.406z"/><use xlink:href="#AI" x="0.392" y="-16.097"/><use xlink:href="#AJ" x="0.392" y="-16.097"/><use xlink:href="#AK" x="0.392" y="-16.097"/><path d="M6.641 89.47l-.714-2.216h.489l.33 1.064.175.695h.01l.168-.695.33-1.064h.473L7.18 89.47zm1.505.479l.946-2.829h.387l-.946 2.829z"/><use xlink:href="#AL" x="0.412" y="-16.097"/></svg>