<svg xmlns="http://www.w3.org/2000/svg" xmlns:xlink="http://www.w3.org/1999/xlink" width="57.6" height="485.669" viewBox="0 0 15.24 128.5" xmlns:v="https://vecta.io/nano"><style><![CDATA[.B{filter:url(#C)}.C{fill:#fff}.D{fill:#e9e9e9}.E{fill:url(#D)}.F{fill:#1bb9e2}.G{fill:url(#F)}.H{fill:url(#G)}.I{fill:url(#H)}.J{fill:url(#I)}.K{fill:url(#J)}.L{fill:url(#K)}.M{fill-rule:evenodd}]]></style><defs><linearGradient id="A" x1="16.232" x2="24.769" y1="48.466" y2="3.846" gradientTransform="matrix(1 0 0 1.6485 1.6215e-7 -3.6806)" xlink:href="#O"><stop offset="0"/><stop stop-color="#171816" offset="1"/></linearGradient><linearGradient id="B" x1="14.984" x2="23.685" y1="131.64" y2="105.05" xlink:href="#O"><stop stop-color="#e7e7e7" offset="0"/><stop stop-color="#f2f2f2" offset="1"/></linearGradient><filter id="C" x="0" y="0" width="1" height="1" color-interpolation-filters="sRGB"><feGaussianBlur stdDeviation="0"/></filter><linearGradient id="D" x1="138.513" x2="138.513" y1="60.973" y2="66.786" xlink:href="#E"/><linearGradient id="E" xlink:href="#O"><stop stop-color="#fff" stop-opacity=".9" offset="0"/><stop stop-color="#fff" stop-opacity=".1" offset="1"/></linearGradient><linearGradient id="F" x1="-18.392" x2="-18.392" y1="25.924" y2="32.939" xlink:href="#E"/><linearGradient id="G" x1="92.785" x2="92.785" y1="118.646" y2="128.815" xlink:href="#O"><stop stop-color="#d6d6d6" offset="0"/><stop stop-color="#363636" offset="1"/></linearGradient><linearGradient id="H" x1="92.785" x2="92.785" y1="118.646" y2="131.906" xlink:href="#O"><stop stop-color="#fff" offset="0"/><stop offset="1"/></linearGradient><linearGradient id="I" x1="92.755" x2="92.653" y1="118.499" y2="127.846" xlink:href="#O"><stop stop-color="#fff" offset="0"/><stop stop-color="#bcbcbc" offset="1"/></linearGradient><linearGradient id="J" x1="92.874" x2="92.811" y1="119.086" y2="124.075" xlink:href="#O"><stop offset="0"/><stop stop-color="#fff" offset="1"/></linearGradient><linearGradient id="K" x1="92.744" x2="92.744" y1="121.374" y2="125.486" xlink:href="#O"><stop offset="0"/><stop stop-color="#afafaf" offset="1"/></linearGradient><path id="L" d="M18.541 7.846a8.46 8.46 0 0 0-.936.062v8.467h2.035V7.908a8.46 8.46 0 0 0-1.018-.062h-.082z"/><path id="M" d="M96.936 123.74v-.746l-.79-.153-.066-.285.68-.44-.285-.701-.79.176c-.045-.087-.111-.153-.153-.242l.461-.659-.527-.527-.659.461a1.3 1.3 0 0 0-.242-.153l.176-.79-.701-.285-.44.68-.285-.066-.153-.79h-.746l-.153.79-.285.066-.44-.68-.701.285.176.79c-.087.045-.153.111-.242.153l-.659-.461-.527.548.461.659c-.066.087-.111.153-.153.242l-.79-.176-.287.701.68.44-.066.285-.79.153v.746l.79.153.066.285-.68.44.285.701.79-.176c.045.087.111.153.153.242l-.461.659.527.527.659-.461a1.3 1.3 0 0 0 .242.153l-.176.79.701.285.44-.68.285.066.153.79h.746l.153-.79.285-.066.44.68.701-.285-.176-.79c.087-.045.153-.111.242-.153l.659.461.527-.527-.461-.659c.066-.087.111-.153.153-.242l.79.176.285-.701-.68-.44.066-.285zm-4.147 1.273c-.899 0-1.644-.724-1.644-1.644a1.63 1.63 0 1 1 3.288 0 1.64 1.64 0 0 1-1.644 1.644z"/><path id="N" d="M94.451 123.38c0 .918-.745 1.662-1.662 1.662s-1.662-.745-1.662-1.662.745-1.662 1.662-1.662 1.662.745 1.662 1.662"/><linearGradient id="O" gradientUnits="userSpaceOnUse"/></defs><g transform="translate(-8.011 -5.675)"><path d="M8.237 105.65h15.449v28.433H8.237z" fill="url(#B)"/><path fill="url(#A)" d="M8.011 5.675h15.635v100.68H8.011z" class="M"/><path d="M8.011 98.551v5.078h15.635v-5.078zm0 13.497v5.078h15.635v-5.078zm0 13.23v9.047h15.635v-9.047z" opacity="0"/><path fill="#2bc0e6" d="M18.178 127.531l.425.002.008-24.137-.425-.002z"/><path d="M12.953 106.625l.425.001.008-9.388h-.425z" class="C"/><path d="M12.953 128.389l.425.002.008-22.038-.425-.002z"/></g><g class="M"><g transform="matrix(1.2068 0 0 1.2068 -161.92 12.148)"><circle cx="138.56" cy="64.607" r="2.239" class="D"/><use xlink:href="#L" transform="matrix(.26458 0 0 .25362 133.63 60.472)" class="B"/><path d="M138.54 62.457a2.15 2.15 0 1 0 .018 4.3 2.15 2.15 0 1 0 0-4.3 2.15 2.15 0 0 0-.018 0zm.018.094a2.056 2.056 0 1 1 0 4.112 2.056 2.056 0 1 1 0-4.112z" class="E"/></g><g transform="matrix(1.2068 0 0 1.2068 -161.92 .029881)"><circle cx="138.56" cy="64.607" r="2.239" class="D"/><use xlink:href="#L" transform="matrix(.26458 0 0 .25362 133.63 60.472)" class="B"/><path d="M138.54 62.457a2.15 2.15 0 1 0 .018 4.3 2.15 2.15 0 1 0 0-4.3 2.15 2.15 0 0 0-.018 0zm.018.094a2.056 2.056 0 1 1 0 4.112 2.056 2.056 0 1 1 0-4.112z" class="E"/></g><g transform="matrix(1.2068 0 0 1.2068 -161.92 -12.088)"><circle cx="138.56" cy="64.607" r="2.239" class="D"/><use xlink:href="#L" transform="matrix(.26458 0 0 .25362 133.63 60.472)" class="B"/><path d="M138.54 62.457a2.15 2.15 0 1 0 .018 4.3 2.15 2.15 0 1 0 0-4.3 2.15 2.15 0 0 0-.018 0zm.018.094a2.056 2.056 0 1 1 0 4.112 2.056 2.056 0 1 1 0-4.112z" class="E"/></g><g transform="matrix(1.2068 0 0 1.2068 -161.92 -24.206)"><circle cx="138.56" cy="64.607" r="2.239" class="D"/><use xlink:href="#L" transform="matrix(.26458 0 0 .25362 133.63 60.472)" class="B"/><path d="M138.54 62.457a2.15 2.15 0 1 0 .018 4.3 2.15 2.15 0 1 0 0-4.3 2.15 2.15 0 0 0-.018 0zm.018.094a2.056 2.056 0 1 1 0 4.112 2.056 2.056 0 1 1 0-4.112z" class="E"/></g><g transform="matrix(1.2068 0 0 1.2068 -161.92 -36.324)"><circle cx="138.56" cy="64.607" r="2.239" class="D"/><use xlink:href="#L" transform="matrix(.26458 0 0 .25362 133.63 60.472)" class="B"/><path d="M138.54 62.457a2.15 2.15 0 1 0 .018 4.3 2.15 2.15 0 1 0 0-4.3 2.15 2.15 0 0 0-.018 0zm.018.094a2.056 2.056 0 1 1 0 4.112 2.056 2.056 0 1 1 0-4.112z" class="E"/></g><g transform="matrix(1.2068 0 0 1.2068 -161.92 -48.442)"><circle cx="138.56" cy="64.607" r="2.239" class="D"/><use xlink:href="#L" transform="matrix(.26458 0 0 .25362 133.63 60.472)" class="B"/><path d="M138.54 62.457a2.15 2.15 0 1 0 .018 4.3 2.15 2.15 0 1 0 0-4.3 2.15 2.15 0 0 0-.018 0zm.018.094a2.056 2.056 0 1 1 0 4.112 2.056 2.056 0 1 1 0-4.112z" class="E"/></g><g transform="matrix(1.2068 0 0 1.2068 -161.92 -60.56)"><circle cx="138.56" cy="64.607" r="2.239" class="D"/><use xlink:href="#L" transform="matrix(.26458 0 0 .25362 133.63 60.472)" class="B"/><path d="M138.54 62.457a2.15 2.15 0 1 0 .018 4.3 2.15 2.15 0 1 0 0-4.3 2.15 2.15 0 0 0-.018 0zm.018.094a2.056 2.056 0 1 1 0 4.112 2.056 2.056 0 1 1 0-4.112z" class="E"/></g><g transform="matrix(1.2068 0 0 1.2068 -161.92 -72.678)"><circle cx="138.56" cy="64.607" r="2.239" class="D"/><use xlink:href="#L" transform="matrix(.26458 0 0 .25362 133.63 60.472)" class="B"/><path d="M138.54 62.457a2.15 2.15 0 1 0 .018 4.3 2.15 2.15 0 1 0 0-4.3 2.15 2.15 0 0 0-.018 0zm.018.094a2.056 2.056 0 1 1 0 4.112 2.056 2.056 0 1 1 0-4.112z" class="E"/></g><g transform="translate(28.786 -18.958)"><g transform="matrix(1.2068 0 0 1.2068 -185.55 -47.661)"><circle cx="138.56" cy="64.607" r="2.239" class="F"/><use xlink:href="#L" transform="matrix(.26458 0 0 .25362 133.63 60.472)" class="B C"/></g><path d="M-18.357 27.714a2.595 2.595 0 1 0 .022 5.189 2.595 2.595 0 1 0 0-5.189 2.595 2.595 0 0 0-.022 0zm.022.114a2.481 2.481 0 0 1 0 4.962 2.481 2.481 0 0 1 0-4.962z" class="G"/></g><g transform="translate(28.786 -6.84)"><g transform="matrix(1.2068 0 0 1.2068 -185.55 -47.661)"><circle cx="138.56" cy="64.607" r="2.239" class="F"/><use xlink:href="#L" transform="matrix(.26458 0 0 .25362 133.63 60.472)" class="B C"/></g><path d="M-18.357 27.714a2.595 2.595 0 1 0 .022 5.189 2.595 2.595 0 1 0 0-5.189 2.595 2.595 0 0 0-.022 0zm.022.114a2.481 2.481 0 0 1 0 4.962 2.481 2.481 0 0 1 0-4.962z" class="G"/></g><g transform="translate(28.786 5.278)"><g transform="matrix(1.2068 0 0 1.2068 -185.55 -47.661)"><circle cx="138.56" cy="64.607" r="2.239" class="F"/><use xlink:href="#L" transform="matrix(.26458 0 0 .25362 133.63 60.472)" class="B C"/></g><path d="M-18.357 27.714a2.595 2.595 0 1 0 .022 5.189 2.595 2.595 0 1 0 0-5.189 2.595 2.595 0 0 0-.022 0zm.022.114a2.481 2.481 0 0 1 0 4.962 2.481 2.481 0 0 1 0-4.962z" class="G"/></g><g transform="translate(28.786 17.396)"><g transform="matrix(1.2068 0 0 1.2068 -185.55 -47.661)"><circle cx="138.56" cy="64.607" r="2.239" class="F"/><use xlink:href="#L" transform="matrix(.26458 0 0 .25362 133.63 60.472)" class="B C"/></g><path d="M-18.357 27.714a2.595 2.595 0 1 0 .022 5.189 2.595 2.595 0 1 0 0-5.189 2.595 2.595 0 0 0-.022 0zm.022.114a2.481 2.481 0 0 1 0 4.962 2.481 2.481 0 0 1 0-4.962z" class="G"/></g><g transform="translate(28.786 29.514)"><g transform="matrix(1.2068 0 0 1.2068 -185.55 -47.661)"><circle cx="138.56" cy="64.607" r="2.239" class="F"/><use xlink:href="#L" transform="matrix(.26458 0 0 .25362 133.63 60.472)" class="B C"/></g><path d="M-18.357 27.714a2.595 2.595 0 1 0 .022 5.189 2.595 2.595 0 1 0 0-5.189 2.595 2.595 0 0 0-.022 0zm.022.114a2.481 2.481 0 0 1 0 4.962 2.481 2.481 0 0 1 0-4.962z" class="G"/></g><g transform="translate(28.786 41.632)"><g transform="matrix(1.2068 0 0 1.2068 -185.55 -47.661)"><circle cx="138.56" cy="64.607" r="2.239" class="F"/><use xlink:href="#L" transform="matrix(.26458 0 0 .25362 133.63 60.472)" class="B C"/></g><path d="M-18.357 27.714a2.595 2.595 0 1 0 .022 5.189 2.595 2.595 0 1 0 0-5.189 2.595 2.595 0 0 0-.022 0zm.022.114a2.481 2.481 0 0 1 0 4.962 2.481 2.481 0 0 1 0-4.962z" class="G"/></g><g transform="translate(28.786 53.75)"><g transform="matrix(1.2068 0 0 1.2068 -185.55 -47.661)"><circle cx="138.56" cy="64.607" r="2.239" class="F"/><use xlink:href="#L" transform="matrix(.26458 0 0 .25362 133.63 60.472)" class="B C"/></g><path d="M-18.357 27.714a2.595 2.595 0 1 0 .022 5.189 2.595 2.595 0 1 0 0-5.189 2.595 2.595 0 0 0-.022 0zm.022.114a2.481 2.481 0 0 1 0 4.962 2.481 2.481 0 0 1 0-4.962z" class="G"/></g><g transform="translate(28.786 65.868)"><g transform="matrix(1.2068 0 0 1.2068 -185.55 -47.661)"><circle cx="138.56" cy="64.607" r="2.239" class="F"/><use xlink:href="#L" transform="matrix(.26458 0 0 .25362 133.63 60.472)" class="B C"/></g><path d="M-18.357 27.714a2.595 2.595 0 1 0 .022 5.189 2.595 2.595 0 1 0 0-5.189 2.595 2.595 0 0 0-.022 0zm.022.114a2.481 2.481 0 0 1 0 4.962 2.481 2.481 0 0 1 0-4.962z" class="G"/></g></g><g transform="translate(-87.497 -17.781)"><path d="M92.789 127.5c-2.273 0-4.121-1.848-4.121-4.121s1.848-4.121 4.121-4.121 4.121 1.848 4.121 4.121-1.848 4.121-4.121 4.121" class="H"/><use xlink:href="#M" opacity="0"/><path d="M92.789 127.5c-2.273 0-4.121-1.848-4.121-4.121s1.848-4.121 4.121-4.121 4.121 1.848 4.121 4.121-1.848 4.121-4.121 4.121" class="I"/><path d="M92.789 127.27a3.9 3.9 0 0 1-3.897-3.897 3.9 3.9 0 0 1 3.897-3.897 3.9 3.9 0 0 1 3.897 3.897 3.9 3.9 0 0 1-3.897 3.897" class="J"/><path d="M92.789 126.01a2.64 2.64 0 0 1-2.638-2.638 2.64 2.64 0 0 1 2.638-2.638 2.64 2.64 0 0 1 2.638 2.638 2.64 2.64 0 0 1-2.638 2.638" class="K"/><path d="M94.607 123.38a1.82 1.82 0 0 1-1.818 1.818 1.82 1.82 0 0 1-1.818-1.818 1.82 1.82 0 0 1 1.818-1.818 1.82 1.82 0 0 1 1.818 1.818" class="L"/><use xlink:href="#N"/></g><g transform="translate(-82.338 -9.738)"><path d="M92.789 127.5c-2.273 0-4.121-1.848-4.121-4.121s1.848-4.121 4.121-4.121 4.121 1.848 4.121 4.121-1.848 4.121-4.121 4.121" class="H"/><use xlink:href="#M" opacity="0"/><path d="M92.789 127.5c-2.273 0-4.121-1.848-4.121-4.121s1.848-4.121 4.121-4.121 4.121 1.848 4.121 4.121-1.848 4.121-4.121 4.121" class="I"/><path d="M92.789 127.27a3.9 3.9 0 0 1-3.897-3.897 3.9 3.9 0 0 1 3.897-3.897 3.9 3.9 0 0 1 3.897 3.897 3.9 3.9 0 0 1-3.897 3.897" class="J"/><path d="M92.789 126.01a2.64 2.64 0 0 1-2.638-2.638 2.64 2.64 0 0 1 2.638-2.638 2.64 2.64 0 0 1 2.638 2.638 2.64 2.64 0 0 1-2.638 2.638" class="K"/><path d="M94.607 123.38a1.82 1.82 0 0 1-1.818 1.818 1.82 1.82 0 0 1-1.818-1.818 1.82 1.82 0 0 1 1.818-1.818 1.82 1.82 0 0 1 1.818 1.818" class="L"/><use xlink:href="#N"/></g><g transform="translate(-85.169 -.61)"><path d="M92.789 127.5c-2.273 0-4.121-1.848-4.121-4.121s1.848-4.121 4.121-4.121 4.121 1.848 4.121 4.121-1.848 4.121-4.121 4.121" class="H"/><use xlink:href="#M" opacity="0"/><path d="M92.789 127.5c-2.273 0-4.121-1.848-4.121-4.121s1.848-4.121 4.121-4.121 4.121 1.848 4.121 4.121-1.848 4.121-4.121 4.121" class="I"/><path d="M92.789 127.27a3.9 3.9 0 0 1-3.897-3.897 3.9 3.9 0 0 1 3.897-3.897 3.9 3.9 0 0 1 3.897 3.897 3.9 3.9 0 0 1-3.897 3.897" class="J"/><path d="M92.789 126.01a2.64 2.64 0 0 1-2.638-2.638 2.64 2.64 0 0 1 2.638-2.638 2.64 2.64 0 0 1 2.638 2.638 2.64 2.64 0 0 1-2.638 2.638" class="K"/><path d="M94.607 123.38a1.82 1.82 0 0 1-1.818 1.818 1.82 1.82 0 0 1-1.818-1.818 1.82 1.82 0 0 1 1.818-1.818 1.82 1.82 0 0 1 1.818 1.818" class="L"/><use xlink:href="#N"/></g></svg>