<?xml version="1.0" encoding="UTF-8" standalone="no"?>
<svg
   xmlns:dc="http://purl.org/dc/elements/1.1/"
   xmlns:cc="http://creativecommons.org/ns#"
   xmlns:rdf="http://www.w3.org/1999/02/22-rdf-syntax-ns#"
   xmlns:svg="http://www.w3.org/2000/svg"
   xmlns="http://www.w3.org/2000/svg"
   xmlns:sodipodi="http://sodipodi.sourceforge.net/DTD/sodipodi-0.dtd"
   xmlns:inkscape="http://www.inkscape.org/namespaces/inkscape"
   id="icon"
   viewBox="0 0 118 32"
   version="1.1"
   sodipodi:docname="logo--animejs.svg"
   width="118"
   height="32"
   inkscape:version="1.0.2-2 (e86c870879, 2021-01-15)">
  <metadata
     id="metadata14">
    <rdf:RDF>
      <cc:Work
         rdf:about="">
        <dc:format>image/svg+xml</dc:format>
        <dc:type
           rdf:resource="http://purl.org/dc/dcmitype/StillImage" />
        <dc:title>logo--github</dc:title>
      </cc:Work>
    </rdf:RDF>
  </metadata>
  <sodipodi:namedview
     pagecolor="#ffffff"
     bordercolor="#666666"
     borderopacity="1"
     objecttolerance="10"
     gridtolerance="10"
     guidetolerance="10"
     inkscape:pageopacity="0"
     inkscape:pageshadow="2"
     inkscape:window-width="2560"
     inkscape:window-height="1377"
     id="namedview12"
     showgrid="false"
     inkscape:zoom="5.5684659"
     inkscape:cx="82.190688"
     inkscape:cy="27.472384"
     inkscape:window-x="1432"
     inkscape:window-y="586"
     inkscape:window-maximized="1"
     inkscape:current-layer="icon" />
  <defs
     id="defs4">
    <style
       id="style2">.cls-1{fill-rule:evenodd;}.cls-2{fill:none;}</style>
  </defs>
  <title
     id="title6">logo--github</title>
  <rect
     id="_Transparent_Rectangle_"
     data-name="&lt;Transparent Rectangle&gt;"
     class="cls-2"
     width="32"
     height="32"
     x="0"
     y="0" />
  <g
     id="anime-mini-logo"
     fill="none"
     fill-rule="evenodd"
     stroke-linecap="square"
     style="fill:none;fill-opacity:1;stroke:#464646;stroke-opacity:1"
     transform="matrix(0.11594066,0,0,0.11594066,1.029679,2.0871203)">
    <path
       id="Path-18-Copy-66"
       stroke="#F6F4F2"
       stroke-width="40"
       d="m 30,20 h 130 c 9.996,0 10,40 10,60 V 220 H 41 c -11.004,0 -11,-40 -11,-60 0,-20 -0.004,-60 10,-60 h 110"
       style="fill:none;fill-opacity:1;stroke:#464646;stroke-opacity:1" />
    <path
       id="Path-18-Copy-67"
       stroke="#F6F4F2"
       stroke-width="40"
       d="m 850,140 h 110 c 10,0 10,-40 10,-60 0,-20 0,-60 -10,-60 H 840 c -10,0 -10,40 -10,60 v 80 c 0,20 0,60 10,60 h 130"
       style="fill:none;fill-opacity:1;stroke:#464646;stroke-opacity:1" />
    <path
       id="Path-18-Copy-68"
       stroke="#F6F4F2"
       stroke-width="40"
       d="M 430,100 V 220"
       style="fill:none;fill-opacity:1;stroke:#464646;stroke-opacity:1" />
    <path
       id="Path-18-Copy-69"
       stroke="#F6F4F2"
       stroke-width="40"
       d="m 430,20.2 v 0.6"
       style="fill:none;fill-opacity:1;stroke:#464646;stroke-opacity:1" />
    <path
       id="Path-18-Copy-71"
       stroke="#F6F4F2"
       stroke-width="40"
       d="M 370,220 V 80 c 0,-20 0,-60 -10,-60 H 240 c -10,0 -10,40 -10,60 v 140"
       style="fill:none;fill-opacity:1;stroke:#464646;stroke-opacity:1" />
    <path
       id="Path-18-Copy-74"
       stroke="#F6F4F2"
       stroke-width="40"
       d="M 770,220 V 80 c 0,-20 0,-60 -10,-60 H 500 c -10,0 -10,40 -10,60 v 140"
       style="fill:none;fill-opacity:1;stroke:#464646;stroke-opacity:1" />
  </g>
</svg>
