<?xml version="1.0" encoding="UTF-8" standalone="no"?>
<svg
   xmlns:dc="http://purl.org/dc/elements/1.1/"
   xmlns:cc="http://creativecommons.org/ns#"
   xmlns:rdf="http://www.w3.org/1999/02/22-rdf-syntax-ns#"
   xmlns:svg="http://www.w3.org/2000/svg"
   xmlns="http://www.w3.org/2000/svg"
   xmlns:sodipodi="http://sodipodi.sourceforge.net/DTD/sodipodi-0.dtd"
   xmlns:inkscape="http://www.inkscape.org/namespaces/inkscape"
   id="icon"
   viewBox="0 0 64 32"
   version="1.1"
   sodipodi:docname="logo--lit.svg"
   width="64"
   height="32"
   inkscape:version="1.0.2-2 (e86c870879, 2021-01-15)">
  <metadata
     id="metadata14">
    <rdf:RDF>
      <cc:Work
         rdf:about="">
        <dc:format>image/svg+xml</dc:format>
        <dc:type
           rdf:resource="http://purl.org/dc/dcmitype/StillImage" />
        <dc:title>logo--github</dc:title>
      </cc:Work>
    </rdf:RDF>
  </metadata>
  <sodipodi:namedview
     pagecolor="#ffffff"
     bordercolor="#666666"
     borderopacity="1"
     objecttolerance="10"
     gridtolerance="10"
     guidetolerance="10"
     inkscape:pageopacity="0"
     inkscape:pageshadow="2"
     inkscape:window-width="2560"
     inkscape:window-height="1377"
     id="namedview12"
     showgrid="false"
     inkscape:zoom="7.875"
     inkscape:cx="68.890234"
     inkscape:cy="27.070106"
     inkscape:window-x="1432"
     inkscape:window-y="586"
     inkscape:window-maximized="1"
     inkscape:current-layer="icon" />
  <defs
     id="defs4">
    <style
       id="style2">.cls-1{fill-rule:evenodd;}.cls-2{fill:none;}</style>
  </defs>
  <title
     id="title6">logo--github</title>
  <rect
     id="_Transparent_Rectangle_"
     data-name="&lt;Transparent Rectangle&gt;"
     class="cls-2"
     width="32"
     height="32"
     x="0"
     y="0" />
  <g
     id="g1581"
     transform="matrix(0.13920243,0,0,0.13920243,17.346182,16.265147)">
    <path
       d="m 287.26984,-23.9349 v 28.8 h 30.5 v 15.6 h -30.5 v 35.6 c 0,3.6 0.1,7.2 0.5,10.3 0.8,5.3 4,10.5 8.4,12.5 5.7,2.6 9.7,2.1 21.6,1.7 l -2.9,17.2 c -0.8,0.4 -4,0.3 -7,0.3 -7,0 -33.4,2.5 -38.8,-24.7 -0.9,-4.7 -0.7,-9.5 -0.7,-16.9 v -35.8 h -13.6 l 0.2,-15.9 h 13.4 v -28.7 z m -51.7,28.7 v 91.5 h -18.8 v -91.5 z m 0,-28.7 v 16.3 h -19 v -16.3 z m -83.6,102.2 h 48.2 l -18,18 h -49.4 v -120.2 h 19.2 z"
       id="path912" />
    <path
       fill="#324fff"
       d="m -107.23016,-21.9349 v 80 a 70.3,70.3 0 0 0 40,-40 z"
       id="path914" />
    <path
       fill="#283198"
       d="m -67.23016,18.0651 c 5.7,27.3 5.3,47 0,80 l -40,-40 z"
       id="path916" />
    <path
       fill="#00ffff"
       d="m -67.23016,18.0651 v 80 l 40,-40 a 149.9,149.9 0 0 0 -40,-40 z"
       id="path918" />
    <path
       fill="#324fff"
       d="m -27.23016,-101.9349 v 80 c 0,0 -31.7,-24.3 -40,-40 z"
       id="path920" />
    <path
       fill="#324fff"
       d="m -67.23016,-61.9349 v 80 a 84.8,84.8 0 0 0 40,-40 z"
       id="path922" />
    <path
       fill="#00e8ff"
       d="m -27.23016,-21.9349 a 182,182 0 0 1 0,80 l -40,-40 z"
       id="path924" />
    <path
       fill="#283198"
       d="m -27.23016,-21.9349 v 80 c 17,-7.5 31.5,-19 40,-40 -5.9,-17 -18.1,-30.9 -40,-40 z"
       id="path926" />
    <path
       fill="#283198"
       d="m 12.76984,-61.9349 v 80 l -40,-40 z"
       id="path928" />
    <path
       fill="#00e8ff"
       d="m 12.76984,18.0651 c 6.1,27 4.9,53.6 0,80 l -40,-40 z"
       id="path930" />
    <path
       fill="#324fff"
       d="m 12.76984,18.0651 v 80 l 40,-40 c -5.4,-15 -18.3,-27.9 -40,-40 z"
       id="path932" />
    <path
       fill="#324fff"
       d="m 52.76984,-21.9349 v 80 l -40,-40 z"
       id="path934" />
  </g>
</svg>
